<svg width="23" height="18" viewBox="0 0 23 18" fill="none" xmlns="http://www.w3.org/2000/svg">
<path fill-rule="evenodd" clip-rule="evenodd" d="M11.5012 14.9998C9.01625 14.9998 7.00125 12.9847 7.00125 10.4998C7.00125 8.01475 9.01625 5.99975 11.5012 5.99975C13.9862 5.99975 16.0012 8.01475 16.0012 10.4998C16.0012 12.9847 13.9862 14.9998 11.5012 14.9998ZM22.8342 4.54775C22.7922 3.77075 22.1643 3.14775 21.3873 3.11775C20.1833 3.07175 18.7272 3.04375 17.5222 3.01375L17.0333 1.26575C16.8623 0.65275 16.3193 0.21475 15.6842 0.17175C12.3512 -0.05725 11.1473 -0.05725 7.81425 0.17175C7.17925 0.21475 6.63625 0.65275 6.46525 1.26475L5.98025 2.99975C4.60825 3.03075 2.98625 3.06575 1.61525 3.11775C0.83925 3.14775 0.20925 3.76575 0.16725 4.53975C-0.05575 8.62375 -0.05575 12.3067 0.16725 16.3897C0.20925 17.1647 0.83325 17.7888 1.60925 17.8178C8.36825 18.0758 14.6373 18.0598 21.3953 17.7698C22.1702 17.7367 22.7922 17.1128 22.8342 16.3388C23.0553 12.2748 23.0553 8.61175 22.8342 4.54775Z" fill="white"/>
</svg>
