<svg width="29" height="19" viewBox="0 0 29 19" fill="none" xmlns="http://www.w3.org/2000/svg">
<path fill-rule="evenodd" clip-rule="evenodd" d="M14.5012 14.9998C12.0162 14.9998 10.0012 12.9847 10.0012 10.4998C10.0012 8.01475 12.0162 5.99975 14.5012 5.99975C16.9862 5.99975 19.0012 8.01475 19.0012 10.4998C19.0012 12.9847 16.9862 14.9998 14.5012 14.9998ZM25.8342 4.54775C25.7922 3.77075 25.1643 3.14775 24.3873 3.11775C23.1833 3.07175 21.7272 3.04375 20.5222 3.01375L20.0333 1.26575C19.8623 0.65275 19.3193 0.21475 18.6842 0.17175C15.3512 -0.05725 14.1473 -0.05725 10.8142 0.17175C10.1792 0.21475 9.63625 0.65275 9.46525 1.26475L8.98025 2.99975C7.60825 3.03075 5.98625 3.06575 4.61525 3.11775C3.83925 3.14775 3.20925 3.76575 3.16725 4.53975C2.94425 8.62375 2.94425 12.3067 3.16725 16.3897C3.20925 17.1647 3.83325 17.7888 4.60925 17.8178C11.3682 18.0758 17.6373 18.0598 24.3953 17.7698C25.1702 17.7367 25.7922 17.1128 25.8342 16.3388C26.0553 12.2748 26.0553 8.61175 25.8342 4.54775Z" fill="white"/>
<rect x="26.7404" y="1.20093" width="3" height="30" rx="1.5" transform="rotate(60 26.7404 1.20093)" fill="#FF0000"/>
</svg>
