<svg width="46" height="46" viewBox="0 0 46 46" fill="none" xmlns="http://www.w3.org/2000/svg">
<rect opacity="0.5" width="46" height="46" rx="23" fill="white"/>
<g filter="url(#filter0_d)">
<path fill-rule="evenodd" clip-rule="evenodd" d="M22.6517 11.0039C25.9774 10.9193 29.1903 12.2158 31.5295 14.5832C33.8687 16.9506 35.1088 20.1917 34.9397 23.5455C34.6297 29.4641 30.0358 34.2834 24.1454 34.8753C22.4262 35.0444 20.7071 34.8471 19.0724 34.2835L14.5067 35.0726C14.1685 35.129 13.8021 35.1008 13.4921 34.9599C12.5902 34.5653 12.1675 33.5225 12.562 32.6206L13.5484 30.2814C12.8439 29.3795 12.2802 28.3931 11.8574 27.3221C11.3501 26.0539 11.0683 24.7011 11.0401 23.3201C10.8428 16.697 16.0286 11.2012 22.6517 11.0039ZM18.9879 27.7449H22.1162C22.6235 27.7449 23.0181 27.3503 23.0181 26.843C23.0181 26.3357 22.5953 25.9411 22.1162 25.9411H18.9879C18.4806 25.9411 18.086 26.3639 18.086 26.843C18.086 27.3503 18.5087 27.7449 18.9879 27.7449ZM26.992 24.081H18.9879C18.5087 24.081 18.086 23.6865 18.086 23.1792C18.086 22.6719 18.4806 22.2773 18.9879 22.2773H26.992C27.4711 22.2773 27.8938 22.6719 27.8938 23.1792C27.8938 23.6865 27.4711 24.081 26.992 24.081ZM18.9879 20.389H26.992C27.4711 20.389 27.8938 19.9662 27.8938 19.4871C27.8938 18.9798 27.4711 18.5852 26.992 18.5852H18.9879C18.4806 18.5852 18.086 19.008 18.086 19.4871C18.086 19.9944 18.5087 20.389 18.9879 20.389Z" fill="white"/>
</g>
<defs>
<filter id="filter0_d" x="7.03467" y="8" width="31.9203" height="32.0998" filterUnits="userSpaceOnUse" color-interpolation-filters="sRGB">
<feFlood flood-opacity="0" result="BackgroundImageFix"/>
<feColorMatrix in="SourceAlpha" type="matrix" values="0 0 0 0 0 0 0 0 0 0 0 0 0 0 0 0 0 0 127 0"/>
<feOffset dy="1"/>
<feGaussianBlur stdDeviation="2"/>
<feColorMatrix type="matrix" values="0 0 0 0 0 0 0 0 0 0 0 0 0 0 0 0 0 0 0.7 0"/>
<feBlend mode="normal" in2="BackgroundImageFix" result="effect1_dropShadow"/>
<feBlend mode="normal" in="SourceGraphic" in2="effect1_dropShadow" result="shape"/>
</filter>
</defs>
</svg>
