<svg width="20" height="20" viewBox="0 0 20 20" fill="none" xmlns="http://www.w3.org/2000/svg">
<path fill-rule="evenodd" clip-rule="evenodd" d="M4.51568 9.38413C6.2275 11.715 8.28386 13.7723 10.6157 15.4841C10.9829 15.7532 11.4966 15.7059 11.8184 15.3841L13.8866 13.3169C14.2793 12.9241 14.8684 12.8032 15.3848 13.0096L19.1266 14.5059C20.052 14.8769 20.2975 16.0732 19.5929 16.7778L18.8211 17.5496C15.6348 20.7359 10.472 20.835 7.21022 17.7269C5.52477 16.1205 3.87841 14.475 2.27295 12.7896C-0.835226 9.52777 -0.736135 4.36505 2.45023 1.17869L3.22204 0.406868C3.92659 -0.297677 5.12295 -0.0522227 5.49386 0.873231L6.99022 4.61505C7.19659 5.13141 7.07568 5.7205 6.68295 6.11323L4.61568 8.1805C4.29386 8.50322 4.24659 9.01686 4.51568 9.38413Z" fill="#FF0000"/>
</svg>
