<svg width="30" height="30" viewBox="0 0 30 30" fill="none" xmlns="http://www.w3.org/2000/svg">
<circle cx="15" cy="15" r="15" fill="white"/>
<path fill-rule="evenodd" clip-rule="evenodd" d="M15 14.0777L17.6132 11.4645C17.8679 11.2098 18.2808 11.2098 18.5355 11.4645C18.7902 11.7192 18.7902 12.1321 18.5355 12.3868L15.9223 15L18.5355 17.6132C18.7902 17.8679 18.7902 18.2809 18.5355 18.5356C18.2808 18.7902 17.8679 18.7902 17.6132 18.5356L15 15.9223L12.3868 18.5356C12.1321 18.7902 11.7192 18.7902 11.4645 18.5356C11.2098 18.2809 11.2098 17.8679 11.4645 17.6132L14.0777 15L11.4645 12.3868C11.2098 12.1321 11.2098 11.7192 11.4645 11.4645C11.7192 11.2098 12.1321 11.2098 12.3868 11.4645L15 14.0777Z" fill="black"/>
<path d="M15 14.0777L14.6464 14.4313L15 14.7848L15.3536 14.4313L15 14.0777ZM15.9223 15L15.5688 14.6465L15.2152 15L15.5688 15.3536L15.9223 15ZM18.5355 17.6132L18.8891 17.2597L18.5355 17.6132ZM15 15.9223L15.3536 15.5688L15 15.2152L14.6464 15.5688L15 15.9223ZM14.0777 15L14.4312 15.3536L14.7848 15L14.4312 14.6465L14.0777 15ZM12.3868 11.4645L12.0332 11.818L12.3868 11.4645ZM17.2597 11.1109L14.6464 13.7242L15.3536 14.4313L17.9668 11.818L17.2597 11.1109ZM18.8891 11.1109C18.4391 10.661 17.7096 10.661 17.2597 11.1109L17.9668 11.818C18.0262 11.7586 18.1226 11.7586 18.182 11.818L18.8891 11.1109ZM18.8891 12.7404C19.339 12.2904 19.339 11.5609 18.8891 11.1109L18.182 11.818C18.2414 11.8775 18.2414 11.9738 18.182 12.0332L18.8891 12.7404ZM16.2759 15.3536L18.8891 12.7404L18.182 12.0332L15.5688 14.6465L16.2759 15.3536ZM18.8891 17.2597L16.2759 14.6465L15.5688 15.3536L18.182 17.9668L18.8891 17.2597ZM18.8891 18.8891C19.339 18.4392 19.339 17.7096 18.8891 17.2597L18.182 17.9668C18.2414 18.0262 18.2414 18.1226 18.182 18.182L18.8891 18.8891ZM17.2597 18.8891C17.7096 19.3391 18.4391 19.3391 18.8891 18.8891L18.182 18.182C18.1226 18.2414 18.0262 18.2414 17.9668 18.182L17.2597 18.8891ZM14.6464 16.2759L17.2597 18.8891L17.9668 18.182L15.3536 15.5688L14.6464 16.2759ZM12.7403 18.8891L15.3536 16.2759L14.6464 15.5688L12.0332 18.182L12.7403 18.8891ZM11.1109 18.8891C11.5609 19.3391 12.2904 19.3391 12.7403 18.8891L12.0332 18.182C11.9738 18.2414 11.8774 18.2414 11.818 18.182L11.1109 18.8891ZM11.1109 17.2597C10.661 17.7096 10.661 18.4392 11.1109 18.8891L11.818 18.182C11.7586 18.1226 11.7586 18.0262 11.818 17.9668L11.1109 17.2597ZM13.7241 14.6465L11.1109 17.2597L11.818 17.9668L14.4312 15.3536L13.7241 14.6465ZM11.1109 12.7404L13.7241 15.3536L14.4312 14.6465L11.818 12.0332L11.1109 12.7404ZM11.1109 11.1109C10.661 11.5609 10.661 12.2904 11.1109 12.7404L11.818 12.0332C11.7586 11.9738 11.7586 11.8775 11.818 11.818L11.1109 11.1109ZM12.7403 11.1109C12.2904 10.661 11.5609 10.661 11.1109 11.1109L11.818 11.818C11.8774 11.7586 11.9738 11.7586 12.0332 11.818L12.7403 11.1109ZM15.3536 13.7242L12.7403 11.1109L12.0332 11.818L14.6464 14.4313L15.3536 13.7242Z" fill="black"/>
</svg>
