<svg width="50" height="20" viewBox="0 0 50 20" fill="none" xmlns="http://www.w3.org/2000/svg">
<rect width="50" height="20" rx="10" fill="url(#paint0_linear)"/>
<path d="M16.016 13.208H19.976V14H15.152V5.504H16.016V13.208ZM22.016 6.224C22.016 6.392 21.956 6.532 21.836 6.644C21.716 6.748 21.584 6.8 21.44 6.8C21.296 6.8 21.164 6.748 21.044 6.644C20.924 6.532 20.864 6.392 20.864 6.224C20.864 6.056 20.924 5.92 21.044 5.816C21.164 5.704 21.296 5.648 21.44 5.648C21.584 5.648 21.716 5.704 21.836 5.816C21.956 5.92 22.016 6.056 22.016 6.224ZM21.836 14H21.044V8.384H21.836V14ZM26.2188 14H25.3308L23.0508 8.384H23.9988L25.7868 13.112H25.8108L27.5988 8.384H28.4988L26.2188 14ZM33.9039 10.76C33.9039 10.224 33.7439 9.792 33.4239 9.464C33.1039 9.128 32.6559 8.96 32.0799 8.96C31.8239 8.96 31.5759 9.012 31.3359 9.116C31.0959 9.212 30.8839 9.344 30.6999 9.512C30.5239 9.68 30.3799 9.872 30.2679 10.088C30.1639 10.304 30.1119 10.528 30.1119 10.76H33.9039ZM30.0879 11.408C30.1119 11.688 30.1799 11.952 30.2919 12.2C30.4039 12.448 30.5519 12.664 30.7359 12.848C30.9199 13.024 31.1319 13.164 31.3719 13.268C31.6119 13.372 31.8719 13.424 32.1519 13.424C32.5759 13.424 32.9399 13.328 33.2439 13.136C33.5559 12.936 33.7919 12.708 33.9519 12.452L34.5639 12.956C34.2279 13.38 33.8559 13.684 33.4479 13.868C33.0479 14.052 32.6159 14.144 32.1519 14.144C31.7359 14.144 31.3479 14.072 30.9879 13.928C30.6359 13.776 30.3319 13.568 30.0759 13.304C29.8199 13.04 29.6159 12.728 29.4639 12.368C29.3199 12.008 29.2479 11.616 29.2479 11.192C29.2479 10.768 29.3199 10.376 29.4639 10.016C29.6079 9.656 29.8079 9.344 30.0639 9.08C30.3199 8.816 30.6199 8.612 30.9639 8.468C31.3079 8.316 31.6799 8.24 32.0799 8.24C32.5039 8.24 32.8839 8.316 33.2199 8.468C33.5559 8.62 33.8359 8.824 34.0599 9.08C34.2919 9.328 34.4679 9.624 34.5879 9.968C34.7079 10.304 34.7679 10.664 34.7679 11.048V11.408H30.0879Z" fill="white"/>
<defs>
<linearGradient id="paint0_linear" x1="0" y1="0" x2="0" y2="20" gradientUnits="userSpaceOnUse">
<stop stop-color="#FF0394"/>
<stop offset="1" stop-color="#FF015B"/>
</linearGradient>
</defs>
</svg>
