<svg width="29" height="21" viewBox="0 0 29 21" fill="none" xmlns="http://www.w3.org/2000/svg">
<path fill-rule="evenodd" clip-rule="evenodd" d="M19.125 8.75C19.125 11.1659 17.1659 13.125 14.75 13.125C12.3341 13.125 10.375 11.1659 10.375 8.75V4.375C10.375 1.95913 12.3341 0 14.75 0C17.1659 0 19.125 1.95913 19.125 4.375V8.75ZM20.875 9.1875C20.875 8.463 21.463 7.875 22.1875 7.875C22.912 7.875 23.5 8.463 23.5 9.1875V9.625C23.5 13.8565 20.4917 17.3757 16.5 18.1877V19.25C16.5 20.2169 15.716 21 14.75 21C13.784 21 13 20.2169 13 19.25V18.1877C8.94263 17.3425 6 13.5852 6 9.32487V9.1875C6 8.463 6.588 7.875 7.3125 7.875C8.037 7.875 8.625 8.463 8.625 9.1875V9.625C8.625 13.0699 11.4696 15.8515 14.9381 15.7474C18.2902 15.6468 20.875 12.7216 20.875 9.36775V9.1875Z" fill="white"/>
<rect x="26.7405" y="3.20093" width="3" height="30" rx="1.5" transform="rotate(60 26.7405 3.20093)" fill="#FF0000"/>
</svg>
