<svg width="18" height="21" viewBox="0 0 18 21" fill="none" xmlns="http://www.w3.org/2000/svg">
<path fill-rule="evenodd" clip-rule="evenodd" d="M13.125 8.75C13.125 11.1659 11.1659 13.125 8.75 13.125C6.33413 13.125 4.375 11.1659 4.375 8.75V4.375C4.375 1.95913 6.33413 0 8.75 0C11.1659 0 13.125 1.95913 13.125 4.375V8.75ZM14.875 9.1875C14.875 8.463 15.463 7.875 16.1875 7.875C16.912 7.875 17.5 8.463 17.5 9.1875V9.625C17.5 13.8565 14.4917 17.3757 10.5 18.1877V19.25C10.5 20.2169 9.716 21 8.75 21C7.784 21 7 20.2169 7 19.25V18.1877C2.94263 17.3425 0 13.5852 0 9.32487V9.1875C0 8.463 0.588 7.875 1.3125 7.875C2.037 7.875 2.625 8.463 2.625 9.1875V9.625C2.625 13.0699 5.46962 15.8515 8.93812 15.7474C12.2902 15.6468 14.875 12.7216 14.875 9.36775V9.1875Z" fill="white"/>
</svg>
