<svg width="50" height="20" viewBox="0 0 50 20" fill="none" xmlns="http://www.w3.org/2000/svg">
<rect width="50" height="20" rx="10" fill="#EA0303"/>
<path d="M16.0609 9.26H17.5969C17.9809 9.26 18.3049 9.22 18.5689 9.14C18.8409 9.06 19.0569 8.956 19.2169 8.828C19.3769 8.692 19.4929 8.536 19.5649 8.36C19.6369 8.176 19.6729 7.98 19.6729 7.772C19.6729 7.572 19.6369 7.384 19.5649 7.208C19.4929 7.024 19.3769 6.864 19.2169 6.728C19.0569 6.592 18.8409 6.488 18.5689 6.416C18.3049 6.336 17.9809 6.296 17.5969 6.296H16.0609V9.26ZM16.0609 14H15.1969V5.504H17.8129C18.6769 5.504 19.3569 5.692 19.8529 6.068C20.3569 6.444 20.6089 7.012 20.6089 7.772C20.6089 8.364 20.4209 8.864 20.0449 9.272C19.6769 9.672 19.1409 9.904 18.4369 9.968L20.8849 14H19.8289L17.5009 10.052H16.0609V14ZM26.3902 10.76C26.3902 10.224 26.2302 9.792 25.9102 9.464C25.5902 9.128 25.1422 8.96 24.5662 8.96C24.3102 8.96 24.0622 9.012 23.8222 9.116C23.5822 9.212 23.3702 9.344 23.1862 9.512C23.0102 9.68 22.8662 9.872 22.7542 10.088C22.6502 10.304 22.5982 10.528 22.5982 10.76H26.3902ZM22.5742 11.408C22.5982 11.688 22.6662 11.952 22.7782 12.2C22.8902 12.448 23.0382 12.664 23.2222 12.848C23.4062 13.024 23.6182 13.164 23.8582 13.268C24.0982 13.372 24.3582 13.424 24.6382 13.424C25.0622 13.424 25.4262 13.328 25.7302 13.136C26.0422 12.936 26.2782 12.708 26.4382 12.452L27.0502 12.956C26.7142 13.38 26.3422 13.684 25.9342 13.868C25.5342 14.052 25.1022 14.144 24.6382 14.144C24.2222 14.144 23.8342 14.072 23.4742 13.928C23.1222 13.776 22.8182 13.568 22.5622 13.304C22.3062 13.04 22.1022 12.728 21.9502 12.368C21.8062 12.008 21.7342 11.616 21.7342 11.192C21.7342 10.768 21.8062 10.376 21.9502 10.016C22.0942 9.656 22.2942 9.344 22.5502 9.08C22.8062 8.816 23.1062 8.612 23.4502 8.468C23.7942 8.316 24.1662 8.24 24.5662 8.24C24.9902 8.24 25.3702 8.316 25.7062 8.468C26.0422 8.62 26.3222 8.824 26.5462 9.08C26.7782 9.328 26.9542 9.624 27.0742 9.968C27.1942 10.304 27.2542 10.664 27.2542 11.048V11.408H22.5742ZM32.7822 9.704C32.6462 9.496 32.4542 9.32 32.2062 9.176C31.9662 9.032 31.6902 8.96 31.3782 8.96C31.0502 8.952 30.7542 9.004 30.4902 9.116C30.2342 9.228 30.0142 9.384 29.8302 9.584C29.6462 9.784 29.5062 10.024 29.4102 10.304C29.3142 10.576 29.2662 10.872 29.2662 11.192C29.2662 11.512 29.3142 11.812 29.4102 12.092C29.5062 12.364 29.6462 12.6 29.8302 12.8C30.0142 13 30.2342 13.156 30.4902 13.268C30.7542 13.38 31.0502 13.432 31.3782 13.424C31.6902 13.424 31.9662 13.352 32.2062 13.208C32.4542 13.064 32.6462 12.888 32.7822 12.68L33.4302 13.172C33.1502 13.5 32.8342 13.744 32.4822 13.904C32.1302 14.056 31.7622 14.136 31.3782 14.144C30.9222 14.152 30.5102 14.084 30.1422 13.94C29.7742 13.788 29.4582 13.58 29.1942 13.316C28.9382 13.052 28.7422 12.74 28.6062 12.38C28.4702 12.012 28.4022 11.616 28.4022 11.192C28.4022 10.768 28.4702 10.376 28.6062 10.016C28.7422 9.648 28.9382 9.332 29.1942 9.068C29.4582 8.804 29.7742 8.6 30.1422 8.456C30.5102 8.304 30.9222 8.232 31.3782 8.24C31.7622 8.248 32.1302 8.332 32.4822 8.492C32.8342 8.644 33.1502 8.884 33.4302 9.212L32.7822 9.704ZM35.9312 13.424C35.9312 13.592 35.8712 13.744 35.7512 13.88C35.6312 14.008 35.4752 14.072 35.2832 14.072C35.0912 14.072 34.9352 14.008 34.8152 13.88C34.6952 13.744 34.6352 13.592 34.6352 13.424C34.6352 13.256 34.6952 13.108 34.8152 12.98C34.9352 12.844 35.0912 12.776 35.2832 12.776C35.4752 12.776 35.6312 12.844 35.7512 12.98C35.8712 13.108 35.9312 13.256 35.9312 13.424Z" fill="white"/>
</svg>
