<svg width="30" height="29" viewBox="0 0 30 29" fill="none" xmlns="http://www.w3.org/2000/svg">
<path fill-rule="evenodd" clip-rule="evenodd" d="M26.4844 11.5615V2.63672C26.4844 2.15092 26.0913 1.75781 25.6055 1.75781H20.6374L19.6521 0.7725C19.1542 0.274629 18.4916 0 17.7878 0H12.2122C11.5084 0 10.8458 0.274687 10.348 0.7725L9.36264 1.75781H7.03125V0.878906C7.03125 0.393105 6.63814 0 6.15234 0C5.66654 0 5.27344 0.393105 5.27344 0.878906V1.75781H4.39453C3.90873 1.75781 3.51562 2.15092 3.51562 2.63672V11.5615C1.25238 12.9733 0 14.7799 0 16.6992C0 20.2798 4.26762 23.2656 10.6055 24.2646V27.2461C10.6055 27.5705 10.784 27.8684 11.0698 28.0212C11.3517 28.1723 11.6994 28.1592 11.9719 27.9774L17.2454 24.4618C17.49 24.2987 17.6368 24.024 17.6368 23.7305C17.6368 23.437 17.49 23.1623 17.2454 22.9993L11.9719 19.4837C11.7016 19.3042 11.3539 19.2871 11.0698 19.4399C10.784 19.5926 10.6055 19.8904 10.6055 20.2148V22.466C5.46668 21.5855 1.75781 19.2473 1.75781 16.6992C1.75781 15.6601 2.37217 14.6235 3.51562 13.6966V16.6992C3.51562 17.185 3.90873 17.5781 4.39453 17.5781H25.6055C26.0913 17.5781 26.4844 17.185 26.4844 16.6992V13.6966C27.6278 14.6235 28.2422 15.6601 28.2422 16.6992C28.2422 19.1051 24.9349 21.3787 20.0992 22.358C19.6228 22.455 19.3155 22.9185 19.4117 23.394C19.5096 23.8746 19.9795 24.178 20.4477 24.0815C26.2146 22.9134 30 20.0157 30 16.6992C30 14.7799 28.7476 12.9733 26.4844 11.5615ZM15 14.0625C12.577 14.0625 10.6055 12.091 10.6055 9.66797C10.6055 7.24494 12.577 5.27344 15 5.27344C17.423 5.27344 19.3945 7.24494 19.3945 9.66797C19.3945 12.091 17.423 14.0625 15 14.0625ZM21.1523 6.15234C21.1523 6.63773 21.5459 7.03125 22.0312 7.03125C22.5166 7.03125 22.9102 6.63773 22.9102 6.15234C22.9102 5.66695 22.5166 5.27344 22.0312 5.27344C21.5459 5.27344 21.1523 5.66695 21.1523 6.15234Z" fill="white"/>
<circle cx="15" cy="9.66797" r="2.63672" fill="white"/>
</svg>
