<svg width="21" height="21" viewBox="0 0 21 21" fill="none" xmlns="http://www.w3.org/2000/svg">
<path fill-rule="evenodd" clip-rule="evenodd" d="M15.96 4.28484V5.96484C17.8769 6.35376 19.32 8.04804 19.32 10.08C19.32 12.112 17.8769 13.8062 15.96 14.1952V15.8752C18.8059 15.4644 21 13.0393 21 10.08C21 7.12068 18.8059 4.6956 15.96 4.28484ZM0 6.72V13.44C0 14.3674 0.75264 15.12 1.68 15.12H4.2V5.04H1.68C0.75264 5.04 0 5.79264 0 6.72ZM11.76 0L5.88 3.92028V16.2397L11.76 20.16C12.6874 20.16 13.44 19.4074 13.44 18.48V1.68C13.44 0.75264 12.6874 0 11.76 0Z" fill="white"/>
</svg>
