<svg width="29" height="21" viewBox="0 0 29 21" fill="none" xmlns="http://www.w3.org/2000/svg">
<path fill-rule="evenodd" clip-rule="evenodd" d="M19.96 4.28484V5.96484C21.8769 6.35376 23.32 8.04804 23.32 10.08C23.32 12.112 21.8769 13.8062 19.96 14.1952V15.8752C22.8059 15.4644 25 13.0393 25 10.08C25 7.12068 22.8059 4.6956 19.96 4.28484ZM4 6.72V13.44C4 14.3674 4.75264 15.12 5.68 15.12H8.2V5.04H5.68C4.75264 5.04 4 5.79264 4 6.72ZM15.76 0L9.88 3.92028V16.2397L15.76 20.16C16.6874 20.16 17.44 19.4074 17.44 18.48V1.68C17.44 0.75264 16.6874 0 15.76 0Z" fill="white"/>
<rect x="26.7405" y="3.20093" width="3" height="30" rx="1.5" transform="rotate(60 26.7405 3.20093)" fill="#FF0000"/>
</svg>
