<svg width="273" height="42" viewBox="0 0 273 42" fill="none" xmlns="http://www.w3.org/2000/svg">
<mask id="mask0" mask-type="alpha" maskUnits="userSpaceOnUse" x="0" y="0" width="98" height="42">
<path fill-rule="evenodd" clip-rule="evenodd" d="M0 0.181702H97.2734V41.3641H0V0.181702Z" fill="white"/>
</mask>
<g mask="url(#mask0)">
<path fill-rule="evenodd" clip-rule="evenodd" d="M2.20175 38.5522H12.3315C15.0835 38.5522 17.4509 37.7036 19.4329 36.0039C21.4149 34.3067 22.4054 32.0906 22.4054 29.3589C22.4054 26.6272 21.3954 24.3925 19.3771 22.6565C17.4323 21.0337 15.0835 20.2206 12.3315 20.2206H2.20175V38.5522ZM2.20175 18.0188H10.1027C12.2377 18.0188 14.0058 17.3554 15.4063 16.0292C16.806 14.7031 17.5058 12.9713 17.5058 10.8346C17.5058 8.66077 16.7688 6.9205 15.2956 5.61298C13.8224 4.30545 11.9816 3.65042 9.77137 3.65042H2.20175V18.0188ZM19.7076 10.8625C19.7076 14.3126 18.2944 16.8449 15.4697 18.4592C18.2572 19.0094 20.4784 20.2578 22.1299 22.2017C23.7814 24.1474 24.6072 26.5326 24.6072 29.3589C24.6072 32.7355 23.4045 35.479 21.0016 37.5886C18.5978 39.6991 15.6886 40.7539 12.2757 40.7539H0V1.44867H9.57867C12.6239 1.44867 15.0463 2.23809 16.8449 3.81608C18.7525 5.50395 19.7076 7.85276 19.7076 10.8625Z" fill="white"/>
<path fill-rule="evenodd" clip-rule="evenodd" d="M43.9877 5.97302L35.8856 26.7717H51.9993L43.9877 5.97302ZM43.9843 0.181702L59.7287 40.7539L57.4314 40.77L52.9121 28.9735H35.0344L30.4813 40.7488L28.2957 40.7539L43.9843 0.181702Z" fill="white"/>
<path fill-rule="evenodd" clip-rule="evenodd" d="M95.0708 1.44864H97.2734V41.4148L67.8756 7.39379V40.7539H65.6747V1.14099L95.0708 35.6666V1.44864Z" fill="white"/>
</g>
<path fill-rule="evenodd" clip-rule="evenodd" d="M107.183 38.5522H118.106C122.15 38.5522 125.663 37.0452 128.642 34.0312C131.842 30.7594 133.442 26.4413 133.442 21.0742C133.442 16.2955 132.099 12.252 129.415 8.94391C126.545 5.4152 122.776 3.65042 118.106 3.65042H107.183V38.5522ZM135.644 21.0464C135.644 26.4785 134.102 31.0654 131.019 34.8088C127.717 38.7728 123.404 40.7539 118.083 40.7539H104.981V1.44867H118.083C123.367 1.44867 127.662 3.43067 130.965 7.39382C134.083 11.1372 135.644 15.6886 135.644 21.0464Z" fill="white"/>
<path fill-rule="evenodd" clip-rule="evenodd" d="M211.662 40.7539H213.864V1.44867H211.662V40.7539Z" fill="white"/>
<path fill-rule="evenodd" clip-rule="evenodd" d="M240.013 1.44867V3.65042H231.37V40.7539H229.167V3.65042H220.525V1.44867H240.013Z" fill="white"/>
<path fill-rule="evenodd" clip-rule="evenodd" d="M248.656 18.0188H270.345V1.44867H272.548V40.7539H270.345V20.2206H248.656V40.7539H246.454V1.44867H248.656V18.0188Z" fill="white"/>
<mask id="mask1" mask-type="alpha" maskUnits="userSpaceOnUse" x="135" y="0" width="74" height="42">
<path fill-rule="evenodd" clip-rule="evenodd" d="M184.408 34.6651C183.951 35.8196 183.519 37.0578 182.678 37.996C182.56 38.1262 182.317 38.4237 182.11 38.4237C181.852 38.4237 181.598 38.0695 181.46 37.8946C181.145 37.4999 180.854 37.0705 180.672 36.6014C180.204 35.3903 179.915 34.2797 179.605 33.0981C179.18 31.4761 178.75 29.8559 178.315 28.2373C177.754 26.1446 177.185 24.0544 176.607 21.9659C175.995 19.7557 175.372 17.5481 174.729 15.3463C174.23 13.6373 173.716 11.9325 173.177 10.2354C173.406 9.49499 173.633 8.75375 173.861 8.01335C174.143 7.09631 174.395 6.15391 174.832 5.29518C175.111 4.74834 175.465 3.8837 176.077 3.64535C176.462 3.49575 176.759 3.87693 176.979 4.14233C177.507 4.78045 177.869 5.56311 178.19 6.31957C178.697 7.51384 179.101 8.75206 179.502 9.98436C180.126 11.9047 180.706 13.8393 181.271 15.7765C181.915 17.9749 182.537 20.18 183.15 22.3868C183.735 24.4948 184.31 26.6061 184.878 28.7191C185.126 29.642 185.37 30.5667 185.615 31.4914C185.482 31.8463 185.355 32.2047 185.221 32.5597C184.955 33.2637 184.686 33.9653 184.408 34.6651ZM168.918 15.2145C167.813 18.7981 166.706 22.3818 165.596 25.9637C164.639 29.0479 163.682 32.132 162.709 35.2119C162.454 36.0166 162.165 36.8313 161.735 37.5616C161.575 37.8346 161.301 38.3823 160.909 38.2335C160.372 38.0298 160.002 37.1626 159.757 36.6978C159.499 36.2067 159.243 35.6971 159.053 35.1739C159.053 35.1739 158.489 33.5621 157.609 31.0485C158.602 27.8629 159.59 24.6748 160.576 21.4867C161.608 18.1456 162.638 14.8045 163.666 11.4626C164.02 10.3131 164.373 9.16367 164.726 8.01335C165.008 7.09631 165.26 6.15391 165.698 5.29518C165.977 4.74834 166.331 3.8837 166.942 3.64535C167.327 3.49575 167.625 3.87693 167.845 4.14233C168.373 4.78045 168.734 5.56311 169.055 6.31957C169.562 7.51384 169.967 8.75206 170.367 9.98436C170.394 10.0706 170.42 10.1568 170.448 10.243C169.938 11.8996 169.428 13.557 168.918 15.2145ZM205.209 1.81295C205.202 1.81295 205.172 1.92198 205.169 1.92875C204.917 2.66576 204.665 3.40362 204.412 4.13979C203.907 5.61044 203.401 7.08109 202.893 8.55005C202.222 10.4949 201.548 12.4371 200.87 14.3794C200.118 16.5364 199.363 18.6916 198.6 20.8452C197.856 22.9548 197.104 25.0627 196.343 27.1656C195.692 28.9684 195.034 30.7679 194.356 32.5597C194.089 33.2637 193.82 33.9653 193.543 34.6651C193.086 35.8196 192.653 37.0578 191.812 37.996C191.694 38.1262 191.451 38.4237 191.244 38.4237C190.987 38.4237 190.733 38.0695 190.594 37.8946C190.28 37.4999 189.989 37.0705 189.807 36.6014C189.338 35.3903 189.05 34.2797 188.739 33.0981C188.612 32.6096 188.481 32.1227 188.351 31.6333C192.253 21.119 198.801 2.00481 198.878 1.78506L196.074 1.81295C196.067 1.81295 196.037 1.92198 196.034 1.92875C195.782 2.66576 195.531 3.40362 195.278 4.13979C194.772 5.61044 194.266 7.08109 193.759 8.55005C193.087 10.4949 192.413 12.4371 191.736 14.3794C190.983 16.5364 190.228 18.6916 189.466 20.8452C188.721 22.9548 187.969 25.0627 187.209 27.1656C187.199 27.1927 187.189 27.2189 187.18 27.2451C186.705 25.4837 186.229 23.7239 185.742 21.9659C185.129 19.7557 184.507 17.5481 183.864 15.3463C183.287 13.3702 182.696 11.3975 182.064 9.43836C181.615 8.048 181.161 6.64919 180.59 5.30279C180.131 4.21924 178.754 0.932253 176.211 0.988882C173.697 1.0565 172.482 3.83552 171.745 6.06178C171.647 5.80906 171.561 5.55128 171.455 5.30279C170.996 4.21924 169.619 0.932253 167.077 0.988882C164.114 1.06918 162.952 4.91653 162.255 7.18336C161.433 9.86011 160.608 12.5377 159.784 15.2145C158.678 18.7981 157.571 22.3818 156.461 25.9637C156.362 26.2815 156.262 26.5993 156.163 26.918C152.702 17.0359 147.367 1.80281 147.367 1.80281L144.583 1.78506L154.859 31.0933C154.432 32.4659 154.007 33.8402 153.574 35.2119C153.32 36.0166 153.03 36.8313 152.601 37.5616C152.44 37.8346 152.166 38.3823 151.775 38.2335C151.237 38.0298 150.868 37.1626 150.622 36.6978C150.364 36.2067 150.109 35.6971 149.919 35.1739L138.233 1.80281L135.448 1.78506L147.461 36.0444C147.877 37.199 149.42 40.9415 151.954 40.9415C151.97 40.9415 151.987 40.9415 152.003 40.9415C154.253 40.8967 155.396 38.0991 156.06 35.998C156.142 35.7376 156.224 35.4765 156.306 35.2162L156.596 36.0444C157.011 37.199 158.555 40.9415 161.089 40.9415C161.104 40.9415 161.122 40.9415 161.138 40.9415C163.388 40.8967 164.531 38.0991 165.195 35.998C165.609 34.6879 166.019 33.377 166.429 32.0661C167.528 28.5416 168.62 25.0137 169.71 21.4867C170.411 19.2173 171.11 16.9463 171.81 14.6761C171.918 15.0437 172.03 15.4097 172.138 15.7765C172.781 17.9749 173.403 20.18 174.015 22.3868C174.601 24.4948 175.176 26.6061 175.743 28.7191C176.187 30.3706 176.626 32.0238 177.062 33.6779C177.333 34.709 177.543 35.7917 177.924 36.7899C178.593 38.5412 179.871 40.9508 182.015 41.0294C182.049 41.0303 182.082 41.0311 182.115 41.0311C184.635 41.0311 186.063 37.5244 186.537 36.3622C186.604 36.1991 186.676 36.0149 186.748 35.834C186.841 36.1577 186.94 36.4789 187.058 36.7899C187.727 38.5412 189.006 40.9508 191.15 41.0294C191.184 41.0303 191.217 41.0311 191.25 41.0311C193.77 41.0311 195.198 37.5244 195.672 36.3622C198.783 28.7174 207.923 2.04454 208.012 1.78506L205.209 1.81295Z" fill="white"/>
</mask>
<g mask="url(#mask1)">
<path fill-rule="evenodd" clip-rule="evenodd" d="M184.408 34.6651C183.951 35.8196 183.519 37.0578 182.678 37.996C182.56 38.1262 182.317 38.4237 182.11 38.4237C181.852 38.4237 181.598 38.0695 181.46 37.8946C181.145 37.4999 180.854 37.0705 180.672 36.6014C180.204 35.3903 179.915 34.2797 179.605 33.0981C179.18 31.4761 178.75 29.8559 178.315 28.2373C177.754 26.1446 177.185 24.0544 176.607 21.9659C175.995 19.7557 175.372 17.5481 174.729 15.3463C174.23 13.6373 173.716 11.9325 173.177 10.2354C173.406 9.49499 173.633 8.75375 173.861 8.01335C174.143 7.09631 174.395 6.15391 174.832 5.29518C175.111 4.74834 175.465 3.8837 176.077 3.64535C176.462 3.49575 176.759 3.87693 176.979 4.14233C177.507 4.78045 177.869 5.56311 178.19 6.31957C178.697 7.51384 179.101 8.75206 179.502 9.98436C180.126 11.9047 180.706 13.8393 181.271 15.7765C181.915 17.9749 182.537 20.18 183.15 22.3868C183.735 24.4948 184.31 26.6061 184.878 28.7191C185.126 29.642 185.37 30.5667 185.615 31.4914C185.482 31.8463 185.355 32.2047 185.221 32.5597C184.955 33.2637 184.686 33.9653 184.408 34.6651ZM168.918 15.2145C167.813 18.7981 166.706 22.3818 165.596 25.9637C164.639 29.0479 163.682 32.132 162.709 35.2119C162.454 36.0166 162.165 36.8313 161.735 37.5616C161.575 37.8346 161.301 38.3823 160.909 38.2335C160.372 38.0298 160.002 37.1626 159.757 36.6978C159.499 36.2067 159.243 35.6971 159.053 35.1739C159.053 35.1739 158.489 33.5621 157.609 31.0485C158.602 27.8629 159.59 24.6748 160.576 21.4867C161.608 18.1456 162.638 14.8045 163.666 11.4626C164.02 10.3131 164.373 9.16367 164.726 8.01335C165.008 7.09631 165.26 6.15391 165.698 5.29518C165.977 4.74834 166.331 3.8837 166.942 3.64535C167.327 3.49575 167.625 3.87693 167.845 4.14233C168.373 4.78045 168.734 5.56311 169.055 6.31957C169.562 7.51384 169.967 8.75206 170.367 9.98436C170.394 10.0706 170.42 10.1568 170.448 10.243C169.938 11.8996 169.428 13.557 168.918 15.2145ZM205.209 1.81295C205.202 1.81295 205.172 1.92198 205.169 1.92875C204.917 2.66576 204.665 3.40362 204.412 4.13979C203.907 5.61044 203.401 7.08109 202.893 8.55005C202.222 10.4949 201.548 12.4371 200.87 14.3794C200.118 16.5364 199.363 18.6916 198.6 20.8452C197.856 22.9548 197.104 25.0627 196.343 27.1656C195.692 28.9684 195.034 30.7679 194.356 32.5597C194.089 33.2637 193.82 33.9653 193.543 34.6651C193.086 35.8196 192.653 37.0578 191.812 37.996C191.694 38.1262 191.451 38.4237 191.244 38.4237C190.987 38.4237 190.733 38.0695 190.594 37.8946C190.28 37.4999 189.989 37.0705 189.807 36.6014C189.338 35.3903 189.05 34.2797 188.739 33.0981C188.612 32.6096 188.481 32.1227 188.351 31.6333C192.253 21.119 198.801 2.00481 198.878 1.78506L196.074 1.81295C196.067 1.81295 196.037 1.92198 196.034 1.92875C195.782 2.66576 195.531 3.40362 195.278 4.13979C194.772 5.61044 194.266 7.08109 193.759 8.55005C193.087 10.4949 192.413 12.4371 191.736 14.3794C190.983 16.5364 190.228 18.6916 189.466 20.8452C188.721 22.9548 187.969 25.0627 187.209 27.1656C187.199 27.1927 187.189 27.2189 187.18 27.2451C186.705 25.4837 186.229 23.7239 185.742 21.9659C185.129 19.7557 184.507 17.5481 183.864 15.3463C183.287 13.3702 182.696 11.3975 182.064 9.43836C181.615 8.048 181.161 6.64919 180.59 5.30279C180.131 4.21924 178.754 0.932253 176.211 0.988882C173.697 1.0565 172.482 3.83552 171.745 6.06178C171.647 5.80906 171.561 5.55128 171.455 5.30279C170.996 4.21924 169.619 0.932253 167.077 0.988882C164.114 1.06918 162.952 4.91653 162.255 7.18336C161.433 9.86011 160.608 12.5377 159.784 15.2145C158.678 18.7981 157.571 22.3818 156.461 25.9637C156.362 26.2815 156.262 26.5993 156.163 26.918C152.702 17.0359 147.367 1.80281 147.367 1.80281L144.583 1.78506L154.859 31.0933C154.432 32.4659 154.007 33.8402 153.574 35.2119C153.32 36.0166 153.03 36.8313 152.601 37.5616C152.44 37.8346 152.166 38.3823 151.775 38.2335C151.237 38.0298 150.868 37.1626 150.622 36.6978C150.364 36.2067 150.109 35.6971 149.919 35.1739L138.233 1.80281L135.448 1.78506L147.461 36.0444C147.877 37.199 149.42 40.9415 151.954 40.9415C151.97 40.9415 151.987 40.9415 152.003 40.9415C154.253 40.8967 155.396 38.0991 156.06 35.998C156.142 35.7376 156.224 35.4765 156.306 35.2162L156.596 36.0444C157.011 37.199 158.555 40.9415 161.089 40.9415C161.104 40.9415 161.122 40.9415 161.138 40.9415C163.388 40.8967 164.531 38.0991 165.195 35.998C165.609 34.6879 166.019 33.377 166.429 32.0661C167.528 28.5416 168.62 25.0137 169.71 21.4867C170.411 19.2173 171.11 16.9463 171.81 14.6761C171.918 15.0437 172.03 15.4097 172.138 15.7765C172.781 17.9749 173.403 20.18 174.015 22.3868C174.601 24.4948 175.176 26.6061 175.743 28.7191C176.187 30.3706 176.626 32.0238 177.062 33.6779C177.333 34.709 177.543 35.7917 177.924 36.7899C178.593 38.5412 179.871 40.9508 182.015 41.0294C182.049 41.0303 182.082 41.0311 182.115 41.0311C184.635 41.0311 186.063 37.5244 186.537 36.3622C186.604 36.1991 186.676 36.0149 186.748 35.834C186.841 36.1577 186.94 36.4789 187.058 36.7899C187.727 38.5412 189.006 40.9508 191.15 41.0294C191.184 41.0303 191.217 41.0311 191.25 41.0311C193.77 41.0311 195.198 37.5244 195.672 36.3622C198.783 28.7174 207.923 2.04454 208.012 1.78506L205.209 1.81295Z" fill="white"/>
</g>
</svg>
