<svg width="54" height="54" viewBox="0 0 54 54" fill="none" xmlns="http://www.w3.org/2000/svg">
<circle cx="27" cy="27" r="27" fill="white"/>
<path fill-rule="evenodd" clip-rule="evenodd" d="M27.0465 18.8097C22.5484 18.8097 18.9027 22.4554 18.9027 26.9535C18.9027 28.5153 19.3415 29.9722 20.1025 31.2109L20.3477 31.61L18.8158 35.1842L22.39 33.6523L22.79 33.8975C24.0278 34.6585 25.4847 35.0973 27.0465 35.0973C31.5446 35.0973 35.1903 31.4516 35.1903 26.9535C35.1903 22.4554 31.5446 18.8097 27.0465 18.8097ZM17.0929 26.9535C17.0929 21.4565 21.5494 17 27.0465 17C32.5435 17 37 21.4565 37 26.9535C37 32.4506 32.5435 36.9071 27.0465 36.9071C25.3109 36.9071 23.6767 36.4619 22.2543 35.6801L19.5288 36.8483C18.0267 37.4916 16.5084 35.9733 17.1517 34.4712L18.3199 31.7457C17.5381 30.3233 17.0929 28.6891 17.0929 26.9535ZM22.5221 25.1438C22.5221 24.6443 22.9275 24.2389 23.427 24.2389H26.1416C26.6411 24.2389 27.0465 24.6443 27.0465 25.1438C27.0465 25.6433 26.6411 26.0487 26.1416 26.0487H23.427C22.9275 26.0487 22.5221 25.6433 22.5221 25.1438ZM22.5221 28.7633C22.5221 28.2638 22.9275 27.8584 23.427 27.8584H30.6659C31.1654 27.8584 31.5708 28.2638 31.5708 28.7633C31.5708 29.2628 31.1654 29.6681 30.6659 29.6681H23.427C22.9275 29.6681 22.5221 29.2628 22.5221 28.7633Z" fill="#0C1319"/>
<path d="M20.1025 31.2109L19.6765 31.4727L19.6765 31.4727L20.1025 31.2109ZM20.3477 31.61L20.8073 31.807L20.9093 31.5689L20.7737 31.3482L20.3477 31.61ZM18.8158 35.1842L18.3562 34.9872L17.8637 36.1363L19.0128 35.6438L18.8158 35.1842ZM22.39 33.6523L22.6514 33.226L22.4308 33.0908L22.193 33.1927L22.39 33.6523ZM22.79 33.8975L23.0518 33.4715L23.0513 33.4712L22.79 33.8975ZM22.2543 35.6801L22.4951 35.2419L22.2814 35.1245L22.0573 35.2205L22.2543 35.6801ZM19.5288 36.8483L19.7257 37.3079L19.7258 37.3078L19.5288 36.8483ZM17.1517 34.4712L16.6922 34.2742L16.6921 34.2743L17.1517 34.4712ZM18.3199 31.7457L18.7795 31.9427L18.8755 31.7186L18.7581 31.5049L18.3199 31.7457ZM27.0465 18.3097C22.2722 18.3097 18.4027 22.1793 18.4027 26.9535H19.4027C19.4027 22.7316 22.8245 19.3097 27.0465 19.3097V18.3097ZM18.4027 26.9535C18.4027 28.6104 18.8685 30.1574 19.6765 31.4727L20.5285 30.9492C19.8145 29.7869 19.4027 28.4203 19.4027 26.9535H18.4027ZM19.6765 31.4727L19.9217 31.8718L20.7737 31.3482L20.5285 30.9492L19.6765 31.4727ZM19.8882 31.413L18.3562 34.9872L19.2754 35.3812L20.8073 31.807L19.8882 31.413ZM19.0128 35.6438L22.587 34.1118L22.193 33.1927L18.6188 34.7246L19.0128 35.6438ZM22.1287 34.0785L22.5286 34.3238L23.0513 33.4712L22.6514 33.226L22.1287 34.0785ZM22.5281 34.3234C23.8425 35.1315 25.3896 35.5973 27.0465 35.5973V34.5973C25.5797 34.5973 24.2131 34.1855 23.0518 33.4715L22.5281 34.3234ZM27.0465 35.5973C31.8207 35.5973 35.6903 31.7278 35.6903 26.9535H34.6903C34.6903 31.1755 31.2684 34.5973 27.0465 34.5973V35.5973ZM35.6903 26.9535C35.6903 22.1793 31.8207 18.3097 27.0465 18.3097V19.3097C31.2684 19.3097 34.6903 22.7316 34.6903 26.9535H35.6903ZM17.5929 26.9535C17.5929 21.7326 21.8255 17.5 27.0465 17.5V16.5C21.2732 16.5 16.5929 21.1803 16.5929 26.9535H17.5929ZM27.0465 17.5C32.2674 17.5 36.5 21.7326 36.5 26.9535H37.5C37.5 21.1803 32.8197 16.5 27.0465 16.5V17.5ZM36.5 26.9535C36.5 32.1745 32.2674 36.4071 27.0465 36.4071V37.4071C32.8197 37.4071 37.5 32.7268 37.5 26.9535H36.5ZM27.0465 36.4071C25.3974 36.4071 23.8458 35.9842 22.4951 35.2419L22.0135 36.1183C23.5077 36.9395 25.2245 37.4071 27.0465 37.4071V36.4071ZM22.0573 35.2205L19.3318 36.3887L19.7258 37.3078L22.4513 36.1396L22.0573 35.2205ZM19.332 36.3886C18.2447 36.8543 17.1457 35.7553 17.6114 34.668L16.6921 34.2743C15.8711 36.1912 17.8088 38.1289 19.7257 37.3079L19.332 36.3886ZM17.6113 34.6682L18.7795 31.9427L17.8604 31.5487L16.6922 34.2742L17.6113 34.6682ZM18.7581 31.5049C18.0158 30.1542 17.5929 28.6026 17.5929 26.9535H16.5929C16.5929 28.7755 17.0605 30.4923 17.8817 31.9865L18.7581 31.5049ZM23.0221 25.1438C23.0221 24.9205 23.2036 24.7389 23.427 24.7389V23.7389C22.6514 23.7389 22.0221 24.3682 22.0221 25.1438H23.0221ZM23.427 24.7389H26.1416V23.7389H23.427V24.7389ZM26.1416 24.7389C26.3649 24.7389 26.5465 24.9205 26.5465 25.1438H27.5465C27.5465 24.3682 26.9172 23.7389 26.1416 23.7389V24.7389ZM26.5465 25.1438C26.5465 25.3672 26.3649 25.5487 26.1416 25.5487V26.5487C26.9172 26.5487 27.5465 25.9194 27.5465 25.1438H26.5465ZM26.1416 25.5487H23.427V26.5487H26.1416V25.5487ZM23.427 25.5487C23.2036 25.5487 23.0221 25.3672 23.0221 25.1438H22.0221C22.0221 25.9194 22.6514 26.5487 23.427 26.5487V25.5487ZM23.0221 28.7633C23.0221 28.5399 23.2036 28.3584 23.427 28.3584V27.3584C22.6514 27.3584 22.0221 27.9876 22.0221 28.7633H23.0221ZM23.427 28.3584H30.6659V27.3584H23.427V28.3584ZM30.6659 28.3584C30.8893 28.3584 31.0708 28.5399 31.0708 28.7633H32.0708C32.0708 27.9876 31.4416 27.3584 30.6659 27.3584V28.3584ZM31.0708 28.7633C31.0708 28.9866 30.8893 29.1681 30.6659 29.1681V30.1681C31.4416 30.1681 32.0708 29.5389 32.0708 28.7633H31.0708ZM30.6659 29.1681H23.427V30.1681H30.6659V29.1681ZM23.427 29.1681C23.2036 29.1681 23.0221 28.9866 23.0221 28.7633H22.0221C22.0221 29.5389 22.6514 30.1681 23.427 30.1681V29.1681Z" fill="#0B131A"/>
</svg>
