<svg width="315" height="50" viewBox="0 0 315 50" fill="none" xmlns="http://www.w3.org/2000/svg">
<path d="M1 4C1 2.34315 2.34315 1 4 1H311C312.657 1 314 2.34315 314 4V46C314 47.6569 312.657 49 311 49H4C2.34315 49 1 47.6569 1 46V4Z" fill="#E83F3F" stroke="#E83F3F" stroke-width="2"/>
<path d="M18.5405 28.1078L17.6703 31.3564L14.4897 31.4237C13.5392 29.6607 13 27.6435 13 25.5C13 23.4272 13.5041 21.4725 14.3977 19.7513H14.3983L17.23 20.2705L18.4704 23.0851C18.2108 23.842 18.0693 24.6545 18.0693 25.5C18.0694 26.4176 18.2356 27.2967 18.5405 28.1078Z" fill="#FBBB00"/>
<path d="M37.7816 23.1649C37.9252 23.921 38 24.7019 38 25.5C38 26.3949 37.9059 27.2679 37.7267 28.1099C37.1182 30.9753 35.5282 33.4774 33.3256 35.248L33.3249 35.2473L29.7583 35.0653L29.2535 31.9142C30.715 31.057 31.8572 29.7157 32.4589 28.1099H25.7748V23.1649H32.5564H37.7816Z" fill="#518EF8"/>
<path d="M33.3248 35.2473L33.3255 35.2479C31.1834 36.9698 28.4622 38 25.5 38C20.7397 38 16.601 35.3393 14.4897 31.4238L18.5405 28.1078C19.5961 30.9251 22.3139 32.9307 25.5 32.9307C26.8695 32.9307 28.1525 32.5604 29.2534 31.9141L33.3248 35.2473Z" fill="#28B446"/>
<path d="M33.4787 15.8777L29.4292 19.193C28.2898 18.4808 26.943 18.0693 25.5 18.0693C22.2417 18.0693 19.4732 20.1668 18.4704 23.0852L14.3983 19.7514H14.3976C16.478 15.7404 20.6689 13 25.5 13C28.5329 13 31.3139 14.0804 33.4787 15.8777Z" fill="#C32115"/>
<path d="M80.8408 32.2109C83.6445 32.2109 85.7451 30.5146 86.1406 27.9922L86.1494 27.9043H84.1982L84.1719 27.9834C83.6973 29.5918 82.5283 30.4707 80.8408 30.4707C78.4941 30.4707 76.9736 28.5898 76.9736 25.6543V25.6455C76.9736 22.71 78.4854 20.8467 80.8408 20.8467C82.5459 20.8467 83.7236 21.752 84.1455 23.2373L84.1982 23.4131H86.1494L86.1318 23.334C85.7363 20.8291 83.6357 19.1064 80.8408 19.1064C77.2461 19.1064 74.9609 21.6201 74.9609 25.6455V25.6543C74.9609 29.6797 77.2461 32.2109 80.8408 32.2109ZM91.6777 32.1846C94.3232 32.1846 96.0635 30.3564 96.0635 27.377V27.3594C96.0635 24.3975 94.3057 22.5781 91.6689 22.5781C89.041 22.5781 87.292 24.4062 87.292 27.3594V27.377C87.292 30.3477 89.0234 32.1846 91.6777 32.1846ZM91.6865 30.5938C90.2012 30.5938 89.2344 29.4248 89.2344 27.377V27.3594C89.2344 25.3379 90.21 24.1689 91.6689 24.1689C93.1543 24.1689 94.1211 25.3379 94.1211 27.3594V27.377C94.1211 29.416 93.1719 30.5938 91.6865 30.5938ZM97.5312 32H99.4297V26.6123C99.4297 25.1709 100.291 24.2041 101.627 24.2041C102.945 24.2041 103.596 24.9863 103.596 26.375V32H105.503V26.0146C105.503 23.8877 104.334 22.5781 102.304 22.5781C100.906 22.5781 99.957 23.2109 99.4736 24.1514H99.4297V22.7539H97.5312V32ZM110.583 32.1846C110.97 32.1846 111.33 32.1406 111.55 32.1055V30.6377C111.409 30.6553 111.242 30.6729 111.04 30.6729C110.24 30.6729 109.818 30.3916 109.818 29.4512V24.2656H111.55V22.7539H109.818V20.3457H107.876V22.7539H106.549V24.2656H107.876V29.5654C107.876 31.4111 108.755 32.1846 110.583 32.1846ZM114.151 21.3301C114.775 21.3301 115.259 20.8379 115.259 20.2402C115.259 19.6338 114.775 19.1416 114.151 19.1416C113.536 19.1416 113.044 19.6338 113.044 20.2402C113.044 20.8379 113.536 21.3301 114.151 21.3301ZM113.202 32H115.101V22.7539H113.202V32ZM117.061 32H118.959V26.6123C118.959 25.1709 119.82 24.2041 121.156 24.2041C122.475 24.2041 123.125 24.9863 123.125 26.375V32H125.032V26.0146C125.032 23.8877 123.863 22.5781 121.833 22.5781C120.436 22.5781 119.486 23.2109 119.003 24.1514H118.959V22.7539H117.061V32ZM130.016 32.1846C131.422 32.1846 132.362 31.543 132.846 30.6113H132.89V32H134.797V22.7539H132.89V28.1504C132.89 29.5918 132.028 30.5498 130.692 30.5498C129.374 30.5498 128.724 29.7764 128.724 28.3789V22.7539H126.825V28.748C126.825 30.875 127.985 32.1846 130.016 32.1846ZM140.624 32.1846C142.865 32.1846 144.289 30.8486 144.588 29.3809L144.605 29.2842H142.804L142.777 29.3545C142.54 30.0488 141.793 30.6289 140.668 30.6289C139.156 30.6289 138.198 29.6094 138.163 27.8604H144.711V27.2188C144.711 24.4414 143.12 22.5781 140.527 22.5781C137.935 22.5781 136.265 24.5117 136.265 27.4033V27.4121C136.265 30.3301 137.908 32.1846 140.624 32.1846ZM140.536 24.1338C141.775 24.1338 142.672 24.916 142.83 26.5156H138.189C138.356 24.9688 139.306 24.1338 140.536 24.1338ZM151.663 32H153.623L155.548 25.0742H155.592L157.534 32H159.512L162.043 22.7539H160.162L158.475 30.0312H158.431L156.497 22.7539H154.669L152.744 30.0312H152.709L151.021 22.7539H149.123L151.663 32ZM164.231 21.3301C164.855 21.3301 165.339 20.8379 165.339 20.2402C165.339 19.6338 164.855 19.1416 164.231 19.1416C163.616 19.1416 163.124 19.6338 163.124 20.2402C163.124 20.8379 163.616 21.3301 164.231 21.3301ZM163.282 32H165.181V22.7539H163.282V32ZM170.384 32.1846C170.771 32.1846 171.131 32.1406 171.351 32.1055V30.6377C171.21 30.6553 171.043 30.6729 170.841 30.6729C170.041 30.6729 169.619 30.3916 169.619 29.4512V24.2656H171.351V22.7539H169.619V20.3457H167.677V22.7539H166.35V24.2656H167.677V29.5654C167.677 31.4111 168.556 32.1846 170.384 32.1846ZM172.994 32H174.893V26.6475C174.893 25.2061 175.763 24.2041 177.072 24.2041C178.408 24.2041 179.182 25.1182 179.182 26.6475V32H181.08V26.2871C181.08 24.0547 179.779 22.5781 177.802 22.5781C176.422 22.5781 175.429 23.2021 174.937 24.2744H174.893V19.3174H172.994V32ZM192.269 32.2109C195.705 32.2109 197.735 30.1631 197.735 26.7266V25.4258H192.515V27.0342H195.793V27.2451C195.767 29.1699 194.343 30.4707 192.286 30.4707C189.869 30.4707 188.357 28.625 188.357 25.5928V25.584C188.357 22.6133 189.825 20.8467 192.251 20.8467C193.903 20.8467 195.055 21.6992 195.591 23.167L195.617 23.2637H197.639L197.604 23.1055C197.076 20.8203 195.213 19.1064 192.242 19.1064C188.639 19.1064 186.354 21.5938 186.354 25.5928V25.6016C186.354 29.6797 188.639 32.2109 192.269 32.2109ZM203.404 32.1846C206.05 32.1846 207.79 30.3564 207.79 27.377V27.3594C207.79 24.3975 206.032 22.5781 203.396 22.5781C200.768 22.5781 199.019 24.4062 199.019 27.3594V27.377C199.019 30.3477 200.75 32.1846 203.404 32.1846ZM203.413 30.5938C201.928 30.5938 200.961 29.4248 200.961 27.377V27.3594C200.961 25.3379 201.937 24.1689 203.396 24.1689C204.881 24.1689 205.848 25.3379 205.848 27.3594V27.377C205.848 29.416 204.898 30.5938 203.413 30.5938ZM213.23 32.1846C215.876 32.1846 217.616 30.3564 217.616 27.377V27.3594C217.616 24.3975 215.858 22.5781 213.222 22.5781C210.594 22.5781 208.845 24.4062 208.845 27.3594V27.377C208.845 30.3477 210.576 32.1846 213.23 32.1846ZM213.239 30.5938C211.754 30.5938 210.787 29.4248 210.787 27.377V27.3594C210.787 25.3379 211.763 24.1689 213.222 24.1689C214.707 24.1689 215.674 25.3379 215.674 27.3594V27.377C215.674 29.416 214.725 30.5938 213.239 30.5938ZM223.136 35.2607C225.746 35.2607 227.381 33.8545 227.381 31.7451V22.7539H225.474V24.3271H225.43C224.885 23.2812 223.865 22.5781 222.564 22.5781C220.218 22.5781 218.671 24.3975 218.671 27.2979V27.3066C218.671 30.1895 220.2 32.0088 222.521 32.0088C223.848 32.0088 224.902 31.3672 225.43 30.3652H225.474V31.6309C225.474 32.9229 224.639 33.7314 223.127 33.7314C221.94 33.7314 221.141 33.3271 220.886 32.7383L220.851 32.668H218.97L218.979 32.7471C219.26 34.1621 220.763 35.2607 223.136 35.2607ZM223.057 30.4619C221.554 30.4619 220.613 29.2666 220.613 27.333V27.3242C220.613 25.417 221.554 24.2041 223.057 24.2041C224.498 24.2041 225.474 25.4258 225.474 27.3242V27.333C225.474 29.2402 224.507 30.4619 223.057 30.4619ZM229.332 32H231.23V19.3174H229.332V32ZM237.128 32.1846C239.369 32.1846 240.793 30.8486 241.092 29.3809L241.109 29.2842H239.308L239.281 29.3545C239.044 30.0488 238.297 30.6289 237.172 30.6289C235.66 30.6289 234.702 29.6094 234.667 27.8604H241.215V27.2188C241.215 24.4414 239.624 22.5781 237.031 22.5781C234.438 22.5781 232.769 24.5117 232.769 27.4033V27.4121C232.769 30.3301 234.412 32.1846 237.128 32.1846ZM237.04 24.1338C238.279 24.1338 239.176 24.916 239.334 26.5156H234.693C234.86 24.9688 235.81 24.1338 237.04 24.1338Z" fill="white"/>
</svg>
