<svg width="54" height="54" viewBox="0 0 54 54" fill="none" xmlns="http://www.w3.org/2000/svg">
<circle cx="27" cy="27" r="27" fill="white"/>
<path fill-rule="evenodd" clip-rule="evenodd" d="M26.75 19.5C26.336 19.5 26 19.836 26 20.25V21H29V20.25C29 19.836 28.664 19.5 28.25 19.5H26.75ZM30.5 21V20.25C30.5 19.0072 29.4928 18 28.25 18H26.75C25.5072 18 24.5 19.0072 24.5 20.25V21H20.75C20.336 21 20 21.336 20 21.75C20 22.164 20.336 22.5 20.75 22.5H20.8288L22.106 33.9983C22.2327 35.1383 23.1958 36 24.3425 36H30.6575C31.8043 36 32.7673 35.1383 32.8933 33.9983L34.1713 22.5H34.25C34.664 22.5 35 22.164 35 21.75C35 21.336 34.664 21 34.25 21H30.5ZM32.6623 22.5H22.3377L23.597 33.8325C23.6398 34.2128 23.9608 34.5 24.3425 34.5H30.6575C31.0392 34.5 31.3603 34.2128 31.403 33.8325L32.6623 22.5ZM26 24.75C26.414 24.75 26.75 25.086 26.75 25.5V31.5C26.75 31.914 26.414 32.25 26 32.25C25.586 32.25 25.25 31.914 25.25 31.5V25.5C25.25 25.086 25.586 24.75 26 24.75ZM29 24.75C29.414 24.75 29.75 25.086 29.75 25.5V31.5C29.75 31.914 29.414 32.25 29 32.25C28.586 32.25 28.25 31.914 28.25 31.5V25.5C28.25 25.086 28.586 24.75 29 24.75Z" fill="#0B0B0B"/>
</svg>
