<svg width="107" height="137" viewBox="0 0 107 137" fill="none" xmlns="http://www.w3.org/2000/svg">
<path fill-rule="evenodd" clip-rule="evenodd" d="M65.341 134.961H25.342C25.342 134.961 26.453 124.961 25.342 116.628C24.231 108.295 8.39799 95.5168 7.56499 88.0168C6.73099 80.5178 17.009 71.0728 18.12 65.7958C19.231 60.5178 7.84299 24.4078 6.17599 17.4628C4.50899 10.5188 2.28699 2.74181 8.39799 0.241809C14.509 -2.25819 20.62 15.2408 23.398 24.4078C26.175 33.5738 32.189 43.8518 32.189 43.8518C32.189 43.8518 35.064 41.9038 39.786 41.0718C44.508 40.2408 50.064 48.2958 50.064 48.2958C50.064 48.2958 53.405 42.3068 58.675 41.9058C63.813 41.5138 67.355 46.9618 67.355 46.9618C67.355 46.9618 78.815 13.0598 81.174 9.40781C83.4 5.96281 88.952 8.29681 89.23 12.4638C89.507 16.6298 86.73 33.5708 84.507 41.0718C82.285 48.5738 80.063 69.6848 80.896 73.2948C81.73 76.9068 82.285 90.2398 80.341 101.35C79.369 106.906 75.897 113.989 73.501 118.017C70.615 122.868 71.76 128.475 72.216 134.101L72.285 134.961H65.341Z" fill="white"/>
<path fill-rule="evenodd" clip-rule="evenodd" d="M14.162 71.9038C14.162 71.9038 14.326 71.6888 14.634 71.2848C14.95 70.8838 15.423 70.3048 16.076 69.6098C16.73 68.9158 17.561 68.1018 18.639 67.2848C19.72 66.4898 21.051 65.6118 22.852 65.2948C23.755 65.1418 24.75 65.2458 25.656 65.5258C26.569 65.8038 27.42 66.2388 28.233 66.7078C29.796 67.6548 31.445 68.6528 33.15 69.6848C34.848 70.7168 36.603 71.7838 38.386 72.8668C39.277 73.4098 40.176 73.9578 41.078 74.5078C41.981 75.0718 42.933 75.6688 43.805 76.4758C44.239 76.8788 44.65 77.3348 44.998 77.8568C45.177 78.1338 45.31 78.3618 45.469 78.7198L45.62 79.0868L45.775 79.5848C46.095 80.8368 46.015 82.1118 45.639 83.2568C45.274 84.4078 44.628 85.4408 43.78 86.2668C43.663 86.3738 43.584 86.4588 43.436 86.5828L43.14 86.8238C42.903 86.9988 42.645 87.1858 42.407 87.3238C41.921 87.6188 41.415 87.8678 40.896 88.0558C38.821 88.8248 36.653 88.8188 34.757 88.4188C32.852 88.0208 31.198 87.2758 29.754 86.5178C28.319 85.7518 27.054 84.9658 25.973 84.1698C24.896 83.3758 24.027 82.5668 23.374 81.8388C22.723 81.1078 22.284 80.4628 22.015 80.0068C21.743 79.5528 21.618 79.2978 21.618 79.2978L21.612 79.2858C21.444 78.9448 21.584 78.5308 21.926 78.3628C22.262 78.1968 22.669 78.3318 22.842 78.6618C22.842 78.6618 22.956 78.8808 23.203 79.2728C23.446 79.6668 23.844 80.2248 24.441 80.8658C25.04 81.5048 25.843 82.2228 26.862 82.9398C27.876 83.6548 29.109 84.3838 30.494 85.0848C31.874 85.7718 33.414 86.4158 35.091 86.7258C36.75 87.0398 38.58 86.9828 40.234 86.3268C41.888 85.6868 43.254 84.3878 43.751 82.6648C44.019 81.8278 44.04 80.9168 43.827 80.1258L43.75 79.8668L43.595 79.5018C43.538 79.3778 43.406 79.1458 43.297 78.9798C43.059 78.6178 42.761 78.2778 42.422 77.9578C41.741 77.3148 40.897 76.7638 40.014 76.2068C39.125 75.6388 38.238 75.0748 37.359 74.5138C35.601 73.3908 33.871 72.2848 32.197 71.2148C30.527 70.1498 28.912 69.1218 27.381 68.1458C25.883 67.2178 24.422 66.6268 23.083 66.8358C21.723 67.0398 20.495 67.7588 19.497 68.4558C18.494 69.1728 17.686 69.9158 17.051 70.5528C16.415 71.1918 15.95 71.7288 15.64 72.0998C15.334 72.4778 15.171 72.6788 15.171 72.6788L15.163 72.6898C14.942 72.9628 14.541 73.0048 14.268 72.7838C13.999 72.5668 13.954 72.1758 14.162 71.9038Z" fill="#3D3D3D"/>
<path fill-rule="evenodd" clip-rule="evenodd" d="M19.315 87.4778C19.315 87.4778 19.405 87.4418 19.564 87.3788C19.733 87.3148 19.906 87.2258 20.161 87.1158C20.407 87.0068 20.685 86.8618 20.981 86.7148C21.277 86.5628 21.571 86.3668 21.881 86.2098C22.512 85.9208 23.167 85.6378 23.617 85.3468C24.073 85.0678 24.38 84.8688 24.38 84.8688L24.413 84.8468C24.734 84.6388 25.164 84.7298 25.373 85.0518C25.543 85.3138 25.513 85.6488 25.321 85.8768C25.321 85.8768 25.255 85.9558 25.138 86.0938C25.022 86.2328 24.851 86.4288 24.623 86.6398C24.17 87.0618 23.539 87.6278 22.799 88.0308C22.422 88.2158 22.013 88.3288 21.637 88.4358C21.259 88.5388 20.9 88.6078 20.591 88.6478C20.292 88.6958 19.997 88.7138 19.837 88.7168C19.667 88.7218 19.57 88.7248 19.57 88.7248C19.213 88.7338 18.916 88.4528 18.906 88.0958C18.899 87.8168 19.07 87.5748 19.315 87.4778Z" fill="#3D3D3D"/>
<path fill-rule="evenodd" clip-rule="evenodd" d="M50.611 50.2538C50.611 50.2538 50.577 50.7368 50.516 51.5818C50.459 52.4158 50.409 53.6208 50.364 55.0588C50.326 56.4988 50.324 58.1798 50.402 59.9758C50.472 61.7728 50.637 63.6818 50.817 65.5868C50.91 66.5508 51.003 67.5158 51.094 68.4648C51.174 69.4378 51.217 70.4258 51.159 71.4018C51.1 72.3768 50.924 73.3408 50.609 74.2178C50.497 74.4978 50.463 74.5998 50.34 74.8488C50.23 75.0758 50.115 75.2878 49.995 75.4708C49.763 75.8538 49.49 76.1888 49.215 76.4978C48.093 77.7238 46.693 78.2828 45.675 78.3538C45.164 78.3848 44.759 78.3378 44.492 78.2788C44.226 78.2128 44.084 78.1778 44.084 78.1778C43.716 78.0868 43.492 77.7138 43.584 77.3458C43.671 76.9938 44.016 76.7728 44.368 76.8348L44.468 76.8528C44.468 76.8528 44.564 76.8698 44.742 76.9018C44.92 76.9308 45.186 76.9418 45.521 76.9038C46.186 76.8148 47.167 76.3768 47.992 75.4088C48.189 75.1638 48.387 74.9008 48.548 74.6048C48.638 74.4548 48.704 74.3108 48.767 74.1708C48.826 74.0588 48.923 73.7678 48.961 73.6598C49.18 72.9548 49.293 72.1668 49.308 71.3248C49.344 69.6398 48.975 67.7528 48.794 65.7788C48.611 63.8188 48.563 61.8488 48.578 60.0068C48.589 58.1638 48.674 56.4468 48.784 54.9788C48.89 53.5098 49.041 52.2968 49.157 51.4408C49.277 50.5968 49.346 50.1148 49.346 50.1148C49.396 49.7668 49.718 49.5248 50.066 49.5738C50.399 49.6218 50.634 49.9238 50.611 50.2538Z" fill="#3D3D3D"/>
<path fill-rule="evenodd" clip-rule="evenodd" d="M34.751 72.3678C34.751 72.3678 34.471 70.7948 34.135 68.4128C33.976 67.2218 33.79 65.8328 33.59 64.3438C33.403 62.8538 33.199 61.2638 33.064 59.6668C32.82 56.4718 32.737 53.2668 32.658 50.8658C32.586 48.4648 32.591 46.8628 32.591 46.8628C32.589 46.4818 32.897 46.1718 33.278 46.1698C33.639 46.1688 33.937 46.4518 33.969 46.8048C33.969 46.8048 34.098 48.3928 34.293 50.7768C34.471 53.1598 34.808 56.3288 35.09 59.4998C35.221 61.0858 35.304 62.6768 35.405 64.1668C35.516 65.6568 35.619 67.0468 35.707 68.2388C35.892 70.6248 36.015 72.2148 36.015 72.2148C36.042 72.5658 35.78 72.8718 35.429 72.8998C35.1 72.9248 34.811 72.6958 34.753 72.3788L34.751 72.3678Z" fill="#3D3D3D"/>
<path fill-rule="evenodd" clip-rule="evenodd" d="M67.107 49.5118C67.107 49.5118 66.551 51.8978 65.897 55.4988C65.569 57.2988 65.23 59.4068 64.942 61.6738C64.647 63.9458 64.433 66.3538 64.211 68.8048C64.097 70.0398 63.921 71.3068 63.603 72.5588C63.274 73.8028 62.791 75.0418 62.037 76.0888C61.893 76.3148 61.68 76.5748 61.454 76.8308C61.239 77.0978 61.009 77.3018 60.784 77.5128C60.331 77.9298 59.843 78.2838 59.345 78.5818C58.35 79.1818 57.314 79.5578 56.335 79.7708C54.368 80.2198 52.652 79.9248 51.542 79.5798C50.988 79.3848 50.559 79.2118 50.285 79.0538C50.006 78.9078 49.857 78.8298 49.857 78.8298C49.52 78.6538 49.39 78.2378 49.566 77.9018C49.736 77.5758 50.13 77.4438 50.461 77.5938L50.535 77.6278C50.535 77.6278 50.661 77.6858 50.898 77.7948C51.128 77.9168 51.492 78.0398 51.957 78.1818C52.89 78.4208 54.329 78.6038 55.964 78.1758C56.776 77.9698 57.628 77.6248 58.424 77.1068C58.822 76.8498 59.207 76.5488 59.556 76.2038C59.729 76.0298 59.914 75.8558 60.045 75.6728C60.189 75.5018 60.341 75.3228 60.499 75.0568C61.069 74.2128 61.434 73.1828 61.688 72.0888C61.95 70.9908 62.063 69.8118 62.189 68.6048C62.314 67.3958 62.43 66.1488 62.602 64.9458C62.765 63.7378 62.949 62.5528 63.138 61.4078C63.519 59.1188 63.944 56.9958 64.346 55.1858C64.741 53.3728 65.138 51.8818 65.42 50.8348C65.708 49.7958 65.872 49.2028 65.872 49.2028C65.964 48.8628 66.313 48.6618 66.652 48.7538C66.983 48.8418 67.181 49.1818 67.107 49.5118Z" fill="#3D3D3D"/>
<path fill-rule="evenodd" clip-rule="evenodd" d="M25.183 39.9358C25.183 39.9358 25.045 39.9808 24.803 40.0588C24.549 40.1388 24.267 40.2518 23.877 40.4038C23.496 40.5498 23.066 40.7558 22.61 40.9728C22.156 41.1978 21.7 41.4848 21.233 41.7418C20.289 42.2388 19.351 42.7868 18.718 43.3028C18.077 43.8048 17.667 44.1748 17.667 44.1748L17.649 44.1918C17.365 44.4478 16.928 44.4258 16.672 44.1428C16.444 43.8908 16.437 43.5178 16.637 43.2578C16.637 43.2578 16.73 43.1368 16.892 42.9258C17.055 42.7148 17.295 42.4158 17.618 42.0898C18.254 41.4318 19.17 40.5878 20.241 39.9608C20.785 39.6648 21.369 39.4538 21.915 39.2668C22.464 39.0878 22.985 38.9548 23.438 38.8738C23.877 38.7818 24.299 38.7368 24.539 38.7188C24.792 38.6988 24.937 38.6878 24.937 38.6878C25.29 38.6598 25.598 38.9238 25.625 39.2768C25.649 39.5788 25.459 39.8478 25.183 39.9358Z" fill="#3D3D3D"/>
<path fill-rule="evenodd" clip-rule="evenodd" d="M17.914 23.3588C17.914 23.3588 17.784 23.3628 17.556 23.3718C17.307 23.3788 17.081 23.4158 16.72 23.4698C16.374 23.5178 15.981 23.6258 15.568 23.7418C15.156 23.8698 14.743 24.0658 14.326 24.2378C13.908 24.4108 13.489 24.5878 13.107 24.7888C12.735 25.0008 12.39 25.2178 12.123 25.4388C11.58 25.8708 11.253 26.2158 11.253 26.2158L11.227 26.2428C10.964 26.5198 10.527 26.5308 10.25 26.2678C10.005 26.0358 9.968 25.6658 10.146 25.3918C10.146 25.3918 10.223 25.2728 10.359 25.0638C10.495 24.8548 10.703 24.5598 10.998 24.2478C11.575 23.6158 12.465 22.8398 13.531 22.3598C14.071 22.1408 14.645 22.0238 15.179 21.9418C15.716 21.8708 16.22 21.8488 16.65 21.8798C17.063 21.8918 17.485 21.9638 17.685 22.0118C17.908 22.0628 18.035 22.0918 18.035 22.0918C18.38 22.1708 18.596 22.5148 18.517 22.8608C18.451 23.1498 18.197 23.3488 17.914 23.3588Z" fill="#3D3D3D"/>
<path fill-rule="evenodd" clip-rule="evenodd" d="M72.399 43.0058C72.399 43.0058 72.505 42.9648 72.689 42.8918C72.855 42.8248 73.208 42.7088 73.56 42.6408C73.924 42.5548 74.359 42.4988 74.83 42.4798C75.299 42.4688 75.809 42.4738 76.305 42.5758C77.291 42.8188 78.177 43.3328 78.783 43.7618C79.091 43.9718 79.323 44.1828 79.479 44.3328C79.634 44.4838 79.722 44.5698 79.722 44.5698C79.996 44.8358 80.003 45.2728 79.737 45.5478C79.509 45.7828 79.154 45.8208 78.885 45.6588L78.848 45.6368C78.848 45.6368 78.495 45.4248 77.951 45.1718C77.411 44.9028 76.633 44.7088 75.869 44.5668C75.489 44.4868 75.11 44.3738 74.741 44.3198C74.374 44.2728 74.024 44.2278 73.722 44.2238C73.406 44.2178 73.208 44.2058 72.992 44.2238C72.795 44.2388 72.682 44.2468 72.682 44.2468C72.328 44.2728 72.019 44.0068 71.993 43.6528C71.972 43.3648 72.144 43.1068 72.399 43.0058Z" fill="#3D3D3D"/>
<path fill-rule="evenodd" clip-rule="evenodd" d="M77.847 26.2378C77.847 26.2378 77.96 26.1948 78.16 26.1208C78.343 26.0508 78.708 25.9318 79.082 25.8578C79.468 25.7668 79.928 25.7028 80.425 25.6728C80.922 25.6518 81.46 25.6438 81.989 25.7308C83.041 25.9448 84.008 26.4268 84.683 26.8308C85.025 27.0288 85.288 27.2288 85.467 27.3728C85.645 27.5168 85.747 27.5998 85.747 27.5998C86.044 27.8398 86.09 28.2748 85.85 28.5718C85.641 28.8298 85.286 28.8988 85.001 28.7548L84.969 28.7388C84.969 28.7388 84.567 28.5368 83.953 28.2958C83.342 28.0398 82.48 27.8628 81.632 27.7378C81.209 27.6658 80.787 27.5608 80.38 27.5148C79.975 27.4758 79.59 27.4378 79.258 27.4398C78.914 27.4398 78.685 27.4338 78.457 27.4538C78.245 27.4708 78.124 27.4798 78.124 27.4798C77.77 27.5088 77.46 27.2448 77.432 26.8908C77.408 26.5988 77.585 26.3358 77.847 26.2378Z" fill="#3D3D3D"/>
<path fill-rule="evenodd" clip-rule="evenodd" d="M34.619 87.3688C34.619 87.3688 34.982 87.5508 35.619 87.8688C35.936 88.0128 36.324 88.2378 36.771 88.5158C37.227 88.7758 37.718 89.0998 38.215 89.4838C38.736 89.8438 39.258 90.2868 39.804 90.7658C40.364 91.2288 40.879 91.7968 41.44 92.3578C41.956 92.9578 42.515 93.5618 42.995 94.2438C43.524 94.8928 43.932 95.6388 44.386 96.3548C44.775 97.1088 45.165 97.8628 45.462 98.6428C45.795 99.4088 46.019 100.201 46.262 100.954C46.448 101.725 46.664 102.462 46.768 103.182C46.893 103.897 46.999 104.574 47.035 105.208C47.104 105.837 47.123 106.417 47.112 106.932C47.118 107.445 47.111 107.892 47.07 108.26C47.01 108.993 46.976 109.413 46.976 109.413C46.946 109.792 46.613 110.074 46.234 110.043C45.873 110.014 45.599 109.71 45.601 109.353L45.602 109.292C45.602 109.292 45.606 108.9 45.613 108.214C45.629 107.871 45.606 107.456 45.566 106.98C45.542 106.504 45.505 105.969 45.407 105.389C45.345 104.806 45.214 104.185 45.065 103.531C44.937 102.874 44.698 102.203 44.493 101.504C44.231 100.822 43.99 100.107 43.649 99.4198C43.363 98.7078 42.953 98.0438 42.612 97.3468C42.212 96.6808 41.832 96.0028 41.394 95.3738C40.991 94.7208 40.509 94.1398 40.066 93.5578C39.58 93.0148 39.135 92.4578 38.643 92.0028C38.165 91.5308 37.706 91.0918 37.242 90.7318C36.797 90.3408 36.368 90.0318 35.987 89.7618C35.615 89.4828 35.276 89.2418 34.959 89.0638C34.351 88.6948 34.003 88.4838 34.003 88.4838C33.703 88.3008 33.607 87.9088 33.79 87.6088C33.963 87.3238 34.326 87.2238 34.619 87.3688Z" fill="#3D3D3D"/>
<path fill-rule="evenodd" clip-rule="evenodd" d="M47.767 98.7898C47.767 98.7898 48.017 98.4478 48.455 97.8508C48.664 97.5508 48.95 97.1918 49.29 96.7788C49.619 96.3588 50.011 95.9048 50.455 95.4358C50.884 94.9488 51.381 94.4518 51.914 93.9318C52.436 93.4008 53.037 92.8948 53.641 92.3508C54.272 91.8388 54.911 91.2908 55.607 90.7938C56.28 90.2628 57.029 89.8208 57.754 89.3418C58.507 88.9078 59.265 88.4828 60.039 88.1168C60.801 87.7288 61.584 87.4178 62.33 87.0978C63.093 86.8148 63.821 86.5178 64.534 86.3008C65.242 86.0708 65.913 85.8608 66.544 85.7068C67.169 85.5308 67.748 85.3968 68.266 85.2978C68.781 85.1878 69.231 85.0998 69.607 85.0498C70.353 84.9338 70.78 84.8688 70.78 84.8688C71.156 84.8108 71.508 85.0678 71.566 85.4448C71.622 85.8048 71.388 86.1428 71.038 86.2218L71.001 86.2298C71.001 86.2298 70.597 86.3208 69.89 86.4788C69.535 86.5508 69.11 86.6638 68.625 86.8018C68.137 86.9308 67.589 87.0798 67.002 87.2788C66.408 87.4558 65.779 87.6878 65.116 87.9398C64.449 88.1788 63.77 88.4968 63.061 88.7998C62.367 89.1398 61.642 89.4718 60.937 89.8718C60.211 90.2328 59.523 90.6858 58.803 91.0828C57.403 91.9408 56.021 92.8368 54.787 93.7698C54.187 94.2538 53.586 94.7038 53.062 95.1808C52.527 95.6478 52.026 96.0948 51.591 96.5358C51.137 96.9628 50.752 97.3738 50.41 97.7358C50.063 98.0928 49.762 98.4118 49.523 98.7018C49.04 99.2618 48.763 99.5818 48.763 99.5818C48.533 99.8478 48.131 99.8778 47.865 99.6478C47.612 99.4298 47.574 99.0548 47.767 98.7898Z" fill="#3D3D3D"/>
<path fill-rule="evenodd" clip-rule="evenodd" d="M45.773 122.437C45.773 122.437 45.6 122.784 45.313 123.284C45.17 123.534 45.003 123.826 44.811 124.128C44.619 124.43 44.433 124.768 44.2 125.068C43.711 125.651 43.145 126.174 42.753 126.592C42.354 127.004 42.065 127.261 42.065 127.261C41.776 127.518 41.333 127.492 41.076 127.203C40.877 126.979 40.848 126.662 40.979 126.411C40.979 126.411 41.159 126.069 41.463 125.583C41.775 125.102 42.146 124.427 42.594 123.812C42.83 123.514 43.113 123.252 43.36 122.993C43.608 122.734 43.851 122.502 44.06 122.303C44.476 121.904 44.771 121.652 44.771 121.652C45.044 121.42 45.454 121.453 45.687 121.726C45.861 121.93 45.886 122.211 45.773 122.437Z" fill="#3D3D3D"/>
<path fill-rule="evenodd" clip-rule="evenodd" d="M42.86 80.0078C42.86 80.0078 42.786 79.9988 42.647 79.9828C42.498 79.9608 42.327 79.9538 42.101 79.9448C41.63 79.9348 40.951 79.9728 40.173 80.1638C39.397 80.3548 38.523 80.7228 37.749 81.3168C37.361 81.5728 36.974 82.0978 36.034 82.4178C35.558 82.5658 34.959 82.5398 34.492 82.3068C34.017 82.0878 33.698 81.7648 33.45 81.4668C33.197 81.1638 33.029 80.8518 32.875 80.5578C32.741 80.2808 32.607 80.0048 32.475 79.7308C32.221 79.1758 31.985 78.5938 31.814 77.9868C31.644 77.3808 31.546 76.7438 31.569 76.1258C31.577 75.8018 31.618 75.5498 31.699 75.1988C31.784 74.9078 31.88 74.6338 32.011 74.3888C32.5 73.3918 33.33 72.7858 34.007 72.5818C34.343 72.4768 34.627 72.4528 34.816 72.4528C35.006 72.4608 35.107 72.4648 35.107 72.4648C35.487 72.4928 35.772 72.8228 35.745 73.2028C35.718 73.5828 35.387 73.8688 35.007 73.8408C35.009 73.8528 34.81 73.8188 34.5 73.9538C34.199 74.0798 33.755 74.4488 33.492 75.0858C33.422 75.2398 33.381 75.4118 33.341 75.5848C33.325 75.7038 33.291 75.9458 33.308 76.1338C33.323 76.5388 33.418 76.9758 33.582 77.4318C33.746 77.8898 33.978 78.3638 34.243 78.8578C34.507 79.3618 34.79 79.8888 35.034 80.1928C35.157 80.3548 35.279 80.4578 35.345 80.4878C35.41 80.5168 35.438 80.5318 35.525 80.5258C35.729 80.5188 36.175 80.1718 36.71 79.8178C37.77 79.1348 38.891 78.7718 39.86 78.6138C40.832 78.4438 41.659 78.5098 42.22 78.5838C42.512 78.6288 42.747 78.6718 42.871 78.7048C43.007 78.7368 43.08 78.7538 43.08 78.7538C43.422 78.8338 43.635 79.1768 43.555 79.5198C43.48 79.8388 43.178 80.0448 42.86 80.0078Z" fill="#3D3D3D"/>
<path fill-rule="evenodd" clip-rule="evenodd" d="M47.357 72.4808C47.357 72.4808 45.475 72.5588 42.653 72.6248C41.947 72.6408 41.182 72.6578 40.373 72.6758C39.95 72.6818 39.481 72.6848 38.95 72.5808C38.685 72.5268 38.405 72.4418 38.13 72.3088C38.061 72.2768 37.993 72.2368 37.925 72.1998L37.75 72.0878C37.623 72.0008 37.46 71.8668 37.361 71.7678C36.458 70.8678 36.184 69.5898 36.355 68.4378C36.519 67.2888 37.052 66.3438 37.531 65.5078C38.059 64.6278 38.703 63.7858 39.596 63.1038C40.041 62.7698 40.555 62.4918 41.108 62.3268L41.315 62.2678C41.478 62.2248 41.456 62.2378 41.535 62.2208C41.64 62.1998 41.751 62.1778 41.928 62.1618C42.26 62.1258 42.515 62.1308 42.797 62.1578C43.903 62.2648 44.848 62.7408 45.586 63.3328C46.318 63.9108 46.88 64.7158 47.201 65.4138C47.882 66.8898 47.911 68.2068 47.905 69.0778C47.882 69.9588 47.797 70.4468 47.797 70.4468L47.789 70.4948C47.724 70.8698 47.367 71.1208 46.992 71.0558C46.633 70.9928 46.387 70.6598 46.426 70.3018C46.426 70.3018 46.475 69.8558 46.447 69.0898C46.412 68.3338 46.292 67.2228 45.734 66.1418C45.434 65.5768 45.068 65.1178 44.517 64.7048C43.982 64.3118 43.317 64.0338 42.658 64.0048C42.502 63.9928 42.309 64.0058 42.196 64.0248C42.149 64.0248 42.041 64.0488 41.925 64.0778C41.895 64.0858 41.76 64.1138 41.816 64.1058L41.698 64.1458C41.384 64.2548 41.085 64.4338 40.8 64.6658C40.22 65.1188 39.725 65.8198 39.281 66.5418C38.805 67.3158 38.431 68.0648 38.29 68.7548C38.142 69.4148 38.311 70.1098 38.655 70.4838C38.948 70.8478 39.598 70.9648 40.382 70.9798C41.189 71.0028 41.953 71.0238 42.657 71.0428C45.479 71.1208 47.359 71.2078 47.359 71.2078C47.711 71.2238 47.983 71.5218 47.966 71.8738C47.951 72.2058 47.682 72.4658 47.357 72.4808Z" fill="#3D3D3D"/>
<path fill-rule="evenodd" clip-rule="evenodd" d="M50.101 67.8648C50.101 67.8648 50.135 67.7888 50.198 67.6458C50.241 67.5368 50.435 67.1788 50.647 66.9318C51.08 66.3648 51.928 65.7178 53.092 65.4598C53.671 65.3298 54.322 65.2888 55.008 65.3948C55.355 65.4518 55.693 65.5378 56.057 65.6888C56.299 65.7758 56.732 65.9998 57.014 66.1838C58.262 66.9928 59.225 68.2738 59.752 69.6738C59.894 70.0208 59.995 70.3878 60.078 70.7438C60.169 71.1678 60.215 71.5538 60.199 72.0028C60.177 72.4408 60.077 72.9318 59.796 73.3958C59.52 73.8598 59.028 74.2228 58.588 74.3678C57.683 74.6488 57.162 74.5858 56.555 74.6528C55.968 74.6898 55.413 74.7108 54.901 74.7198C53.877 74.7428 53.025 74.7068 52.43 74.6718C51.835 74.6308 51.496 74.6068 51.496 74.6068C51.115 74.5808 50.828 74.2518 50.855 73.8708C50.88 73.5058 51.19 73.2268 51.551 73.2288C51.551 73.2288 52.866 73.2378 54.821 73.0838C55.309 73.0438 55.837 72.9908 56.394 72.9218C56.92 72.8468 57.634 72.7798 57.915 72.6418C58.065 72.5728 58.097 72.5158 58.149 72.4238C58.194 72.3278 58.23 72.1618 58.228 71.9438C58.229 71.7348 58.185 71.4588 58.127 71.2358C58.05 70.9468 57.95 70.6748 57.853 70.3978C57.446 69.3028 56.802 68.3048 55.98 67.6858C55.743 67.5208 55.64 67.4368 55.327 67.2878C55.141 67.1938 54.91 67.1118 54.693 67.0608C54.25 66.9588 53.798 66.9518 53.395 67.0128C52.585 67.1428 51.981 67.5008 51.676 67.8298C51.497 68.0168 51.455 68.0618 51.357 68.2288C51.279 68.3648 51.238 68.4378 51.238 68.4378C51.064 68.7438 50.675 68.8508 50.369 68.6768C50.083 68.5138 49.972 68.1598 50.101 67.8648Z" fill="#3D3D3D"/>
<path fill-rule="evenodd" clip-rule="evenodd" d="M58.324 65.1778C58.324 65.1778 58.222 65.1298 58.045 65.0458C57.85 64.9518 57.671 64.8978 57.377 64.7948C57.099 64.6948 56.761 64.6208 56.408 64.5428C56.05 64.4728 55.664 64.4558 55.287 64.4108C54.536 64.3008 53.752 64.2448 53.169 64.3418C52.587 64.4198 52.196 64.5228 52.196 64.5228L52.152 64.5348C51.783 64.6318 51.405 64.4118 51.308 64.0418C51.224 63.7248 51.376 63.4008 51.654 63.2548C51.654 63.2548 51.763 63.1968 51.955 63.0958C52.147 62.9958 52.43 62.8598 52.787 62.7488C53.494 62.5158 54.5 62.2968 55.515 62.3848C56.019 62.4488 56.504 62.6118 56.943 62.7798C57.381 62.9578 57.771 63.1598 58.083 63.3678C58.389 63.5538 58.683 63.7938 58.81 63.9138C58.954 64.0478 59.037 64.1238 59.037 64.1238C59.298 64.3648 59.314 64.7718 59.073 65.0338C58.877 65.2448 58.571 65.2948 58.324 65.1778Z" fill="#3D3D3D"/>
<path fill-rule="evenodd" clip-rule="evenodd" d="M45.656 61.5818C45.656 61.5818 45.53 61.5478 45.309 61.4878C45.07 61.4208 44.838 61.3868 44.475 61.3288C44.129 61.2698 43.717 61.2508 43.286 61.2338C42.85 61.2278 42.393 61.2838 41.939 61.3158C41.484 61.3488 41.026 61.3828 40.597 61.4508C40.172 61.5318 39.773 61.6258 39.445 61.7468C38.784 61.9788 38.357 62.1938 38.357 62.1938L38.324 62.2108C37.984 62.3828 37.568 62.2458 37.396 61.9058C37.244 61.6038 37.334 61.2438 37.593 61.0458C37.593 61.0458 37.705 60.9588 37.903 60.8078C38.101 60.6568 38.395 60.4488 38.776 60.2518C39.528 59.8468 40.617 59.4018 41.778 59.2838C42.359 59.2458 42.94 59.3138 43.472 59.4008C44.004 59.4988 44.49 59.6328 44.89 59.7918C45.28 59.9288 45.657 60.1218 45.836 60.2278C46.034 60.3418 46.147 60.4078 46.147 60.4078C46.453 60.5858 46.558 60.9788 46.38 61.2848C46.231 61.5418 45.93 61.6568 45.656 61.5818Z" fill="#3D3D3D"/>
<path fill-rule="evenodd" clip-rule="evenodd" d="M35.604 45.3678C35.604 45.3678 35.733 45.2558 35.959 45.0608C36.156 44.8858 36.63 44.5378 37.122 44.3038C37.373 44.1638 37.66 44.0488 37.968 43.9338C38.273 43.8078 38.613 43.7408 38.96 43.6498C39.313 43.5908 39.679 43.5158 40.056 43.4988C40.432 43.4568 40.817 43.4778 41.2 43.5038C42.735 43.6988 44.139 44.4248 45.022 45.1478C45.476 45.4958 45.799 45.8558 46.004 46.1158C46.209 46.3768 46.325 46.5258 46.325 46.5258C46.559 46.8248 46.506 47.2568 46.208 47.4908C45.94 47.6988 45.567 47.6788 45.324 47.4588L45.257 47.3988C45.257 47.3988 45.145 47.2978 44.948 47.1198C44.857 47.0268 44.728 46.9308 44.578 46.8258C44.433 46.7148 44.27 46.5908 44.073 46.4818C43.888 46.3568 43.668 46.2508 43.436 46.1428C43.21 46.0258 42.945 45.9498 42.686 45.8528C42.414 45.7838 42.141 45.6978 41.85 45.6578C41.568 45.5848 41.268 45.5818 40.978 45.5308C40.684 45.5198 40.392 45.4628 40.1 45.4628C39.807 45.4358 39.521 45.4628 39.241 45.4708C38.966 45.5078 38.693 45.5288 38.444 45.5888C38.193 45.6398 37.953 45.6908 37.743 45.7698C37.519 45.8318 37.341 45.9088 37.185 45.9738C37.028 46.0308 36.88 46.0928 36.745 46.1778C36.485 46.3248 36.336 46.4088 36.336 46.4088C36.028 46.5818 35.638 46.4738 35.465 46.1658C35.313 45.8958 35.378 45.5618 35.604 45.3678Z" fill="#3D3D3D"/>
<path fill-rule="evenodd" clip-rule="evenodd" d="M44.21 48.8738C44.21 48.8738 44.135 48.8618 44.005 48.8418C43.866 48.8188 43.723 48.8158 43.514 48.7878C43.313 48.7698 43.079 48.7488 42.828 48.7268C42.58 48.7068 42.314 48.7208 42.057 48.6868C41.548 48.5938 41.028 48.4568 40.625 48.4288C40.219 48.3878 39.948 48.3598 39.948 48.3598C39.559 48.3218 39.274 47.9758 39.312 47.5858C39.339 47.3108 39.523 47.0868 39.765 46.9928C39.765 46.9928 40.068 46.8778 40.544 46.7938C41.018 46.7158 41.672 46.6058 42.324 46.6658C42.647 46.7118 42.957 46.8308 43.244 46.9318C43.53 47.0378 43.788 47.1578 44.002 47.2728C44.212 47.3768 44.411 47.5028 44.51 47.5728C44.618 47.6478 44.68 47.6908 44.68 47.6908C44.976 47.8958 45.05 48.3028 44.845 48.5998C44.698 48.8108 44.448 48.9088 44.21 48.8738Z" fill="#3D3D3D"/>
<path fill-rule="evenodd" clip-rule="evenodd" d="M53.422 47.1418C53.422 47.1418 53.51 47.0178 53.663 46.8018C53.803 46.6038 54.103 46.2258 54.448 45.8958C54.793 45.5398 55.242 45.1728 55.755 44.8208C56.275 44.4808 56.856 44.1438 57.484 43.9138C58.759 43.4948 60.113 43.4508 61.094 43.5408C61.587 43.5768 61.992 43.6638 62.27 43.7338C62.548 43.8058 62.706 43.8468 62.706 43.8468C63.075 43.9418 63.297 44.3188 63.202 44.6878C63.115 45.0228 62.796 45.2368 62.462 45.2018L62.43 45.1988C62.43 45.1988 61.874 45.1398 61.054 45.1778C60.645 45.1898 60.17 45.2648 59.673 45.3678C59.177 45.4868 58.665 45.6578 58.16 45.8378C57.656 46.0198 57.142 46.1888 56.682 46.4118C56.232 46.6458 55.807 46.8738 55.473 47.1138C55.122 47.3588 54.894 47.5218 54.681 47.7138C54.483 47.8898 54.37 47.9908 54.37 47.9908C54.106 48.2258 53.701 48.2028 53.466 47.9388C53.263 47.7118 53.253 47.3798 53.422 47.1418Z" fill="#3D3D3D"/>
<path fill-rule="evenodd" clip-rule="evenodd" d="M105.64 135.511C105.64 135.511 99.131 135.676 89.369 135.924C84.488 136.02 78.793 136.132 72.692 136.252C69.641 136.305 66.489 136.359 63.286 136.414C60.082 136.468 56.828 136.517 53.574 136.505C50.32 136.483 47.066 136.462 43.863 136.44C40.66 136.412 37.507 136.367 34.457 136.295C28.355 136.155 22.661 136.025 17.779 135.914C8.01699 135.69 1.50899 135.54 1.50899 135.54C1.18899 135.533 0.934994 135.268 0.942994 134.947C0.949994 134.637 1.20199 134.389 1.50899 134.381C1.50899 134.381 8.01699 134.232 17.779 134.008C22.661 133.896 28.355 133.766 34.457 133.627C37.507 133.554 40.66 133.51 43.863 133.481C47.066 133.46 50.32 133.438 53.574 133.416C56.828 133.405 60.082 133.453 63.286 133.508C66.489 133.563 69.641 133.617 72.692 133.669C78.793 133.789 84.488 133.901 89.369 133.997C99.131 134.245 105.64 134.411 105.64 134.411C105.943 134.418 106.184 134.671 106.176 134.975C106.168 135.269 105.93 135.503 105.64 135.511Z" fill="#ECECE4"/>
</svg>
