<svg width="64" height="40" viewBox="0 0 64 40" fill="none" xmlns="http://www.w3.org/2000/svg">
<g filter="url(#filter0_d)">
<rect x="24" width="40" height="40" rx="20" fill="white"/>
<mask id="mask0" mask-type="alpha" maskUnits="userSpaceOnUse" x="24" y="0" width="40" height="40">
<rect x="24" width="40" height="40" rx="20" fill="white"/>
</mask>
<g mask="url(#mask0)">
<path fill-rule="evenodd" clip-rule="evenodd" d="M51 20.1667L38.5 18.5616C37.5658 16.6933 36.8025 14.65 36.0908 12.6875C35.7241 11.675 36.7358 10.6908 37.735 11.0916C43.5592 13.4308 49.7825 16.13 55.3359 19.0541C56.2234 19.5225 56.2217 20.8108 55.3317 21.2758C49.7683 24.185 43.5433 26.8842 37.7233 29.2408C36.73 29.6425 35.7125 28.6708 36.075 27.6617C36.7833 25.6917 37.5516 23.7642 38.5 21.895L51 20.1667Z" fill="#0B0B0B"/>
</g>
</g>
<defs>
<filter id="filter0_d" x="0" y="-18" width="88" height="88" filterUnits="userSpaceOnUse" color-interpolation-filters="sRGB">
<feFlood flood-opacity="0" result="BackgroundImageFix"/>
<feColorMatrix in="SourceAlpha" type="matrix" values="0 0 0 0 0 0 0 0 0 0 0 0 0 0 0 0 0 0 127 0"/>
<feOffset dy="6"/>
<feGaussianBlur stdDeviation="12"/>
<feColorMatrix type="matrix" values="0 0 0 0 0 0 0 0 0 0 0 0 0 0 0 0 0 0 0.18 0"/>
<feBlend mode="normal" in2="BackgroundImageFix" result="effect1_dropShadow"/>
<feBlend mode="normal" in="SourceGraphic" in2="effect1_dropShadow" result="shape"/>
</filter>
</defs>
</svg>
