<svg width="54" height="54" viewBox="0 0 54 54" fill="none" xmlns="http://www.w3.org/2000/svg">
<circle cx="27" cy="27" r="27" fill="white"/>
<path fill-rule="evenodd" clip-rule="evenodd" d="M32.7273 19.6364C31.824 19.6364 31.0909 20.3695 31.0909 21.2727C31.0909 21.537 31.1531 21.7849 31.2627 22.0042C31.5327 22.5425 32.0875 22.9091 32.7273 22.9091C33.6305 22.9091 34.3636 22.176 34.3636 21.2727C34.3636 20.3695 33.6305 19.6364 32.7273 19.6364ZM29.4545 21.2727C29.4545 19.4654 30.9199 18 32.7273 18C34.5346 18 36 19.4654 36 21.2727C36 23.0801 34.5346 24.5455 32.7273 24.5455C31.7414 24.5455 30.8585 24.1094 30.2588 23.4213L24.4735 26.3144C24.5209 26.5361 24.5455 26.7652 24.5455 27C24.5455 27.2348 24.5209 27.4639 24.4735 27.6856L30.2588 30.5787C30.8585 29.8906 31.7414 29.4545 32.7273 29.4545C34.5346 29.4545 36 30.9199 36 32.7273C36 34.5346 34.5346 36 32.7273 36C30.9199 36 29.4545 34.5346 29.4545 32.7273C29.4545 32.4925 29.4791 32.2634 29.5265 32.0416L23.7412 29.1485C23.1415 29.8366 22.2586 30.2727 21.2727 30.2727C19.4654 30.2727 18 28.8074 18 27C18 25.1926 19.4654 23.7273 21.2727 23.7273C22.2586 23.7273 23.1415 24.1634 23.7412 24.8515L29.5265 21.9584C29.4791 21.7366 29.4545 21.5075 29.4545 21.2727ZM21.2727 25.3636C20.3695 25.3636 19.6364 26.0967 19.6364 27C19.6364 27.9033 20.3695 28.6364 21.2727 28.6364C21.9117 28.6364 22.4673 28.2698 22.7373 27.7315C22.8469 27.5122 22.9091 27.2643 22.9091 27C22.9091 26.7357 22.8469 26.4878 22.7373 26.2685C22.4673 25.7302 21.9117 25.3636 21.2727 25.3636ZM32.7273 31.0909C32.0875 31.0909 31.5327 31.4575 31.2627 31.9958C31.1531 32.2151 31.0909 32.463 31.0909 32.7273C31.0909 33.6305 31.824 34.3636 32.7273 34.3636C33.6305 34.3636 34.3636 33.6305 34.3636 32.7273C34.3636 31.824 33.6305 31.0909 32.7273 31.0909Z" fill="#0B131A"/>
<path d="M31.2627 22.0042L30.8155 22.2278L30.8158 22.2283L31.2627 22.0042ZM30.2588 23.4213L30.6357 23.0928L30.3814 22.8009L30.0352 22.9741L30.2588 23.4213ZM24.4735 26.3144L24.2498 25.8672L23.9035 26.0404L23.9845 26.419L24.4735 26.3144ZM24.4735 27.6856L23.9845 27.581L23.9035 27.9596L24.2498 28.1328L24.4735 27.6856ZM30.2588 30.5787L30.0352 31.0259L30.3814 31.1991L30.6357 30.9072L30.2588 30.5787ZM29.5265 32.0416L30.0155 32.1463L30.0965 31.7676L29.7502 31.5944L29.5265 32.0416ZM23.7412 29.1485L23.9648 28.7013L23.6186 28.5282L23.3643 28.82L23.7412 29.1485ZM23.7412 24.8515L23.3643 25.18L23.6186 25.4718L23.9648 25.2987L23.7412 24.8515ZM29.5265 21.9584L29.7502 22.4056L30.0965 22.2324L30.0155 21.8537L29.5265 21.9584ZM22.7373 27.7315L23.1842 27.9556L23.1845 27.9551L22.7373 27.7315ZM22.7373 26.2685L23.1845 26.0449L23.1842 26.0444L22.7373 26.2685ZM31.2627 31.9958L30.8158 31.7717L30.8155 31.7722L31.2627 31.9958ZM32.7273 19.1364C31.5479 19.1364 30.5909 20.0933 30.5909 21.2727H31.5909C31.5909 20.6456 32.1001 20.1364 32.7273 20.1364V19.1364ZM30.5909 21.2727C30.5909 21.6165 30.672 21.9408 30.8155 22.2278L31.7099 21.7806C31.6342 21.6291 31.5909 21.4575 31.5909 21.2727H30.5909ZM30.8158 22.2283C31.1674 22.9295 31.8913 23.4091 32.7273 23.4091V22.4091C32.2836 22.4091 31.898 22.1556 31.7097 21.78L30.8158 22.2283ZM32.7273 23.4091C33.9067 23.4091 34.8636 22.4521 34.8636 21.2727H33.8636C33.8636 21.8999 33.3544 22.4091 32.7273 22.4091V23.4091ZM34.8636 21.2727C34.8636 20.0933 33.9067 19.1364 32.7273 19.1364V20.1364C33.3544 20.1364 33.8636 20.6456 33.8636 21.2727H34.8636ZM29.9545 21.2727C29.9545 19.7415 31.1961 18.5 32.7273 18.5V17.5C30.6438 17.5 28.9545 19.1892 28.9545 21.2727H29.9545ZM32.7273 18.5C34.2585 18.5 35.5 19.7415 35.5 21.2727H36.5C36.5 19.1892 34.8108 17.5 32.7273 17.5V18.5ZM35.5 21.2727C35.5 22.8039 34.2585 24.0455 32.7273 24.0455V25.0455C34.8108 25.0455 36.5 23.3562 36.5 21.2727H35.5ZM32.7273 24.0455C31.8923 24.0455 31.1448 23.6768 30.6357 23.0928L29.8819 23.7498C30.5723 24.5419 31.5905 25.0455 32.7273 25.0455V24.0455ZM30.0352 22.9741L24.2498 25.8672L24.6971 26.7616L30.4825 23.8685L30.0352 22.9741ZM23.9845 26.419C24.0246 26.6062 24.0455 26.8002 24.0455 27H25.0455C25.0455 26.7302 25.0172 26.466 24.9624 26.2097L23.9845 26.419ZM24.0455 27C24.0455 27.1998 24.0246 27.3938 23.9845 27.581L24.9624 27.7903C25.0172 27.534 25.0455 27.2698 25.0455 27H24.0455ZM24.2498 28.1328L30.0352 31.0259L30.4825 30.1315L24.6971 27.2384L24.2498 28.1328ZM30.6357 30.9072C31.1448 30.3232 31.8923 29.9545 32.7273 29.9545V28.9545C31.5905 28.9545 30.5723 29.4581 29.8819 30.2502L30.6357 30.9072ZM32.7273 29.9545C34.2585 29.9545 35.5 31.1961 35.5 32.7273H36.5C36.5 30.6438 34.8108 28.9545 32.7273 28.9545V29.9545ZM35.5 32.7273C35.5 34.2585 34.2585 35.5 32.7273 35.5V36.5C34.8108 36.5 36.5 34.8108 36.5 32.7273H35.5ZM32.7273 35.5C31.1961 35.5 29.9545 34.2585 29.9545 32.7273H28.9545C28.9545 34.8108 30.6438 36.5 32.7273 36.5V35.5ZM29.9545 32.7273C29.9545 32.5275 29.9754 32.3334 30.0155 32.1463L29.0376 31.937C28.9828 32.1933 28.9545 32.4575 28.9545 32.7273H29.9545ZM29.7502 31.5944L23.9648 28.7013L23.5175 29.5957L29.3029 32.4888L29.7502 31.5944ZM23.3643 28.82C22.8552 29.4041 22.1077 29.7727 21.2727 29.7727V30.7727C22.4095 30.7727 23.4277 30.2692 24.1181 29.4771L23.3643 28.82ZM21.2727 29.7727C19.7415 29.7727 18.5 28.5312 18.5 27H17.5C17.5 29.0835 19.1892 30.7727 21.2727 30.7727V29.7727ZM18.5 27C18.5 25.4688 19.7415 24.2273 21.2727 24.2273V23.2273C19.1892 23.2273 17.5 24.9165 17.5 27H18.5ZM21.2727 24.2273C22.1077 24.2273 22.8552 24.5959 23.3643 25.18L24.1181 24.5229C23.4277 23.7308 22.4095 23.2273 21.2727 23.2273V24.2273ZM23.9648 25.2987L29.7502 22.4056L29.3029 21.5112L23.5175 24.4043L23.9648 25.2987ZM30.0155 21.8537C29.9754 21.6666 29.9545 21.4725 29.9545 21.2727H28.9545C28.9545 21.5425 28.9828 21.8067 29.0376 22.063L30.0155 21.8537ZM21.2727 24.8636C20.0933 24.8636 19.1364 25.8206 19.1364 27H20.1364C20.1364 26.3729 20.6456 25.8636 21.2727 25.8636V24.8636ZM19.1364 27C19.1364 28.1794 20.0933 29.1364 21.2727 29.1364V28.1364C20.6456 28.1364 20.1364 27.6271 20.1364 27H19.1364ZM21.2727 29.1364C22.1077 29.1364 22.8325 28.6569 23.1842 27.9556L22.2903 27.5073C22.102 27.8828 21.7157 28.1364 21.2727 28.1364V29.1364ZM23.1845 27.9551C23.328 27.668 23.4091 27.3437 23.4091 27H22.4091C22.4091 27.1848 22.3658 27.3563 22.2901 27.5078L23.1845 27.9551ZM23.4091 27C23.4091 26.6563 23.328 26.332 23.1845 26.0449L22.2901 26.4922C22.3658 26.6437 22.4091 26.8152 22.4091 27H23.4091ZM23.1842 26.0444C22.8325 25.3431 22.1077 24.8636 21.2727 24.8636V25.8636C21.7157 25.8636 22.102 26.1172 22.2903 26.4927L23.1842 26.0444ZM32.7273 30.5909C31.8913 30.5909 31.1674 31.0705 30.8158 31.7717L31.7097 32.22C31.898 31.8444 32.2836 31.5909 32.7273 31.5909V30.5909ZM30.8155 31.7722C30.672 32.0592 30.5909 32.3835 30.5909 32.7273H31.5909C31.5909 32.5425 31.6342 32.3709 31.7099 32.2194L30.8155 31.7722ZM30.5909 32.7273C30.5909 33.9067 31.5479 34.8636 32.7273 34.8636V33.8636C32.1001 33.8636 31.5909 33.3544 31.5909 32.7273H30.5909ZM32.7273 34.8636C33.9067 34.8636 34.8636 33.9067 34.8636 32.7273H33.8636C33.8636 33.3544 33.3544 33.8636 32.7273 33.8636V34.8636ZM34.8636 32.7273C34.8636 31.5479 33.9067 30.5909 32.7273 30.5909V31.5909C33.3544 31.5909 33.8636 32.1001 33.8636 32.7273H34.8636Z" fill="#0C1319"/>
</svg>
