<svg width="181" height="47" viewBox="0 0 181 47" fill="none" xmlns="http://www.w3.org/2000/svg">
<path d="M18.7476 27.318C18.7476 27.318 17.4596 27.686 15.8496 27.686C14.9296 27.686 14.2856 27.318 14.2856 26.168V19.544H19.0696V12H14.2856V4.962L3.70561 7.768V12.23L0.163605 13.196V19.544H3.70561V27.594C3.70561 32.838 6.14361 35.828 12.8136 35.828C15.2516 35.828 17.6896 35.506 18.9776 35L18.7476 27.318ZM44.0112 27.364C41.3432 28.054 37.8932 28.56 34.9032 28.56C31.6832 28.56 31.0852 27.318 31.1312 25.984H44.6552C44.7932 24.788 44.8392 23.5 44.8392 22.442C44.8392 16.324 43.0912 11.172 33.8452 11.172C25.1052 11.172 21.5172 15.082 21.5172 23.5C21.5172 31.872 24.5532 35.828 33.9832 35.828C36.8352 35.828 41.3432 35.414 44.2872 34.172L44.0112 27.364ZM33.5692 18.21C35.2252 18.21 35.6392 19.314 35.5012 21.384H31.1312C31.0392 19.084 31.7752 18.21 33.5692 18.21ZM60.0985 26.996C58.9485 26.996 58.3505 26.582 58.3505 25.616V0.499997H47.7705V28.836C47.7705 33.666 50.7605 35.506 55.4525 35.506C57.7985 35.506 60.0985 35 60.0985 35V26.996ZM84.7673 27.364C82.0993 28.054 78.6493 28.56 75.6593 28.56C72.4393 28.56 71.8413 27.318 71.8873 25.984H85.4113C85.5493 24.788 85.5953 23.5 85.5953 22.442C85.5953 16.324 83.8473 11.172 74.6013 11.172C65.8613 11.172 62.2733 15.082 62.2733 23.5C62.2733 31.872 65.3093 35.828 74.7393 35.828C77.5913 35.828 82.0993 35.414 85.0433 34.172L84.7673 27.364ZM74.3253 18.21C75.9813 18.21 76.3953 19.314 76.2573 21.384H71.8873C71.7953 19.084 72.5313 18.21 74.3253 18.21ZM99.1066 46.5V34.908C100.579 35.46 102.143 35.828 103.799 35.828C109.779 35.828 112.999 32.7 112.999 23.5C112.999 14.3 109.779 11.172 103.799 11.172C101.269 11.172 98.9226 12 96.7146 13.242L95.9786 12H88.5266V46.5H99.1066ZM102.603 23.5C102.603 27.318 102.097 28.146 100.763 28.146C100.073 28.146 99.4286 27.916 99.1066 27.732V19.268C99.4286 19.084 100.073 18.854 100.763 18.854C102.097 18.854 102.603 19.682 102.603 23.5ZM159.653 11.632C159.009 11.31 158.089 11.172 156.709 11.172C154.639 11.172 152.109 12 150.453 13.242L149.717 12H142.265V35H152.845V21.246C153.765 20.786 155.513 20.234 157.169 20.234C158.549 20.234 159.423 20.464 159.423 20.464L159.653 11.632ZM180.014 27.318C180.014 27.318 178.726 27.686 177.116 27.686C176.196 27.686 175.552 27.318 175.552 26.168V19.544H180.336V12H175.552V4.962L164.972 7.768V12.23L161.43 13.196V19.544H164.972V27.594C164.972 32.838 167.41 35.828 174.08 35.828C176.518 35.828 178.956 35.506 180.244 35L180.014 27.318Z" fill="white"/>
<path d="M139.304 23.5C139.304 14.76 136.176 11.172 127.344 11.172C118.512 11.172 115.384 14.76 115.384 23.5C115.384 32.24 118.512 35.828 127.344 35.828C136.176 35.828 139.304 32.24 139.304 23.5ZM125.504 23.5C125.504 19.636 125.872 18.9 127.344 18.9C128.77 18.9 129.184 19.636 129.184 23.5C129.184 27.364 128.77 28.1 127.344 28.1C125.872 28.1 125.504 27.364 125.504 23.5Z" fill="#0AFFEF"/>
</svg>
