<svg width="22" height="15" viewBox="0 0 22 15" fill="none" xmlns="http://www.w3.org/2000/svg">
<path fill-rule="evenodd" clip-rule="evenodd" d="M19.3765 13.153H2.62349C2.49779 13.153 2.39156 13.0472 2.39156 12.9211V3.03261L10.6189 8.41749C10.7349 8.4931 10.8671 8.5316 10.9998 8.5316C11.1347 8.5316 11.2693 8.49264 11.3862 8.41471L19.6084 2.92778V12.9211C19.6084 13.0472 19.5022 13.153 19.3765 13.153ZM17.9042 2.39156L10.9965 7.00181L3.95336 2.39156H17.9042ZM20.1692 1.21569C19.9336 1.08257 19.666 1 19.3765 1H2.62349C1.72871 1 1 1.72825 1 2.62349V12.9211C1 13.8163 1.72871 14.5445 2.62349 14.5445H19.3765C20.2713 14.5445 21 13.8163 21 12.9211V2.62349C21 2.1601 20.8019 1.74402 20.4893 1.44762C20.4044 1.33769 20.2931 1.25883 20.1692 1.21569Z" fill="#0F1A23"/>
<path d="M2.39156 3.03261L2.52847 2.82343L2.14156 2.57019V3.03261H2.39156ZM10.6189 8.41749L10.482 8.62667L10.4824 8.62691L10.6189 8.41749ZM11.3862 8.41471L11.5248 8.62272L11.5249 8.62266L11.3862 8.41471ZM19.6084 2.92778H19.8584V2.46039L19.4697 2.71983L19.6084 2.92778ZM17.9042 2.39156L18.043 2.5995L18.7292 2.14156H17.9042V2.39156ZM10.9965 7.00181L10.8596 7.21098L10.9979 7.30148L11.1353 7.20975L10.9965 7.00181ZM3.95336 2.39156V2.14156H3.11495L3.81644 2.60074L3.95336 2.39156ZM20.1692 1.21569L20.0463 1.43336L20.0658 1.4444L20.087 1.45178L20.1692 1.21569ZM20.4893 1.44762L20.2914 1.60041L20.3032 1.61573L20.3173 1.62904L20.4893 1.44762ZM19.3765 12.903H2.62349V13.403H19.3765V12.903ZM2.62349 12.903C2.63179 12.903 2.63603 12.9064 2.63704 12.9074C2.63811 12.9085 2.64156 12.9128 2.64156 12.9211H2.14156C2.14156 13.1856 2.36004 13.403 2.62349 13.403V12.903ZM2.64156 12.9211V3.03261H2.14156V12.9211H2.64156ZM2.25465 3.24179L10.482 8.62667L10.7559 8.20831L2.52847 2.82343L2.25465 3.24179ZM10.4824 8.62691C10.6389 8.72895 10.8185 8.7816 10.9998 8.7816V8.2816C10.9157 8.2816 10.8309 8.25725 10.7555 8.20807L10.4824 8.62691ZM10.9998 8.7816C11.183 8.7816 11.3659 8.72866 11.5248 8.62272L11.2475 8.2067C11.1726 8.25662 11.0865 8.2816 10.9998 8.2816V8.7816ZM11.5249 8.62266L19.7472 3.13573L19.4697 2.71983L11.2474 8.20676L11.5249 8.62266ZM19.3584 2.92778V12.9211H19.8584V2.92778H19.3584ZM19.3584 12.9211C19.3584 12.9128 19.3619 12.9085 19.363 12.9074C19.364 12.9064 19.3682 12.903 19.3765 12.903V13.403C19.64 13.403 19.8584 13.1856 19.8584 12.9211H19.3584ZM17.7655 2.18362L10.8577 6.79387L11.1353 7.20975L18.043 2.5995L17.7655 2.18362ZM11.1334 6.79264L4.09028 2.18239L3.81644 2.60074L10.8596 7.21098L11.1334 6.79264ZM3.95336 2.64156H17.9042V2.14156H3.95336V2.64156ZM20.2922 0.998028C20.0243 0.846692 19.7147 0.75 19.3765 0.75V1.25C19.6172 1.25 19.8429 1.31844 20.0463 1.43336L20.2922 0.998028ZM19.3765 0.75H2.62349V1.25H19.3765V0.75ZM2.62349 0.75C1.59069 0.75 0.75 1.59013 0.75 2.62349H1.25C1.25 1.86637 1.86674 1.25 2.62349 1.25V0.75ZM0.75 2.62349V12.9211H1.25V2.62349H0.75ZM0.75 12.9211C0.75 13.9544 1.59069 14.7945 2.62349 14.7945V14.2945C1.86674 14.2945 1.25 13.6782 1.25 12.9211H0.75ZM2.62349 14.7945H19.3765V14.2945H2.62349V14.7945ZM19.3765 14.7945C20.4093 14.7945 21.25 13.9544 21.25 12.9211H20.75C20.75 13.6782 20.1333 14.2945 19.3765 14.2945V14.7945ZM21.25 12.9211V2.62349H20.75V12.9211H21.25ZM21.25 2.62349C21.25 2.08689 21.0203 1.60655 20.6613 1.26619L20.3173 1.62904C20.5836 1.88149 20.75 2.23331 20.75 2.62349H21.25ZM20.6872 1.29483C20.5727 1.14652 20.4212 1.03871 20.2515 0.979604L20.087 1.45178C20.165 1.47895 20.2362 1.52885 20.2914 1.60041L20.6872 1.29483Z" fill="#0F1A23"/>
</svg>
