<svg width="17" height="22" viewBox="0 0 17 22" fill="none" xmlns="http://www.w3.org/2000/svg">
<path fill-rule="evenodd" clip-rule="evenodd" d="M7.76834 15.2989V16.0777C7.76834 16.4409 8.06193 16.734 8.42466 16.734C8.78694 16.734 9.08097 16.4409 9.08097 16.0777V15.2945C9.48307 15.0626 9.75785 14.6338 9.75785 14.1394C9.75785 13.4043 9.15973 12.8049 8.42466 12.8049C7.68915 12.8049 7.09103 13.4043 7.09103 14.1394C7.09103 14.6251 7.35355 15.0626 7.76834 15.2989ZM14.5231 18.1473C14.5231 18.3048 14.4864 19.7093 13.2114 19.7618C11.3085 19.8362 3.74383 19.7706 3.64976 19.7662C3.53293 19.7662 2.50821 19.7093 2.31263 17.876V10.2715H14.5231V18.1473ZM8.3984 2.31263C12.0847 2.31263 12.296 5.37105 12.3078 5.6992V8.9589H4.4894L4.48896 5.8786C4.4929 5.72983 4.61979 2.31263 8.3984 2.31263ZM15.1794 8.9589H13.6205L13.62 5.6817C13.5789 4.0628 12.4343 1 8.3984 1C4.36208 1 3.2179 4.16781 3.17677 5.8611V8.9589H1.65631C1.29403 8.9589 1 9.25205 1 9.61521V17.911C1 17.9329 1.00131 17.9548 1.0035 17.9766C1.25684 20.5013 2.87356 21.1269 3.65501 21.0788C3.85409 21.0832 6.90551 21.1094 9.59814 21.1094C11.1379 21.1094 12.5607 21.1007 13.2647 21.0744C15.298 20.9913 15.8357 19.123 15.8357 18.1473V9.61521C15.8357 9.25205 15.5417 8.9589 15.1794 8.9589Z" fill="#0F1A23"/>
<path d="M9.08097 15.2945L8.95607 15.0779L8.83097 15.1501V15.2945H9.08097ZM13.2114 19.7618L13.2211 20.0116L13.2217 20.0116L13.2114 19.7618ZM3.64976 19.7662L3.66138 19.5162H3.64976V19.7662ZM2.31263 17.876H2.06263V17.8893L2.06404 17.9025L2.31263 17.876ZM2.31263 10.2715V10.0215H2.06263V10.2715H2.31263ZM14.5231 10.2715H14.7731V10.0215H14.5231V10.2715ZM12.3078 5.6992H12.558L12.5577 5.69021L12.3078 5.6992ZM12.3078 8.9589V9.2089H12.5578V8.9589H12.3078ZM4.4894 8.9589L4.2394 8.95893L4.23944 9.2089H4.4894V8.9589ZM4.48896 5.8786L4.23896 5.87198L4.23896 5.87863L4.48896 5.8786ZM13.6205 8.9589L13.3705 8.95893L13.3705 9.20889H13.6205V8.9589ZM13.62 5.6817L13.8701 5.68167L13.87 5.67535L13.62 5.6817ZM3.17677 5.8611L2.92677 5.85502V5.8611H3.17677ZM3.17677 8.9589V9.20889H3.42677V8.9589H3.17677ZM1.0035 17.9766L0.754741 18.0015L0.75475 18.0016L1.0035 17.9766ZM3.65501 21.0788L3.6605 20.8289L3.65006 20.8286L3.63964 20.8293L3.65501 21.0788ZM13.2647 21.0744L13.2741 21.3243L13.275 21.3242L13.2647 21.0744ZM7.51834 15.2989V16.0777H8.01834V15.2989H7.51834ZM7.51834 16.0777C7.51834 16.579 7.92397 16.984 8.42466 16.984V16.484C8.1999 16.484 8.01834 16.3027 8.01834 16.0777H7.51834ZM8.42466 16.984C8.92479 16.984 9.33097 16.5792 9.33097 16.0777H8.83097C8.83097 16.3026 8.64909 16.484 8.42466 16.484V16.984ZM9.33097 16.0777V15.2945H8.83097V16.0777H9.33097ZM9.20587 15.5111C9.67956 15.2379 10.0078 14.7297 10.0078 14.1394H9.50785C9.50785 14.5379 9.28658 14.8873 8.95607 15.0779L9.20587 15.5111ZM10.0078 14.1394C10.0078 13.2666 9.29812 12.5549 8.42466 12.5549V13.0549C9.02134 13.0549 9.50785 13.5421 9.50785 14.1394H10.0078ZM8.42466 12.5549C7.55081 12.5549 6.84103 13.2665 6.84103 14.1394H7.34103C7.34103 13.5421 7.82749 13.0549 8.42466 13.0549V12.5549ZM6.84103 14.1394C6.84103 14.717 7.15357 15.2364 7.6446 15.5161L7.89208 15.0817C7.55353 14.8888 7.34103 14.5332 7.34103 14.1394H6.84103ZM14.2731 18.1473C14.2731 18.2143 14.2642 18.5627 14.1171 18.892C14.0448 19.0538 13.9432 19.2019 13.8012 19.3119C13.6618 19.4198 13.471 19.5009 13.2011 19.512L13.2217 20.0116C13.5893 19.9965 13.8812 19.8823 14.1073 19.7072C14.3308 19.5341 14.4773 19.3115 14.5736 19.0959C14.7637 18.6704 14.7731 18.2378 14.7731 18.1473H14.2731ZM13.2016 19.512C12.2568 19.5489 9.89627 19.5512 7.75316 19.5435C6.68315 19.5397 5.66961 19.5334 4.91772 19.5278C4.54177 19.525 4.23129 19.5224 4.01192 19.5203C3.90222 19.5193 3.8154 19.5184 3.75461 19.5177C3.72419 19.5173 3.70046 19.517 3.68371 19.5168C3.66413 19.5165 3.65923 19.5164 3.66137 19.5165L3.63814 20.0159C3.73938 20.0206 11.3112 20.0863 13.2211 20.0116L13.2016 19.512ZM3.64976 19.5162C3.62688 19.5162 3.40548 19.51 3.16975 19.3157C2.93781 19.1245 2.65406 18.7197 2.56122 17.8495L2.06404 17.9025C2.16678 18.8656 2.49318 19.4059 2.8517 19.7015C3.20644 19.9939 3.5558 20.0162 3.64976 20.0162V19.5162ZM2.56263 17.876V10.2715H2.06263V17.876H2.56263ZM2.31263 10.5215H14.5231V10.0215H2.31263V10.5215ZM14.2731 10.2715V18.1473H14.7731V10.2715H14.2731ZM8.3984 2.56263C10.1579 2.56263 11.0521 3.2851 11.5204 4.01753C12.0002 4.76794 12.0527 5.56186 12.058 5.7082L12.5577 5.69021C12.5511 5.5084 12.4921 4.60903 11.9417 3.74819C11.3798 2.86937 10.3252 2.06263 8.3984 2.06263V2.56263ZM12.0578 5.6992V8.9589H12.5578V5.6992H12.0578ZM12.3078 8.7089H4.4894V9.2089H12.3078V8.7089ZM4.7394 8.95886L4.73896 5.87856L4.23896 5.87863L4.2394 8.95893L4.7394 8.95886ZM4.73888 5.88521C4.74045 5.82567 4.77117 4.98405 5.24462 4.16493C5.70694 3.36509 6.60316 2.56263 8.3984 2.56263V2.06263C6.41504 2.06263 5.3585 2.96877 4.81173 3.91472C4.27611 4.8414 4.24141 5.78276 4.23905 5.87198L4.73888 5.88521ZM15.1794 8.7089H13.6205V9.20889H15.1794V8.7089ZM13.8705 8.95886L13.87 5.68167L13.37 5.68174L13.3705 8.95893L13.8705 8.95886ZM13.87 5.67535C13.8482 4.82009 13.5374 3.59319 12.7004 2.57501C11.8552 1.54687 10.4881 0.75 8.3984 0.75V1.25C10.3446 1.25 11.5677 1.98453 12.3141 2.89252C13.0687 3.81046 13.3507 4.92441 13.3701 5.68805L13.87 5.67535ZM8.3984 0.75C6.30527 0.75 4.93748 1.57576 4.09349 2.64024C3.25789 3.69415 2.94847 4.96485 2.92685 5.85502L3.4267 5.86717C3.44621 5.06405 3.72944 3.9042 4.48529 2.95088C5.23275 2.00814 6.45521 1.25 8.3984 1.25V0.75ZM2.92677 5.8611V8.9589H3.42677V5.8611H2.92677ZM3.17677 8.7089H1.65631V9.20889H3.17677V8.7089ZM1.65631 8.7089C1.15617 8.7089 0.75 9.11376 0.75 9.61521H1.25C1.25 9.39034 1.43188 9.20889 1.65631 9.20889V8.7089ZM0.75 9.61521V17.911H1.25V9.61521H0.75ZM0.75 17.911C0.75 17.9428 0.751905 17.9732 0.754741 18.0015L1.25226 17.9518C1.25072 17.9364 1.25 17.923 1.25 17.911H0.75ZM0.75475 18.0016C1.02088 20.6537 2.74876 21.3851 3.67038 21.3283L3.63964 20.8293C2.99835 20.8688 1.49279 20.3488 1.25225 17.9517L0.75475 18.0016ZM3.64951 21.3288C3.85165 21.3332 6.90556 21.3594 9.59814 21.3594V20.8594C6.90546 20.8594 3.85653 20.8332 3.6605 20.8289L3.64951 21.3288ZM9.59814 21.3594C11.1367 21.3594 12.5645 21.3507 13.2741 21.3243L13.2554 20.8246C12.557 20.8507 11.139 20.8594 9.59814 20.8594V21.3594ZM13.275 21.3242C14.381 21.279 15.0945 20.7417 15.5225 20.0816C15.943 19.433 16.0857 18.6719 16.0857 18.1473H15.5857C15.5857 18.5983 15.4597 19.2593 15.1029 19.8096C14.7537 20.3483 14.1818 20.7867 13.2545 20.8246L13.275 21.3242ZM16.0857 18.1473V9.61521H15.5857V18.1473H16.0857ZM16.0857 9.61521C16.0857 9.11376 15.6796 8.7089 15.1794 8.7089V9.20889C15.4039 9.20889 15.5857 9.39034 15.5857 9.61521H16.0857Z" fill="#0F1A23"/>
</svg>
