<svg width="315" height="50" viewBox="0 0 315 50" fill="none" xmlns="http://www.w3.org/2000/svg">
<path d="M1 6C1 3.23858 3.23858 1 6 1H309C311.761 1 314 3.23857 314 6V44C314 46.7614 311.761 49 309 49H6C3.23858 49 1 46.7614 1 44V6Z" stroke="#3B5998" stroke-width="2"/>
<path d="M70.638 22.01C70.278 21.542 69.822 21.182 69.27 20.93C68.718 20.678 68.148 20.552 67.56 20.552C66.84 20.552 66.186 20.69 65.598 20.966C65.022 21.23 64.524 21.596 64.104 22.064C63.696 22.532 63.378 23.084 63.15 23.72C62.922 24.344 62.808 25.016 62.808 25.736C62.808 26.408 62.916 27.044 63.132 27.644C63.348 28.244 63.66 28.772 64.068 29.228C64.476 29.684 64.974 30.044 65.562 30.308C66.15 30.572 66.816 30.704 67.56 30.704C68.292 30.704 68.934 30.554 69.486 30.254C70.038 29.954 70.506 29.534 70.89 28.994L72.348 30.092C72.252 30.224 72.084 30.416 71.844 30.668C71.604 30.908 71.286 31.154 70.89 31.406C70.494 31.646 70.014 31.856 69.45 32.036C68.898 32.228 68.256 32.324 67.524 32.324C66.516 32.324 65.604 32.132 64.788 31.748C63.984 31.364 63.294 30.86 62.718 30.236C62.154 29.612 61.722 28.91 61.422 28.13C61.122 27.338 60.972 26.54 60.972 25.736C60.972 24.752 61.134 23.846 61.458 23.018C61.782 22.178 62.232 21.458 62.808 20.858C63.396 20.246 64.098 19.772 64.914 19.436C65.73 19.1 66.63 18.932 67.614 18.932C68.454 18.932 69.276 19.094 70.08 19.418C70.896 19.742 71.562 20.24 72.078 20.912L70.638 22.01ZM75.3378 27.734C75.3378 28.166 75.4038 28.568 75.5358 28.94C75.6678 29.3 75.8538 29.612 76.0938 29.876C76.3338 30.128 76.6278 30.332 76.9758 30.488C77.3238 30.632 77.7138 30.704 78.1458 30.704C78.5778 30.704 78.9678 30.632 79.3158 30.488C79.6638 30.332 79.9578 30.128 80.1978 29.876C80.4378 29.612 80.6238 29.3 80.7558 28.94C80.8878 28.568 80.9538 28.166 80.9538 27.734C80.9538 27.302 80.8878 26.906 80.7558 26.546C80.6238 26.174 80.4378 25.862 80.1978 25.61C79.9578 25.346 79.6638 25.142 79.3158 24.998C78.9678 24.842 78.5778 24.764 78.1458 24.764C77.7138 24.764 77.3238 24.842 76.9758 24.998C76.6278 25.142 76.3338 25.346 76.0938 25.61C75.8538 25.862 75.6678 26.174 75.5358 26.546C75.4038 26.906 75.3378 27.302 75.3378 27.734ZM73.6098 27.734C73.6098 27.11 73.7238 26.528 73.9518 25.988C74.1918 25.448 74.5158 24.974 74.9238 24.566C75.3318 24.158 75.8118 23.84 76.3638 23.612C76.9158 23.372 77.5098 23.252 78.1458 23.252C78.7818 23.252 79.3758 23.372 79.9278 23.612C80.4798 23.84 80.9598 24.158 81.3678 24.566C81.7758 24.974 82.0938 25.448 82.3218 25.988C82.5618 26.528 82.6818 27.11 82.6818 27.734C82.6818 28.358 82.5618 28.946 82.3218 29.498C82.0938 30.038 81.7758 30.512 81.3678 30.92C80.9598 31.316 80.4798 31.634 79.9278 31.874C79.3758 32.102 78.7818 32.216 78.1458 32.216C77.5098 32.216 76.9158 32.102 76.3638 31.874C75.8118 31.634 75.3318 31.316 74.9238 30.92C74.5158 30.512 74.1918 30.038 73.9518 29.498C73.7238 28.946 73.6098 28.358 73.6098 27.734ZM84.7113 23.468H86.3313V24.782H86.3673C86.5713 24.326 86.9253 23.96 87.4293 23.684C87.9333 23.396 88.5153 23.252 89.1753 23.252C89.5833 23.252 89.9733 23.318 90.3453 23.45C90.7293 23.57 91.0593 23.762 91.3353 24.026C91.6233 24.29 91.8513 24.632 92.0193 25.052C92.1873 25.46 92.2713 25.946 92.2713 26.51V32H90.6513V26.96C90.6513 26.564 90.5973 26.228 90.4893 25.952C90.3813 25.664 90.2373 25.436 90.0573 25.268C89.8773 25.088 89.6673 24.962 89.4273 24.89C89.1993 24.806 88.9593 24.764 88.7073 24.764C88.3713 24.764 88.0593 24.818 87.7713 24.926C87.4833 25.034 87.2313 25.208 87.0153 25.448C86.7993 25.676 86.6313 25.97 86.5113 26.33C86.3913 26.69 86.3313 27.116 86.3313 27.608V32H84.7113V23.468ZM99.2853 24.872H96.9633V28.742C96.9633 28.982 96.9693 29.222 96.9813 29.462C96.9933 29.69 97.0353 29.9 97.1073 30.092C97.1913 30.272 97.3113 30.422 97.4673 30.542C97.6353 30.65 97.8753 30.704 98.1873 30.704C98.3793 30.704 98.5773 30.686 98.7813 30.65C98.9853 30.614 99.1713 30.548 99.3393 30.452V31.928C99.1473 32.036 98.8953 32.108 98.5833 32.144C98.2833 32.192 98.0493 32.216 97.8813 32.216C97.2573 32.216 96.7713 32.132 96.4233 31.964C96.0873 31.784 95.8353 31.556 95.6673 31.28C95.5113 31.004 95.4153 30.698 95.3793 30.362C95.3553 30.014 95.3433 29.666 95.3433 29.318V24.872H93.4713V23.468H95.3433V21.074H96.9633V23.468H99.2853V24.872ZM101.501 23.468H103.121V32H101.501V23.468ZM101.123 20.408C101.123 20.084 101.237 19.808 101.465 19.58C101.705 19.34 101.987 19.22 102.311 19.22C102.635 19.22 102.911 19.34 103.139 19.58C103.379 19.808 103.499 20.084 103.499 20.408C103.499 20.732 103.379 21.014 103.139 21.254C102.911 21.482 102.635 21.596 102.311 21.596C101.987 21.596 101.705 21.482 101.465 21.254C101.237 21.014 101.123 20.732 101.123 20.408ZM105.7 23.468H107.32V24.782H107.356C107.56 24.326 107.914 23.96 108.418 23.684C108.922 23.396 109.504 23.252 110.164 23.252C110.572 23.252 110.962 23.318 111.334 23.45C111.718 23.57 112.048 23.762 112.324 24.026C112.612 24.29 112.84 24.632 113.008 25.052C113.176 25.46 113.26 25.946 113.26 26.51V32H111.64V26.96C111.64 26.564 111.586 26.228 111.478 25.952C111.37 25.664 111.226 25.436 111.046 25.268C110.866 25.088 110.656 24.962 110.416 24.89C110.188 24.806 109.948 24.764 109.696 24.764C109.36 24.764 109.048 24.818 108.76 24.926C108.472 25.034 108.22 25.208 108.004 25.448C107.788 25.676 107.62 25.97 107.5 26.33C107.38 26.69 107.32 27.116 107.32 27.608V32H105.7V23.468ZM123.262 32H121.642V30.686H121.606C121.402 31.142 121.048 31.514 120.544 31.802C120.04 32.078 119.458 32.216 118.798 32.216C118.378 32.216 117.982 32.15 117.61 32.018C117.238 31.898 116.908 31.706 116.62 31.442C116.344 31.178 116.122 30.842 115.954 30.434C115.786 30.014 115.702 29.522 115.702 28.958V23.468H117.322V28.508C117.322 28.904 117.376 29.246 117.484 29.534C117.592 29.81 117.736 30.038 117.916 30.218C118.096 30.386 118.3 30.512 118.528 30.596C118.768 30.668 119.014 30.704 119.266 30.704C119.602 30.704 119.914 30.65 120.202 30.542C120.49 30.434 120.742 30.266 120.958 30.038C121.174 29.798 121.342 29.498 121.462 29.138C121.582 28.778 121.642 28.352 121.642 27.86V23.468H123.262V32ZM126.927 28.328C126.927 28.7 127.005 29.042 127.161 29.354C127.329 29.654 127.545 29.912 127.809 30.128C128.073 30.344 128.379 30.512 128.727 30.632C129.075 30.752 129.435 30.812 129.807 30.812C130.311 30.812 130.749 30.698 131.121 30.47C131.493 30.23 131.835 29.918 132.147 29.534L133.371 30.47C132.471 31.634 131.211 32.216 129.591 32.216C128.919 32.216 128.307 32.102 127.755 31.874C127.215 31.646 126.753 31.334 126.369 30.938C125.997 30.53 125.709 30.056 125.505 29.516C125.301 28.964 125.199 28.37 125.199 27.734C125.199 27.098 125.307 26.51 125.523 25.97C125.751 25.418 126.057 24.944 126.441 24.548C126.837 24.14 127.305 23.822 127.845 23.594C128.385 23.366 128.973 23.252 129.609 23.252C130.365 23.252 131.001 23.384 131.517 23.648C132.045 23.912 132.477 24.26 132.813 24.692C133.149 25.112 133.389 25.592 133.533 26.132C133.689 26.66 133.767 27.2 133.767 27.752V28.328H126.927ZM132.039 27.032C132.027 26.672 131.967 26.342 131.859 26.042C131.763 25.742 131.613 25.484 131.409 25.268C131.205 25.04 130.947 24.866 130.635 24.746C130.335 24.614 129.981 24.548 129.573 24.548C129.177 24.548 128.811 24.626 128.475 24.782C128.151 24.926 127.875 25.118 127.647 25.358C127.419 25.598 127.239 25.868 127.107 26.168C126.987 26.456 126.927 26.744 126.927 27.032H132.039ZM139.689 23.468H141.507L143.433 29.84H143.469L145.503 23.468H147.213L149.373 29.84H149.409L151.245 23.468H152.955L150.201 32H148.563L146.313 25.628H146.277L144.243 32H142.497L139.689 23.468ZM154.499 23.468H156.119V32H154.499V23.468ZM154.121 20.408C154.121 20.084 154.235 19.808 154.463 19.58C154.703 19.34 154.985 19.22 155.309 19.22C155.633 19.22 155.909 19.34 156.137 19.58C156.377 19.808 156.497 20.084 156.497 20.408C156.497 20.732 156.377 21.014 156.137 21.254C155.909 21.482 155.633 21.596 155.309 21.596C154.985 21.596 154.703 21.482 154.463 21.254C154.235 21.014 154.121 20.732 154.121 20.408ZM163.27 24.872H160.948V28.742C160.948 28.982 160.954 29.222 160.966 29.462C160.978 29.69 161.02 29.9 161.092 30.092C161.176 30.272 161.296 30.422 161.452 30.542C161.62 30.65 161.86 30.704 162.172 30.704C162.364 30.704 162.562 30.686 162.766 30.65C162.97 30.614 163.156 30.548 163.324 30.452V31.928C163.132 32.036 162.88 32.108 162.568 32.144C162.268 32.192 162.034 32.216 161.866 32.216C161.242 32.216 160.756 32.132 160.408 31.964C160.072 31.784 159.82 31.556 159.652 31.28C159.496 31.004 159.4 30.698 159.364 30.362C159.34 30.014 159.328 29.666 159.328 29.318V24.872H157.456V23.468H159.328V21.074H160.948V23.468H163.27V24.872ZM165.36 18.392H166.98V24.782H167.016C167.22 24.326 167.574 23.96 168.078 23.684C168.582 23.396 169.164 23.252 169.824 23.252C170.232 23.252 170.622 23.318 170.994 23.45C171.378 23.57 171.708 23.762 171.984 24.026C172.272 24.29 172.5 24.632 172.668 25.052C172.836 25.46 172.92 25.946 172.92 26.51V32H171.3V26.96C171.3 26.564 171.246 26.228 171.138 25.952C171.03 25.664 170.886 25.436 170.706 25.268C170.526 25.088 170.316 24.962 170.076 24.89C169.848 24.806 169.608 24.764 169.356 24.764C169.02 24.764 168.708 24.818 168.42 24.926C168.132 25.034 167.88 25.208 167.664 25.448C167.448 25.676 167.28 25.97 167.16 26.33C167.04 26.69 166.98 27.116 166.98 27.608V32H165.36V18.392ZM181.001 24.872H179.165V23.468H181.001V21.56C181.001 20.42 181.217 19.574 181.649 19.022C182.093 18.458 182.849 18.176 183.917 18.176C184.097 18.176 184.283 18.182 184.475 18.194C184.679 18.206 184.895 18.242 185.123 18.302L184.943 19.742C184.787 19.682 184.637 19.64 184.493 19.616C184.349 19.592 184.193 19.58 184.025 19.58C183.725 19.58 183.485 19.628 183.305 19.724C183.125 19.808 182.981 19.934 182.873 20.102C182.777 20.27 182.711 20.474 182.675 20.714C182.651 20.942 182.639 21.206 182.639 21.506V23.468H184.565V24.872H182.621V32H181.001V24.872ZM186.402 24.512C186.858 24.092 187.386 23.78 187.986 23.576C188.586 23.36 189.186 23.252 189.786 23.252C190.41 23.252 190.944 23.33 191.388 23.486C191.844 23.642 192.216 23.852 192.504 24.116C192.792 24.38 193.002 24.686 193.134 25.034C193.278 25.37 193.35 25.724 193.35 26.096V30.452C193.35 30.752 193.356 31.028 193.368 31.28C193.38 31.532 193.398 31.772 193.422 32H191.982C191.946 31.568 191.928 31.136 191.928 30.704H191.892C191.532 31.256 191.106 31.646 190.614 31.874C190.122 32.102 189.552 32.216 188.904 32.216C188.508 32.216 188.13 32.162 187.77 32.054C187.41 31.946 187.092 31.784 186.816 31.568C186.552 31.352 186.342 31.088 186.186 30.776C186.03 30.452 185.952 30.08 185.952 29.66C185.952 29.108 186.072 28.646 186.312 28.274C186.564 27.902 186.9 27.602 187.32 27.374C187.752 27.134 188.25 26.966 188.814 26.87C189.39 26.762 190.002 26.708 190.65 26.708H191.838V26.348C191.838 26.132 191.796 25.916 191.712 25.7C191.628 25.484 191.502 25.292 191.334 25.124C191.166 24.944 190.956 24.806 190.704 24.71C190.452 24.602 190.152 24.548 189.804 24.548C189.492 24.548 189.216 24.578 188.976 24.638C188.748 24.698 188.538 24.776 188.346 24.872C188.154 24.956 187.98 25.058 187.824 25.178C187.668 25.298 187.518 25.412 187.374 25.52L186.402 24.512ZM190.974 27.896C190.59 27.896 190.194 27.92 189.786 27.968C189.39 28.004 189.024 28.082 188.688 28.202C188.364 28.322 188.094 28.49 187.878 28.706C187.674 28.922 187.572 29.198 187.572 29.534C187.572 30.026 187.734 30.38 188.058 30.596C188.394 30.812 188.844 30.92 189.408 30.92C189.852 30.92 190.23 30.848 190.542 30.704C190.854 30.548 191.106 30.35 191.298 30.11C191.49 29.87 191.628 29.606 191.712 29.318C191.796 29.018 191.838 28.724 191.838 28.436V27.896H190.974ZM201.802 25.736C201.502 25.424 201.184 25.19 200.848 25.034C200.524 24.866 200.134 24.782 199.678 24.782C199.234 24.782 198.844 24.866 198.508 25.034C198.184 25.19 197.908 25.412 197.68 25.7C197.464 25.976 197.296 26.3 197.176 26.672C197.068 27.032 197.014 27.41 197.014 27.806C197.014 28.202 197.08 28.58 197.212 28.94C197.344 29.288 197.53 29.594 197.77 29.858C198.01 30.122 198.298 30.332 198.634 30.488C198.97 30.632 199.348 30.704 199.768 30.704C200.224 30.704 200.614 30.626 200.938 30.47C201.262 30.302 201.562 30.062 201.838 29.75L202.99 30.902C202.57 31.37 202.078 31.706 201.514 31.91C200.962 32.114 200.374 32.216 199.75 32.216C199.09 32.216 198.484 32.108 197.932 31.892C197.392 31.676 196.924 31.376 196.528 30.992C196.132 30.596 195.826 30.128 195.61 29.588C195.394 29.036 195.286 28.43 195.286 27.77C195.286 27.11 195.394 26.504 195.61 25.952C195.826 25.4 196.126 24.926 196.51 24.53C196.906 24.134 197.374 23.828 197.914 23.612C198.466 23.384 199.078 23.27 199.75 23.27C200.374 23.27 200.968 23.384 201.532 23.612C202.108 23.828 202.606 24.164 203.026 24.62L201.802 25.736ZM205.607 28.328C205.607 28.7 205.685 29.042 205.841 29.354C206.009 29.654 206.225 29.912 206.489 30.128C206.753 30.344 207.059 30.512 207.407 30.632C207.755 30.752 208.115 30.812 208.487 30.812C208.991 30.812 209.429 30.698 209.801 30.47C210.173 30.23 210.515 29.918 210.827 29.534L212.051 30.47C211.151 31.634 209.891 32.216 208.271 32.216C207.599 32.216 206.987 32.102 206.435 31.874C205.895 31.646 205.433 31.334 205.049 30.938C204.677 30.53 204.389 30.056 204.185 29.516C203.981 28.964 203.879 28.37 203.879 27.734C203.879 27.098 203.987 26.51 204.203 25.97C204.431 25.418 204.737 24.944 205.121 24.548C205.517 24.14 205.985 23.822 206.525 23.594C207.065 23.366 207.653 23.252 208.289 23.252C209.045 23.252 209.681 23.384 210.197 23.648C210.725 23.912 211.157 24.26 211.493 24.692C211.829 25.112 212.069 25.592 212.213 26.132C212.369 26.66 212.447 27.2 212.447 27.752V28.328H205.607ZM210.719 27.032C210.707 26.672 210.647 26.342 210.539 26.042C210.443 25.742 210.293 25.484 210.089 25.268C209.885 25.04 209.627 24.866 209.315 24.746C209.015 24.614 208.661 24.548 208.253 24.548C207.857 24.548 207.491 24.626 207.155 24.782C206.831 24.926 206.555 25.118 206.327 25.358C206.099 25.598 205.919 25.868 205.787 26.168C205.667 26.456 205.607 26.744 205.607 27.032H210.719ZM214.385 18.392H216.005V24.692H216.041C216.329 24.248 216.743 23.9 217.283 23.648C217.823 23.384 218.399 23.252 219.011 23.252C219.671 23.252 220.265 23.366 220.793 23.594C221.333 23.822 221.789 24.14 222.161 24.548C222.545 24.944 222.839 25.418 223.043 25.97C223.247 26.51 223.349 27.098 223.349 27.734C223.349 28.37 223.247 28.958 223.043 29.498C222.839 30.038 222.545 30.512 222.161 30.92C221.789 31.328 221.333 31.646 220.793 31.874C220.265 32.102 219.671 32.216 219.011 32.216C218.435 32.216 217.871 32.09 217.319 31.838C216.779 31.586 216.353 31.232 216.041 30.776H216.005V32H214.385V18.392ZM218.813 30.704C219.245 30.704 219.635 30.632 219.983 30.488C220.331 30.332 220.625 30.128 220.865 29.876C221.105 29.612 221.291 29.3 221.423 28.94C221.555 28.568 221.621 28.166 221.621 27.734C221.621 27.302 221.555 26.906 221.423 26.546C221.291 26.174 221.105 25.862 220.865 25.61C220.625 25.346 220.331 25.142 219.983 24.998C219.635 24.842 219.245 24.764 218.813 24.764C218.381 24.764 217.991 24.842 217.643 24.998C217.295 25.142 217.001 25.346 216.761 25.61C216.521 25.862 216.335 26.174 216.203 26.546C216.071 26.906 216.005 27.302 216.005 27.734C216.005 28.166 216.071 28.568 216.203 28.94C216.335 29.3 216.521 29.612 216.761 29.876C217.001 30.128 217.295 30.332 217.643 30.488C217.991 30.632 218.381 30.704 218.813 30.704ZM226.703 27.734C226.703 28.166 226.769 28.568 226.901 28.94C227.033 29.3 227.219 29.612 227.459 29.876C227.699 30.128 227.993 30.332 228.341 30.488C228.689 30.632 229.079 30.704 229.511 30.704C229.943 30.704 230.333 30.632 230.681 30.488C231.029 30.332 231.323 30.128 231.563 29.876C231.803 29.612 231.989 29.3 232.121 28.94C232.253 28.568 232.319 28.166 232.319 27.734C232.319 27.302 232.253 26.906 232.121 26.546C231.989 26.174 231.803 25.862 231.563 25.61C231.323 25.346 231.029 25.142 230.681 24.998C230.333 24.842 229.943 24.764 229.511 24.764C229.079 24.764 228.689 24.842 228.341 24.998C227.993 25.142 227.699 25.346 227.459 25.61C227.219 25.862 227.033 26.174 226.901 26.546C226.769 26.906 226.703 27.302 226.703 27.734ZM224.975 27.734C224.975 27.11 225.089 26.528 225.317 25.988C225.557 25.448 225.881 24.974 226.289 24.566C226.697 24.158 227.177 23.84 227.729 23.612C228.281 23.372 228.875 23.252 229.511 23.252C230.147 23.252 230.741 23.372 231.293 23.612C231.845 23.84 232.325 24.158 232.733 24.566C233.141 24.974 233.459 25.448 233.687 25.988C233.927 26.528 234.047 27.11 234.047 27.734C234.047 28.358 233.927 28.946 233.687 29.498C233.459 30.038 233.141 30.512 232.733 30.92C232.325 31.316 231.845 31.634 231.293 31.874C230.741 32.102 230.147 32.216 229.511 32.216C228.875 32.216 228.281 32.102 227.729 31.874C227.177 31.634 226.697 31.316 226.289 30.92C225.881 30.512 225.557 30.038 225.317 29.498C225.089 28.946 224.975 28.358 224.975 27.734ZM237.391 27.734C237.391 28.166 237.457 28.568 237.589 28.94C237.721 29.3 237.907 29.612 238.147 29.876C238.387 30.128 238.681 30.332 239.029 30.488C239.377 30.632 239.767 30.704 240.199 30.704C240.631 30.704 241.021 30.632 241.369 30.488C241.717 30.332 242.011 30.128 242.251 29.876C242.491 29.612 242.677 29.3 242.809 28.94C242.941 28.568 243.007 28.166 243.007 27.734C243.007 27.302 242.941 26.906 242.809 26.546C242.677 26.174 242.491 25.862 242.251 25.61C242.011 25.346 241.717 25.142 241.369 24.998C241.021 24.842 240.631 24.764 240.199 24.764C239.767 24.764 239.377 24.842 239.029 24.998C238.681 25.142 238.387 25.346 238.147 25.61C237.907 25.862 237.721 26.174 237.589 26.546C237.457 26.906 237.391 27.302 237.391 27.734ZM235.663 27.734C235.663 27.11 235.777 26.528 236.005 25.988C236.245 25.448 236.569 24.974 236.977 24.566C237.385 24.158 237.865 23.84 238.417 23.612C238.969 23.372 239.563 23.252 240.199 23.252C240.835 23.252 241.429 23.372 241.981 23.612C242.533 23.84 243.013 24.158 243.421 24.566C243.829 24.974 244.147 25.448 244.375 25.988C244.615 26.528 244.735 27.11 244.735 27.734C244.735 28.358 244.615 28.946 244.375 29.498C244.147 30.038 243.829 30.512 243.421 30.92C243.013 31.316 242.533 31.634 241.981 31.874C241.429 32.102 240.835 32.216 240.199 32.216C239.563 32.216 238.969 32.102 238.417 31.874C237.865 31.634 237.385 31.316 236.977 30.92C236.569 30.512 236.245 30.038 236.005 29.498C235.777 28.946 235.663 28.358 235.663 27.734ZM246.764 18.392H248.384V27.176L252.056 23.486H254.306L250.328 27.356L254.648 32H252.344L248.384 27.572V32H246.764V18.392Z" fill="#3B5998"/>
<path d="M36.6193 13H14.3798C13.6183 13 13 13.6171 13 14.3798V36.6193C13 37.3821 13.6183 38 14.3798 38H26.3529V28.3185H23.0952V24.545H26.3529V21.7623C26.3529 18.5337 28.3243 16.7748 31.205 16.7748C32.5861 16.7748 33.7704 16.8781 34.1157 16.923V20.2976L32.1176 20.2985C30.5513 20.2985 30.2491 21.0431 30.2491 22.1352V24.5437H33.9861L33.4974 28.3169H30.2487V37.9988H36.6189C37.3813 37.9988 38 37.3801 38 36.6193V14.379C37.9996 13.6171 37.3817 13 36.6193 13Z" fill="#3B5998"/>
</svg>
