<svg width="315" height="50" viewBox="0 0 315 50" fill="none" xmlns="http://www.w3.org/2000/svg">
<path d="M1 6C1 3.23858 3.23858 1 6 1H309C311.761 1 314 3.23857 314 6V44C314 46.7614 311.761 49 309 49H6C3.23858 49 1 46.7614 1 44V6Z" stroke="#E83F3F" stroke-width="2"/>
<path d="M18.5405 28.1078L17.6703 31.3564L14.4897 31.4237C13.5392 29.6607 13 27.6435 13 25.5C13 23.4272 13.5041 21.4725 14.3977 19.7513H14.3983L17.23 20.2705L18.4704 23.0851C18.2108 23.842 18.0693 24.6545 18.0693 25.5C18.0694 26.4176 18.2356 27.2967 18.5405 28.1078Z" fill="#FBBB00"/>
<path d="M37.7816 23.1649C37.9252 23.921 38 24.7019 38 25.5C38 26.3949 37.9059 27.2679 37.7267 28.1099C37.1182 30.9753 35.5282 33.4774 33.3256 35.248L33.3249 35.2473L29.7583 35.0653L29.2535 31.9142C30.715 31.057 31.8572 29.7157 32.4589 28.1099H25.7748V23.1649H32.5564H37.7816Z" fill="#518EF8"/>
<path d="M33.3248 35.2473L33.3255 35.2479C31.1834 36.9698 28.4622 38 25.5 38C20.7397 38 16.601 35.3393 14.4897 31.4238L18.5405 28.1078C19.5961 30.9251 22.3139 32.9307 25.5 32.9307C26.8695 32.9307 28.1525 32.5604 29.2534 31.9141L33.3248 35.2473Z" fill="#28B446"/>
<path d="M33.4787 15.8777L29.4292 19.193C28.2898 18.4808 26.943 18.0693 25.5 18.0693C22.2417 18.0693 19.4732 20.1668 18.4704 23.0852L14.3983 19.7514H14.3976C16.478 15.7404 20.6689 13 25.5 13C28.5329 13 31.3139 14.0804 33.4787 15.8777Z" fill="#F14336"/>
<path d="M78.6438 22.01C78.2838 21.542 77.8278 21.182 77.2758 20.93C76.7238 20.678 76.1538 20.552 75.5658 20.552C74.8458 20.552 74.1918 20.69 73.6038 20.966C73.0278 21.23 72.5298 21.596 72.1098 22.064C71.7018 22.532 71.3838 23.084 71.1558 23.72C70.9278 24.344 70.8138 25.016 70.8138 25.736C70.8138 26.408 70.9218 27.044 71.1378 27.644C71.3538 28.244 71.6658 28.772 72.0738 29.228C72.4818 29.684 72.9798 30.044 73.5678 30.308C74.1558 30.572 74.8218 30.704 75.5658 30.704C76.2978 30.704 76.9398 30.554 77.4918 30.254C78.0438 29.954 78.5118 29.534 78.8958 28.994L80.3538 30.092C80.2578 30.224 80.0898 30.416 79.8498 30.668C79.6098 30.908 79.2918 31.154 78.8958 31.406C78.4998 31.646 78.0198 31.856 77.4558 32.036C76.9038 32.228 76.2618 32.324 75.5298 32.324C74.5218 32.324 73.6098 32.132 72.7938 31.748C71.9898 31.364 71.2998 30.86 70.7238 30.236C70.1598 29.612 69.7278 28.91 69.4278 28.13C69.1278 27.338 68.9778 26.54 68.9778 25.736C68.9778 24.752 69.1398 23.846 69.4638 23.018C69.7878 22.178 70.2378 21.458 70.8138 20.858C71.4018 20.246 72.1038 19.772 72.9198 19.436C73.7358 19.1 74.6358 18.932 75.6198 18.932C76.4598 18.932 77.2818 19.094 78.0858 19.418C78.9018 19.742 79.5678 20.24 80.0838 20.912L78.6438 22.01ZM83.3437 27.734C83.3437 28.166 83.4097 28.568 83.5417 28.94C83.6737 29.3 83.8597 29.612 84.0997 29.876C84.3397 30.128 84.6337 30.332 84.9817 30.488C85.3297 30.632 85.7197 30.704 86.1517 30.704C86.5837 30.704 86.9737 30.632 87.3217 30.488C87.6697 30.332 87.9637 30.128 88.2037 29.876C88.4437 29.612 88.6297 29.3 88.7617 28.94C88.8937 28.568 88.9597 28.166 88.9597 27.734C88.9597 27.302 88.8937 26.906 88.7617 26.546C88.6297 26.174 88.4437 25.862 88.2037 25.61C87.9637 25.346 87.6697 25.142 87.3217 24.998C86.9737 24.842 86.5837 24.764 86.1517 24.764C85.7197 24.764 85.3297 24.842 84.9817 24.998C84.6337 25.142 84.3397 25.346 84.0997 25.61C83.8597 25.862 83.6737 26.174 83.5417 26.546C83.4097 26.906 83.3437 27.302 83.3437 27.734ZM81.6157 27.734C81.6157 27.11 81.7297 26.528 81.9577 25.988C82.1977 25.448 82.5217 24.974 82.9297 24.566C83.3377 24.158 83.8177 23.84 84.3697 23.612C84.9217 23.372 85.5157 23.252 86.1517 23.252C86.7877 23.252 87.3817 23.372 87.9337 23.612C88.4857 23.84 88.9657 24.158 89.3737 24.566C89.7817 24.974 90.0997 25.448 90.3277 25.988C90.5677 26.528 90.6877 27.11 90.6877 27.734C90.6877 28.358 90.5677 28.946 90.3277 29.498C90.0997 30.038 89.7817 30.512 89.3737 30.92C88.9657 31.316 88.4857 31.634 87.9337 31.874C87.3817 32.102 86.7877 32.216 86.1517 32.216C85.5157 32.216 84.9217 32.102 84.3697 31.874C83.8177 31.634 83.3377 31.316 82.9297 30.92C82.5217 30.512 82.1977 30.038 81.9577 29.498C81.7297 28.946 81.6157 28.358 81.6157 27.734ZM92.7172 23.468H94.3372V24.782H94.3732C94.5772 24.326 94.9312 23.96 95.4352 23.684C95.9392 23.396 96.5212 23.252 97.1812 23.252C97.5892 23.252 97.9792 23.318 98.3512 23.45C98.7352 23.57 99.0652 23.762 99.3412 24.026C99.6292 24.29 99.8572 24.632 100.025 25.052C100.193 25.46 100.277 25.946 100.277 26.51V32H98.6572V26.96C98.6572 26.564 98.6032 26.228 98.4952 25.952C98.3872 25.664 98.2432 25.436 98.0632 25.268C97.8832 25.088 97.6732 24.962 97.4332 24.89C97.2052 24.806 96.9652 24.764 96.7132 24.764C96.3772 24.764 96.0652 24.818 95.7772 24.926C95.4892 25.034 95.2372 25.208 95.0212 25.448C94.8052 25.676 94.6372 25.97 94.5172 26.33C94.3972 26.69 94.3372 27.116 94.3372 27.608V32H92.7172V23.468ZM107.291 24.872H104.969V28.742C104.969 28.982 104.975 29.222 104.987 29.462C104.999 29.69 105.041 29.9 105.113 30.092C105.197 30.272 105.317 30.422 105.473 30.542C105.641 30.65 105.881 30.704 106.193 30.704C106.385 30.704 106.583 30.686 106.787 30.65C106.991 30.614 107.177 30.548 107.345 30.452V31.928C107.153 32.036 106.901 32.108 106.589 32.144C106.289 32.192 106.055 32.216 105.887 32.216C105.263 32.216 104.777 32.132 104.429 31.964C104.093 31.784 103.841 31.556 103.673 31.28C103.517 31.004 103.421 30.698 103.385 30.362C103.361 30.014 103.349 29.666 103.349 29.318V24.872H101.477V23.468H103.349V21.074H104.969V23.468H107.291V24.872ZM109.507 23.468H111.127V32H109.507V23.468ZM109.129 20.408C109.129 20.084 109.243 19.808 109.471 19.58C109.711 19.34 109.993 19.22 110.317 19.22C110.641 19.22 110.917 19.34 111.145 19.58C111.385 19.808 111.505 20.084 111.505 20.408C111.505 20.732 111.385 21.014 111.145 21.254C110.917 21.482 110.641 21.596 110.317 21.596C109.993 21.596 109.711 21.482 109.471 21.254C109.243 21.014 109.129 20.732 109.129 20.408ZM113.705 23.468H115.325V24.782H115.361C115.565 24.326 115.919 23.96 116.423 23.684C116.927 23.396 117.509 23.252 118.169 23.252C118.577 23.252 118.967 23.318 119.339 23.45C119.723 23.57 120.053 23.762 120.329 24.026C120.617 24.29 120.845 24.632 121.013 25.052C121.181 25.46 121.265 25.946 121.265 26.51V32H119.645V26.96C119.645 26.564 119.591 26.228 119.483 25.952C119.375 25.664 119.231 25.436 119.051 25.268C118.871 25.088 118.661 24.962 118.421 24.89C118.193 24.806 117.953 24.764 117.701 24.764C117.365 24.764 117.053 24.818 116.765 24.926C116.477 25.034 116.225 25.208 116.009 25.448C115.793 25.676 115.625 25.97 115.505 26.33C115.385 26.69 115.325 27.116 115.325 27.608V32H113.705V23.468ZM131.267 32H129.647V30.686H129.611C129.407 31.142 129.053 31.514 128.549 31.802C128.045 32.078 127.463 32.216 126.803 32.216C126.383 32.216 125.987 32.15 125.615 32.018C125.243 31.898 124.913 31.706 124.625 31.442C124.349 31.178 124.127 30.842 123.959 30.434C123.791 30.014 123.707 29.522 123.707 28.958V23.468H125.327V28.508C125.327 28.904 125.381 29.246 125.489 29.534C125.597 29.81 125.741 30.038 125.921 30.218C126.101 30.386 126.305 30.512 126.533 30.596C126.773 30.668 127.019 30.704 127.271 30.704C127.607 30.704 127.919 30.65 128.207 30.542C128.495 30.434 128.747 30.266 128.963 30.038C129.179 29.798 129.347 29.498 129.467 29.138C129.587 28.778 129.647 28.352 129.647 27.86V23.468H131.267V32ZM134.933 28.328C134.933 28.7 135.011 29.042 135.167 29.354C135.335 29.654 135.551 29.912 135.815 30.128C136.079 30.344 136.385 30.512 136.733 30.632C137.081 30.752 137.441 30.812 137.813 30.812C138.317 30.812 138.755 30.698 139.127 30.47C139.499 30.23 139.841 29.918 140.153 29.534L141.377 30.47C140.477 31.634 139.217 32.216 137.597 32.216C136.925 32.216 136.313 32.102 135.761 31.874C135.221 31.646 134.759 31.334 134.375 30.938C134.003 30.53 133.715 30.056 133.511 29.516C133.307 28.964 133.205 28.37 133.205 27.734C133.205 27.098 133.313 26.51 133.529 25.97C133.757 25.418 134.063 24.944 134.447 24.548C134.843 24.14 135.311 23.822 135.851 23.594C136.391 23.366 136.979 23.252 137.615 23.252C138.371 23.252 139.007 23.384 139.523 23.648C140.051 23.912 140.483 24.26 140.819 24.692C141.155 25.112 141.395 25.592 141.539 26.132C141.695 26.66 141.773 27.2 141.773 27.752V28.328H134.933ZM140.045 27.032C140.033 26.672 139.973 26.342 139.865 26.042C139.769 25.742 139.619 25.484 139.415 25.268C139.211 25.04 138.953 24.866 138.641 24.746C138.341 24.614 137.987 24.548 137.579 24.548C137.183 24.548 136.817 24.626 136.481 24.782C136.157 24.926 135.881 25.118 135.653 25.358C135.425 25.598 135.245 25.868 135.113 26.168C134.993 26.456 134.933 26.744 134.933 27.032H140.045ZM147.695 23.468H149.513L151.439 29.84H151.475L153.509 23.468H155.219L157.379 29.84H157.415L159.251 23.468H160.961L158.207 32H156.569L154.319 25.628H154.283L152.249 32H150.503L147.695 23.468ZM162.505 23.468H164.125V32H162.505V23.468ZM162.127 20.408C162.127 20.084 162.241 19.808 162.469 19.58C162.709 19.34 162.991 19.22 163.315 19.22C163.639 19.22 163.915 19.34 164.143 19.58C164.383 19.808 164.503 20.084 164.503 20.408C164.503 20.732 164.383 21.014 164.143 21.254C163.915 21.482 163.639 21.596 163.315 21.596C162.991 21.596 162.709 21.482 162.469 21.254C162.241 21.014 162.127 20.732 162.127 20.408ZM171.275 24.872H168.953V28.742C168.953 28.982 168.959 29.222 168.971 29.462C168.983 29.69 169.025 29.9 169.097 30.092C169.181 30.272 169.301 30.422 169.457 30.542C169.625 30.65 169.865 30.704 170.177 30.704C170.369 30.704 170.567 30.686 170.771 30.65C170.975 30.614 171.161 30.548 171.329 30.452V31.928C171.137 32.036 170.885 32.108 170.573 32.144C170.273 32.192 170.039 32.216 169.871 32.216C169.247 32.216 168.761 32.132 168.413 31.964C168.077 31.784 167.825 31.556 167.657 31.28C167.501 31.004 167.405 30.698 167.369 30.362C167.345 30.014 167.333 29.666 167.333 29.318V24.872H165.461V23.468H167.333V21.074H168.953V23.468H171.275V24.872ZM173.366 18.392H174.986V24.782H175.022C175.226 24.326 175.58 23.96 176.084 23.684C176.588 23.396 177.17 23.252 177.83 23.252C178.238 23.252 178.628 23.318 179 23.45C179.384 23.57 179.714 23.762 179.99 24.026C180.278 24.29 180.506 24.632 180.674 25.052C180.842 25.46 180.926 25.946 180.926 26.51V32H179.306V26.96C179.306 26.564 179.252 26.228 179.144 25.952C179.036 25.664 178.892 25.436 178.712 25.268C178.532 25.088 178.322 24.962 178.082 24.89C177.854 24.806 177.614 24.764 177.362 24.764C177.026 24.764 176.714 24.818 176.426 24.926C176.138 25.034 175.886 25.208 175.67 25.448C175.454 25.676 175.286 25.97 175.166 26.33C175.046 26.69 174.986 27.116 174.986 27.608V32H173.366V18.392ZM199.645 24.872V31.154C199.333 31.346 198.979 31.514 198.583 31.658C198.187 31.802 197.773 31.922 197.341 32.018C196.921 32.126 196.489 32.204 196.045 32.252C195.613 32.3 195.205 32.324 194.821 32.324C193.741 32.324 192.775 32.144 191.923 31.784C191.083 31.424 190.369 30.938 189.781 30.326C189.205 29.714 188.761 29.006 188.449 28.202C188.149 27.386 187.999 26.528 187.999 25.628C187.999 24.68 188.161 23.798 188.485 22.982C188.821 22.166 189.277 21.458 189.853 20.858C190.441 20.258 191.143 19.79 191.959 19.454C192.775 19.106 193.669 18.932 194.641 18.932C195.817 18.932 196.777 19.082 197.521 19.382C198.265 19.67 198.889 20.072 199.393 20.588L198.169 21.902C197.641 21.398 197.083 21.05 196.495 20.858C195.907 20.654 195.289 20.552 194.641 20.552C193.909 20.552 193.249 20.69 192.661 20.966C192.073 21.23 191.569 21.59 191.149 22.046C190.729 22.502 190.405 23.042 190.177 23.666C189.949 24.278 189.835 24.932 189.835 25.628C189.835 26.348 189.961 27.02 190.213 27.644C190.465 28.256 190.813 28.79 191.257 29.246C191.701 29.702 192.223 30.062 192.823 30.326C193.423 30.578 194.077 30.704 194.785 30.704C195.397 30.704 195.973 30.65 196.513 30.542C197.065 30.422 197.533 30.254 197.917 30.038V26.492H195.091V24.872H199.645ZM203.701 27.734C203.701 28.166 203.767 28.568 203.899 28.94C204.031 29.3 204.217 29.612 204.457 29.876C204.697 30.128 204.991 30.332 205.339 30.488C205.687 30.632 206.077 30.704 206.509 30.704C206.941 30.704 207.331 30.632 207.679 30.488C208.027 30.332 208.321 30.128 208.561 29.876C208.801 29.612 208.987 29.3 209.119 28.94C209.251 28.568 209.317 28.166 209.317 27.734C209.317 27.302 209.251 26.906 209.119 26.546C208.987 26.174 208.801 25.862 208.561 25.61C208.321 25.346 208.027 25.142 207.679 24.998C207.331 24.842 206.941 24.764 206.509 24.764C206.077 24.764 205.687 24.842 205.339 24.998C204.991 25.142 204.697 25.346 204.457 25.61C204.217 25.862 204.031 26.174 203.899 26.546C203.767 26.906 203.701 27.302 203.701 27.734ZM201.973 27.734C201.973 27.11 202.087 26.528 202.315 25.988C202.555 25.448 202.879 24.974 203.287 24.566C203.695 24.158 204.175 23.84 204.727 23.612C205.279 23.372 205.873 23.252 206.509 23.252C207.145 23.252 207.739 23.372 208.291 23.612C208.843 23.84 209.323 24.158 209.731 24.566C210.139 24.974 210.457 25.448 210.685 25.988C210.925 26.528 211.045 27.11 211.045 27.734C211.045 28.358 210.925 28.946 210.685 29.498C210.457 30.038 210.139 30.512 209.731 30.92C209.323 31.316 208.843 31.634 208.291 31.874C207.739 32.102 207.145 32.216 206.509 32.216C205.873 32.216 205.279 32.102 204.727 31.874C204.175 31.634 203.695 31.316 203.287 30.92C202.879 30.512 202.555 30.038 202.315 29.498C202.087 28.946 201.973 28.358 201.973 27.734ZM214.389 27.734C214.389 28.166 214.455 28.568 214.587 28.94C214.719 29.3 214.905 29.612 215.145 29.876C215.385 30.128 215.679 30.332 216.027 30.488C216.375 30.632 216.765 30.704 217.197 30.704C217.629 30.704 218.019 30.632 218.367 30.488C218.715 30.332 219.009 30.128 219.249 29.876C219.489 29.612 219.675 29.3 219.807 28.94C219.939 28.568 220.005 28.166 220.005 27.734C220.005 27.302 219.939 26.906 219.807 26.546C219.675 26.174 219.489 25.862 219.249 25.61C219.009 25.346 218.715 25.142 218.367 24.998C218.019 24.842 217.629 24.764 217.197 24.764C216.765 24.764 216.375 24.842 216.027 24.998C215.679 25.142 215.385 25.346 215.145 25.61C214.905 25.862 214.719 26.174 214.587 26.546C214.455 26.906 214.389 27.302 214.389 27.734ZM212.661 27.734C212.661 27.11 212.775 26.528 213.003 25.988C213.243 25.448 213.567 24.974 213.975 24.566C214.383 24.158 214.863 23.84 215.415 23.612C215.967 23.372 216.561 23.252 217.197 23.252C217.833 23.252 218.427 23.372 218.979 23.612C219.531 23.84 220.011 24.158 220.419 24.566C220.827 24.974 221.145 25.448 221.373 25.988C221.613 26.528 221.733 27.11 221.733 27.734C221.733 28.358 221.613 28.946 221.373 29.498C221.145 30.038 220.827 30.512 220.419 30.92C220.011 31.316 219.531 31.634 218.979 31.874C218.427 32.102 217.833 32.216 217.197 32.216C216.561 32.216 215.967 32.102 215.415 31.874C214.863 31.634 214.383 31.316 213.975 30.92C213.567 30.512 213.243 30.038 213.003 29.498C212.775 28.946 212.661 28.358 212.661 27.734ZM232.312 31.928C232.312 32.576 232.198 33.164 231.97 33.692C231.754 34.232 231.442 34.694 231.034 35.078C230.626 35.474 230.134 35.78 229.558 35.996C228.982 36.212 228.346 36.32 227.65 36.32C226.834 36.32 226.084 36.206 225.4 35.978C224.728 35.75 224.086 35.354 223.474 34.79L224.572 33.422C224.992 33.878 225.448 34.22 225.94 34.448C226.432 34.688 226.99 34.808 227.614 34.808C228.214 34.808 228.712 34.718 229.108 34.538C229.504 34.37 229.816 34.148 230.044 33.872C230.284 33.596 230.452 33.278 230.548 32.918C230.644 32.57 230.692 32.216 230.692 31.856V30.596H230.638C230.326 31.112 229.9 31.496 229.36 31.748C228.832 31.988 228.274 32.108 227.686 32.108C227.062 32.108 226.48 32 225.94 31.784C225.412 31.556 224.956 31.25 224.572 30.866C224.188 30.47 223.888 30.008 223.672 29.48C223.456 28.94 223.348 28.358 223.348 27.734C223.348 27.11 223.45 26.528 223.654 25.988C223.858 25.436 224.146 24.956 224.518 24.548C224.902 24.14 225.358 23.822 225.886 23.594C226.426 23.366 227.026 23.252 227.686 23.252C228.262 23.252 228.82 23.378 229.36 23.63C229.912 23.882 230.344 24.236 230.656 24.692H230.692V23.468H232.312V31.928ZM227.884 24.764C227.452 24.764 227.062 24.842 226.714 24.998C226.366 25.142 226.072 25.346 225.832 25.61C225.592 25.862 225.406 26.174 225.274 26.546C225.142 26.906 225.076 27.302 225.076 27.734C225.076 28.598 225.328 29.294 225.832 29.822C226.336 30.338 227.02 30.596 227.884 30.596C228.748 30.596 229.432 30.338 229.936 29.822C230.44 29.294 230.692 28.598 230.692 27.734C230.692 27.302 230.626 26.906 230.494 26.546C230.362 26.174 230.176 25.862 229.936 25.61C229.696 25.346 229.402 25.142 229.054 24.998C228.706 24.842 228.316 24.764 227.884 24.764ZM234.892 18.392H236.512V32H234.892V18.392ZM240.314 28.328C240.314 28.7 240.392 29.042 240.548 29.354C240.716 29.654 240.932 29.912 241.196 30.128C241.46 30.344 241.766 30.512 242.114 30.632C242.462 30.752 242.822 30.812 243.194 30.812C243.698 30.812 244.136 30.698 244.508 30.47C244.88 30.23 245.222 29.918 245.534 29.534L246.758 30.47C245.858 31.634 244.598 32.216 242.978 32.216C242.306 32.216 241.694 32.102 241.142 31.874C240.602 31.646 240.14 31.334 239.756 30.938C239.384 30.53 239.096 30.056 238.892 29.516C238.688 28.964 238.586 28.37 238.586 27.734C238.586 27.098 238.694 26.51 238.91 25.97C239.138 25.418 239.444 24.944 239.828 24.548C240.224 24.14 240.692 23.822 241.232 23.594C241.772 23.366 242.36 23.252 242.996 23.252C243.752 23.252 244.388 23.384 244.904 23.648C245.432 23.912 245.864 24.26 246.2 24.692C246.536 25.112 246.776 25.592 246.92 26.132C247.076 26.66 247.154 27.2 247.154 27.752V28.328H240.314ZM245.426 27.032C245.414 26.672 245.354 26.342 245.246 26.042C245.15 25.742 245 25.484 244.796 25.268C244.592 25.04 244.334 24.866 244.022 24.746C243.722 24.614 243.368 24.548 242.96 24.548C242.564 24.548 242.198 24.626 241.862 24.782C241.538 24.926 241.262 25.118 241.034 25.358C240.806 25.598 240.626 25.868 240.494 26.168C240.374 26.456 240.314 26.744 240.314 27.032H245.426Z" fill="#E83F3F"/>
</svg>
