<svg xmlns="http://www.w3.org/2000/svg" width="315" height="50" viewBox="0 0 315 50"><g fill="none" stroke="#3b5998" stroke-miterlimit="10" stroke-width="2"><rect width="315" height="50" rx="12" stroke="none"/><rect x="1" y="1" width="313" height="48" rx="11" fill="none"/></g><text transform="translate(158 32)" fill="#3b5998" font-size="18" font-family="SegoeUI, Segoe UI"><tspan x="-94.39" y="0">Continue with facebook</tspan></text><path d="M23.619,0H1.38A1.38,1.38,0,0,0,0,1.38v22.24A1.38,1.38,0,0,0,1.38,25H13.353V15.319H10.1V11.545h3.258V8.762c0-3.229,1.971-4.987,4.852-4.987a27.021,27.021,0,0,1,2.911.148V7.3h-2c-1.566,0-1.868.745-1.868,1.837v2.409h3.737L20.5,15.317H17.249V25h6.37A1.381,1.381,0,0,0,25,23.619V1.379A1.38,1.38,0,0,0,23.619,0Z" transform="translate(13 13)" fill="#3b5998"/></svg>