<svg xmlns="http://www.w3.org/2000/svg" width="315" height="50" viewBox="0 0 315 50"><g fill="none" stroke="#e83f3f" stroke-miterlimit="10" stroke-width="2"><rect width="315" height="50" rx="12" stroke="none"/><rect x="1" y="1" width="313" height="48" rx="11" fill="none"/></g><g transform="translate(13 13)"><path d="M5.541,8.356l-.87,3.249-3.181.067A12.522,12.522,0,0,1,1.4,0h0L4.23.519,5.47,3.334a7.46,7.46,0,0,0,.07,5.023Z" transform="translate(0 6.751)" fill="#fbbb00"/><path d="M12.007,0a12.514,12.514,0,0,1,.218,2.335,12.523,12.523,0,0,1-.273,2.61,12.5,12.5,0,0,1-4.4,7.138h0L3.983,11.9l-.5-3.151a7.45,7.45,0,0,0,3.205-3.8H0V0H12.007Z" transform="translate(12.775 10.165)" fill="#518ef8"/><path d="M18.835,7.139h0A12.447,12.447,0,0,1,11.01,9.892,12.5,12.5,0,0,1,0,3.316L4.051,0A7.432,7.432,0,0,0,11.01,4.823a7.391,7.391,0,0,0,3.753-1.017Z" transform="translate(1.49 15.108)" fill="#28b446"/><path d="M19.081,2.878,15.032,6.193A7.433,7.433,0,0,0,4.073,10.085L0,6.751H0A12.5,12.5,0,0,1,19.081,2.878Z" transform="translate(1.398)" fill="#f14336"/></g><text transform="translate(158 32)" fill="#e83f3f" font-size="18" font-family="SegoeUI, Segoe UI"><tspan x="-86.726" y="0">Continue with Google</tspan></text></svg>