<svg width="22" height="22" viewBox="0 0 22 22" fill="none" xmlns="http://www.w3.org/2000/svg">
<path fill-rule="evenodd" clip-rule="evenodd" d="M8.83784 16.6757C4.50912 16.6757 1 13.1666 1 8.83784C1 4.50912 4.50912 1 8.83784 1C13.1666 1 16.6757 4.50912 16.6757 8.83784C16.6757 10.7102 16.0192 12.4291 14.9238 13.7771L20.7625 19.6159C21.0792 19.9325 21.0792 20.4459 20.7625 20.7625C20.4459 21.0792 19.9325 21.0792 19.6159 20.7625L13.7771 14.9238C12.4291 16.0192 10.7102 16.6757 8.83784 16.6757ZM8.83784 15.0541C12.271 15.0541 15.0541 12.271 15.0541 8.83784C15.0541 5.40472 12.271 2.62162 8.83784 2.62162C5.40472 2.62162 2.62162 5.40472 2.62162 8.83784C2.62162 12.271 5.40472 15.0541 8.83784 15.0541Z" fill="white"/>
<path d="M14.9238 13.7771L14.5702 14.1307L14.2514 13.8118L14.5358 13.4618L14.9238 13.7771ZM20.7625 19.6159L20.409 19.9694H20.409L20.7625 19.6159ZM20.7625 20.7625L21.1161 21.1161L21.1161 21.1161L20.7625 20.7625ZM19.6159 20.7625L19.2623 21.1161H19.2623L19.6159 20.7625ZM13.7771 14.9238L13.4618 14.5358L13.8118 14.2514L14.1307 14.5702L13.7771 14.9238ZM1.5 8.83784C1.5 12.8904 4.78526 16.1757 8.83784 16.1757V17.1757C4.23298 17.1757 0.5 13.4427 0.5 8.83784H1.5ZM8.83784 1.5C4.78526 1.5 1.5 4.78526 1.5 8.83784H0.5C0.5 4.23298 4.23298 0.5 8.83784 0.5V1.5ZM16.1757 8.83784C16.1757 4.78526 12.8904 1.5 8.83784 1.5V0.5C13.4427 0.5 17.1757 4.23298 17.1757 8.83784H16.1757ZM14.5358 13.4618C15.5614 12.1997 16.1757 10.5912 16.1757 8.83784H17.1757C17.1757 10.8291 16.477 12.6586 15.3118 14.0925L14.5358 13.4618ZM15.2774 13.4236L21.1161 19.2623L20.409 19.9694L14.5702 14.1307L15.2774 13.4236ZM21.1161 19.2623C21.628 19.7742 21.628 20.6042 21.1161 21.1161L20.409 20.409C20.5303 20.2876 20.5303 20.0908 20.409 19.9694L21.1161 19.2623ZM21.1161 21.1161C20.6042 21.628 19.7742 21.628 19.2623 21.1161L19.9694 20.409C20.0908 20.5303 20.2876 20.5303 20.409 20.409L21.1161 21.1161ZM19.2623 21.1161L13.4236 15.2774L14.1307 14.5702L19.9694 20.409L19.2623 21.1161ZM8.83784 16.1757C10.5912 16.1757 12.1997 15.5614 13.4618 14.5358L14.0925 15.3118C12.6586 16.477 10.8291 17.1757 8.83784 17.1757V16.1757ZM15.5541 8.83784C15.5541 12.5471 12.5471 15.5541 8.83784 15.5541V14.5541C11.9948 14.5541 14.5541 11.9948 14.5541 8.83784H15.5541ZM8.83784 2.12162C12.5471 2.12162 15.5541 5.12857 15.5541 8.83784H14.5541C14.5541 5.68086 11.9948 3.12162 8.83784 3.12162V2.12162ZM2.12162 8.83784C2.12162 5.12857 5.12857 2.12162 8.83784 2.12162V3.12162C5.68086 3.12162 3.12162 5.68086 3.12162 8.83784H2.12162ZM8.83784 15.5541C5.12857 15.5541 2.12162 12.5471 2.12162 8.83784H3.12162C3.12162 11.9948 5.68086 14.5541 8.83784 14.5541V15.5541Z"/>
</svg>
