<svg width="29" height="21" viewBox="0 0 29 21" fill="none" xmlns="http://www.w3.org/2000/svg">
<path fill-rule="evenodd" clip-rule="evenodd" d="M23.75 7.50001C23.75 9.98551 22.0707 12 20 12C17.9292 12 16.25 9.98551 16.25 7.50001C16.25 5.0145 17.9292 3 20 3C22.0707 3 23.75 5.0145 23.75 7.50001ZM20.0004 13.5001C24.3632 13.5001 28.1409 15.6413 28.9644 18.7321C29.1459 19.4138 28.6104 20.0851 27.9054 20.1106C22.7297 20.2966 17.2704 20.2966 12.0947 20.1106C11.3897 20.0851 10.8542 19.4138 11.0357 18.7321C11.8592 15.6413 15.6369 13.5001 20.0004 13.5001Z" fill="#787878"/>
<path fill-rule="evenodd" clip-rule="evenodd" d="M14.875 5.25C14.875 8.14975 12.9158 10.5 10.5 10.5C8.08408 10.5 6.12495 8.14975 6.12495 5.25C6.12495 2.35025 8.08408 0 10.5 0C12.9158 0 14.875 2.35025 14.875 5.25ZM10.5005 12.2501C15.5904 12.2501 19.9977 14.7482 20.9585 18.3541C21.1702 19.1495 20.5455 19.9326 19.723 19.9623C13.6846 20.1793 7.31548 20.1793 1.2771 19.9623C0.454601 19.9326 -0.170149 19.1495 0.0416008 18.3541C1.00235 14.7482 5.40973 12.2501 10.5005 12.2501Z" />
</svg>
