<svg xmlns="http://www.w3.org/2000/svg" width="16.603" height="18.5" viewBox="0 0 16.603 18.5"><path d="M8,18c-.219,0-.436-.008-.644-.025a2.038,2.038,0,0,1-1.813-1.827l-.068-.491a1.023,1.023,0,0,0-.547-.707c-.118-.066-.237-.137-.353-.212a1.1,1.1,0,0,0-.588-.19.716.716,0,0,0-.276.052l-.444.184a2.106,2.106,0,0,1-.8.159,1.918,1.918,0,0,1-1.63-.873,9.088,9.088,0,0,1-.647-1.162,2.136,2.136,0,0,1,.618-2.542l.377-.31A1.042,1.042,0,0,0,1.5,9.212c0-.07,0-.141,0-.212s0-.142,0-.212a1.042,1.042,0,0,0-.316-.844l-.377-.31A2.138,2.138,0,0,1,.191,5.092,9.037,9.037,0,0,1,.838,3.93a1.918,1.918,0,0,1,1.63-.873,2.106,2.106,0,0,1,.8.159l.444.184a.716.716,0,0,0,.276.052,1.1,1.1,0,0,0,.588-.19c.116-.075.235-.147.353-.212a1.02,1.02,0,0,0,.547-.707l.068-.49A2.054,2.054,0,0,1,7.357.024C7.568.008,7.784,0,8,0s.432.008.643.024a2.039,2.039,0,0,1,1.813,1.828l.068.49a1.019,1.019,0,0,0,.548.707c.12.067.238.138.352.212a1.1,1.1,0,0,0,.589.19.712.712,0,0,0,.275-.052l.445-.184a2.106,2.106,0,0,1,.8-.159,1.916,1.916,0,0,1,1.629.873,9.041,9.041,0,0,1,.648,1.162,2.139,2.139,0,0,1-.618,2.542l-.377.31a1.042,1.042,0,0,0-.317.844c0,.07,0,.142,0,.212s0,.142,0,.212a1.042,1.042,0,0,0,.317.844l.377.31a2.138,2.138,0,0,1,.618,2.542,9.094,9.094,0,0,1-.648,1.162,1.916,1.916,0,0,1-1.629.873,2.106,2.106,0,0,1-.8-.159l-.445-.184a.712.712,0,0,0-.275-.052,1.1,1.1,0,0,0-.589.19c-.113.074-.232.146-.352.212a1.022,1.022,0,0,0-.548.707l-.068.491a2.051,2.051,0,0,1-1.813,1.827C8.436,17.992,8.219,18,8,18Zm-4.02-4.954a2.55,2.55,0,0,1,1.356.418c.1.064.19.118.274.164A2.483,2.483,0,0,1,6.9,15.442l.069.49a.585.585,0,0,0,.489.548c.173.013.354.02.538.02s.365-.007.538-.02a.585.585,0,0,0,.489-.548l.068-.49a2.488,2.488,0,0,1,1.293-1.814c.1-.054.194-.113.274-.164a2.545,2.545,0,0,1,1.356-.418,2.092,2.092,0,0,1,.805.159l.443.184a.691.691,0,0,0,.264.055.515.515,0,0,0,.438-.22,7.584,7.584,0,0,0,.539-.968.6.6,0,0,0-.211-.711l-.378-.311a2.525,2.525,0,0,1-.865-2.068l0-.166,0-.166a2.528,2.528,0,0,1,.865-2.069l.378-.31a.606.606,0,0,0,.211-.712,7.578,7.578,0,0,0-.539-.968.516.516,0,0,0-.439-.221.689.689,0,0,0-.263.055l-.443.185a2.1,2.1,0,0,1-.806.159,2.539,2.539,0,0,1-1.355-.418c-.079-.05-.174-.109-.274-.165A2.484,2.484,0,0,1,9.1,2.558l-.068-.49a.583.583,0,0,0-.489-.547C8.365,1.507,8.184,1.5,8,1.5s-.366.007-.538.02a.583.583,0,0,0-.489.547l-.069.49A2.479,2.479,0,0,1,5.611,4.371c-.086.049-.176.1-.274.165a2.543,2.543,0,0,1-1.355.418,2.1,2.1,0,0,1-.805-.159L2.732,4.61a.688.688,0,0,0-.263-.055.518.518,0,0,0-.439.221,7.692,7.692,0,0,0-.539.968.607.607,0,0,0,.212.712l.378.31a2.532,2.532,0,0,1,.866,2.069l0,.166,0,.166a2.529,2.529,0,0,1-.866,2.068l-.378.311a.606.606,0,0,0-.212.711,7.643,7.643,0,0,0,.539.968.517.517,0,0,0,.438.22.691.691,0,0,0,.264-.055l.444-.184A2.089,2.089,0,0,1,3.981,13.046ZM8,12.75A3.687,3.687,0,0,1,4.388,9,3.687,3.687,0,0,1,8,5.25,3.687,3.687,0,0,1,11.611,9,3.687,3.687,0,0,1,8,12.75Zm0-6a2.252,2.252,0,0,0,0,4.5,2.252,2.252,0,0,0,0-4.5Z" transform="translate(0.302 0.25)" fill="#fff" stroke="#fff" stroke-miterlimit="10" stroke-width="0.5"/></svg>