<svg width="30" height="30" viewBox="0 0 30 30" fill="none" xmlns="http://www.w3.org/2000/svg">
<circle cx="15" cy="15" r="15" fill="white"/>
<path fill-rule="evenodd" clip-rule="evenodd" d="M14.3478 14.3478V10.6522C14.3478 10.292 14.6398 10 15 10C15.3602 10 15.6522 10.292 15.6522 10.6522V14.3478H19.3478C19.708 14.3478 20 14.6398 20 15C20 15.3602 19.708 15.6522 19.3478 15.6522H15.6522V19.3478C15.6522 19.708 15.3602 20 15 20C14.6398 20 14.3478 19.708 14.3478 19.3478V15.6522H10.6522C10.292 15.6522 10 15.3602 10 15C10 14.6398 10.292 14.3478 10.6522 14.3478H14.3478Z" fill="#65D1E8"/>
<path d="M14.3478 14.3478V14.8478H14.8478V14.3478H14.3478ZM15.6522 14.3478H15.1522V14.8478H15.6522V14.3478ZM15.6522 15.6522V15.1522H15.1522V15.6522H15.6522ZM14.3478 15.6522H14.8478V15.1522H14.3478V15.6522ZM13.8478 10.6522V14.3478H14.8478V10.6522H13.8478ZM15 9.5C14.3637 9.5 13.8478 10.0158 13.8478 10.6522H14.8478C14.8478 10.5681 14.916 10.5 15 10.5V9.5ZM16.1522 10.6522C16.1522 10.0158 15.6363 9.5 15 9.5V10.5C15.084 10.5 15.1522 10.5681 15.1522 10.6522H16.1522ZM16.1522 14.3478V10.6522H15.1522V14.3478H16.1522ZM19.3478 13.8478H15.6522V14.8478H19.3478V13.8478ZM20.5 15C20.5 14.3637 19.9842 13.8478 19.3478 13.8478V14.8478C19.4319 14.8478 19.5 14.916 19.5 15H20.5ZM19.3478 16.1522C19.9842 16.1522 20.5 15.6363 20.5 15H19.5C19.5 15.084 19.4319 15.1522 19.3478 15.1522V16.1522ZM15.6522 16.1522H19.3478V15.1522H15.6522V16.1522ZM16.1522 19.3478V15.6522H15.1522V19.3478H16.1522ZM15 20.5C15.6363 20.5 16.1522 19.9842 16.1522 19.3478H15.1522C15.1522 19.4319 15.084 19.5 15 19.5V20.5ZM13.8478 19.3478C13.8478 19.9842 14.3637 20.5 15 20.5V19.5C14.916 19.5 14.8478 19.4319 14.8478 19.3478H13.8478ZM13.8478 15.6522V19.3478H14.8478V15.6522H13.8478ZM10.6522 16.1522H14.3478V15.1522H10.6522V16.1522ZM9.5 15C9.5 15.6363 10.0158 16.1522 10.6522 16.1522V15.1522C10.5681 15.1522 10.5 15.084 10.5 15H9.5ZM10.6522 13.8478C10.0158 13.8478 9.5 14.3637 9.5 15H10.5C10.5 14.916 10.5681 14.8478 10.6522 14.8478V13.8478ZM14.3478 13.8478H10.6522V14.8478H14.3478V13.8478Z" fill="#65D1E8"/>
</svg>
