<svg width="12" height="16" viewBox="0 0 12 16" fill="none" xmlns="http://www.w3.org/2000/svg">
<path fill-rule="evenodd" clip-rule="evenodd" d="M8.99975 1.39149H10.7827C11.3587 1.39149 11.8262 1.85898 11.8262 2.43498C11.8262 3.01099 11.3587 3.47847 10.7827 3.47847H1.04349C0.467483 3.47847 0 3.01099 0 2.43498C0 1.85898 0.467483 1.39149 1.04349 1.39149H2.75899L2.88003 0.906618C2.98994 0.466961 3.37395 0.149045 3.82613 0.118436C4.9757 0.0394787 5.42754 0 5.87937 0C6.3312 0 6.78303 0.0394787 7.9326 0.118436C8.38478 0.149045 8.76879 0.466961 8.8787 0.906618L8.99975 1.39149ZM1.93852 15.0329C1.39382 12.0402 1.00565 9.02239 0.773991 5.99071C0.728077 5.38548 1.21226 4.87 1.81957 4.87H10.0068C10.6134 4.87 11.0983 5.38548 11.0524 5.99071C10.8207 9.02239 10.4325 12.0402 9.88783 15.0329C9.80295 15.5018 9.40712 15.8607 8.93129 15.8941C6.92153 16.036 4.90482 16.036 2.89506 15.8941C2.41923 15.8607 2.0234 15.5018 1.93852 15.0329Z" fill="white"/>
</svg>
