<svg width="14" height="22" viewBox="0 0 14 22" fill="none" xmlns="http://www.w3.org/2000/svg">
<path id="icon_password" opacity="0.6" fill-rule="evenodd" clip-rule="evenodd" d="M11 9.63463C9.84981 8.76906 8.42531 8.25 6.875 8.25C5.32538 8.25 3.90019 8.76906 2.75 9.63463V5.5C2.75 3.22231 4.59731 1.375 6.875 1.375C9.15269 1.375 11 3.22231 11 5.5V9.63463ZM7.5625 17.1875C7.5625 17.5677 7.25519 17.875 6.875 17.875C6.49481 17.875 6.1875 17.5677 6.1875 17.1875V14.4375C6.1875 14.058 6.49481 13.75 6.875 13.75C7.25519 13.75 7.5625 14.058 7.5625 14.4375V17.1875ZM12.375 11.0131V5.5C12.375 2.46263 9.91237 0 6.875 0C3.83763 0 1.375 2.46263 1.375 5.5V11.0131C0.515625 12.1605 0 13.5809 0 15.125C0 18.9221 3.07862 22 6.875 22C10.6714 22 13.75 18.9221 13.75 15.125C13.75 13.5809 13.2344 12.1605 12.375 11.0131Z" fill="#A9AEBE"/>
</svg>
