<svg xmlns="http://www.w3.org/2000/svg" width="94.00000715255703" height="181.66666600439294" fill="none" data-darkreader-inline-fill="" style="--darkreader-inline-fill:none;"><rect id="backgroundrect" width="100%" height="100%" x="0" y="0" fill="none" stroke="none" data-darkreader-inline-fill="" data-darkreader-inline-stroke="" style="--darkreader-inline-fill:none; --darkreader-inline-stroke:none;" class=""/>










<mask id="path-11-inside-1" fill="white" data-darkreader-inline-fill="" style="--darkreader-inline-fill:#edebe8;">
<path fill-rule="evenodd" clip-rule="evenodd" d="M158.458 25.445L159.921 23.9275C160.293 23.5417 160.39 23.3642 160.453 23.1511C160.516 22.9379 160.516 22.7208 160.452 22.5077C160.389 22.2947 160.292 22.1172 159.92 21.732L139.721 0.843758C139.48 0.611523 139.169 0.497384 138.859 0.500045C138.534 0.497266 138.209 0.622375 137.966 0.873992L117.797 21.732C117.425 22.1172 117.328 22.2947 117.265 22.5077C117.201 22.7208 117.201 22.9379 117.264 23.1511C117.328 23.3642 117.424 23.5417 117.796 23.9275L119.259 25.445L119.462 25.6144C119.945 25.9375 120.606 25.8791 121.024 25.4461L138.859 7.00249L156.693 25.4461L156.896 25.6152C157.38 25.9377 158.04 25.8785 158.458 25.445Z" id="svg_1"/>
</mask>


<g class="currentLayer" style=""><title>Layer 1</title><path d="M82.61767175292968,137.49133325386046 C81.6916717529297,142.78733325386048 78.70067175292968,147.49933325386047 74.30367175292969,150.59233325386046 L67.41467175292968,155.41633325386047 C63.76067175292968,157.97033325386047 59.239671752929695,158.96533325386048 54.850671752929685,158.1813332538605 L12.070671752929684,150.63833325386048 C10.243671752929686,150.31633325386048 9.023671752929687,148.57333325386048 9.34567175292969,146.74633325386048 C10.028671752929682,142.95933325386048 13.380671752929686,140.24233325386047 17.22667175292969,140.35733325386047 L34.255671752929686,140.90433325386047 L11.773671752929687,108.79633325386047 C9.935671752929693,106.07833325386048 10.648671752929687,102.38583325386047 13.365671752929686,100.54823325386047 C16.02167175292969,98.75253325386048 19.62267175292969,99.38753325386047 21.502671752929686,101.98303325386047 L33.76667175292968,119.49633325386047 C31.928671752929688,116.77933325386047 32.64167175292968,113.08633325386047 35.358671752929695,111.24933325386047 C38.0146717529297,109.45333325386048 41.6156717529297,110.08833325386047 43.495671752929695,112.68333325386047 L44.858671752929695,114.63033325386047 C43.0206717529297,111.91233325386047 43.733671752929695,108.22033325386047 46.451671752929684,106.38233325386048 C49.106671752929685,104.58633325386047 52.707671752929684,105.22133325386048 54.588671752929685,107.81733325386047 L55.95067175292968,109.76333325386048 C55.06667175292969,108.50133325386048 54.7046717529297,106.94633325386047 54.9426717529297,105.42333325386048 L54.9486717529297,105.39033325386048 C55.201671752929684,103.80933325386047 56.090671752929694,102.40053325386047 57.40967175292968,101.49173325386047 C60.096671752929694,99.61083325386048 63.7996717529297,100.26373325386048 65.6806717529297,102.95013325386047 L79.27967175292969,122.37033325386048 C82.35567175292968,126.76833325386048 83.55667175292967,132.20833325386047 82.61767175292968,137.49133325386046 z" fill="white" id="svg_3" data-darkreader-inline-fill="" style="--darkreader-inline-fill:#131516;" class=""/><path d="M40.189671752929684,126.59933325386048 C40.108671752929695,127.03933325386048 39.86967175292969,127.43433325386047 39.51667175292968,127.70833325386047 L33.76667175292968,119.49633325386047 C32.87667175292968,118.22433325386048 32.51767175292969,116.65633325386047 32.76367175292968,115.12433325386047 L39.9306717529297,125.35933325386047 C40.1636717529297,125.72833325386047 40.255671752929686,126.16833325386047 40.189671752929684,126.59933325386048 z" fill="#FFB74D" id="svg_4" data-darkreader-inline-fill="" style="--darkreader-inline-fill:#ffbb4d;" class=""/><path d="M49.91967175292967,119.78633325386048 C49.838671752929685,120.22633325386047 49.59967175292968,120.62133325386047 49.2466717529297,120.89633325386048 L44.858671752929695,114.62933325386048 C43.969671752929685,113.35733325386047 43.6096717529297,111.78933325386048 43.85567175292968,110.25733325386048 L49.66067175292969,118.54633325386047 C49.89367175292969,118.91533325386047 49.985671752929676,119.35533325386048 49.91967175292967,119.78633325386048 z" fill="#FFB74D" id="svg_5" data-darkreader-inline-fill="" style="--darkreader-inline-fill:#ffbb4d;" class=""/><path d="M56.93267175292968,111.16433325386048 L55.951671752929684,109.76233325386048 C55.06667175292969,108.50133325386048 54.7046717529297,106.94533325386047 54.9426717529297,105.42333325386048 L57.346671752929694,108.81433325386047 C57.864671752929695,109.58433325386048 57.68467175292969,110.62233325386048 56.93267175292968,111.16433325386048 z" fill="#FFB74D" id="svg_6" data-darkreader-inline-fill="" style="--darkreader-inline-fill:#ffbb4d;" class=""/><path fill-rule="evenodd" clip-rule="evenodd" d="M11.790671752929683,152.30833325386047 L54.56667175292969,159.85033325386047 C59.3896717529297,160.68533325386048 64.34867175292968,159.58533325386048 68.36667175292968,156.7883332538605 L75.25367175292968,151.97133325386048 L75.25467175292968,151.97133325386048 C85.1866717529297,145.01633325386047 87.60067175292968,131.32633325386047 80.6456717529297,121.39333325386048 L67.06567175292969,102.00023325386047 C66.00367175292968,100.48023325386048 64.42167175292968,99.40023325386048 62.61967175292969,98.96343325386047 C58.53367175292968,97.97333325386047 54.4186717529297,100.48313325386047 53.42767175292968,104.56933325386048 C50.870671752929695,103.19393325386048 47.76067175292968,103.35833325386048 45.36367175292969,104.99633325386047 C43.8416717529297,106.05533325386047 42.761671752929686,107.63633325386047 42.328671752929694,109.43833325386048 C42.01767175292969,109.26633325386048 41.695671752929684,109.11633325386047 41.364671752929695,108.98933325386048 C37.43867175292968,107.48333325386048 33.03567175292969,109.44533325386047 31.530671752929692,113.37133325386047 L22.88867175292968,101.03323325386047 C20.418671752929683,97.67663325386047 15.746671752929686,96.85293325386047 12.277671752929692,99.16233325386047 C8.83667175292969,101.57933325386047 7.999671752929686,106.32433325386047 10.406671752929682,109.77333325386047 L30.962671752929694,139.12933325386047 L17.296671752929683,138.68433325386047 C12.61367175292969,138.5503332538605 8.535671752929687,141.85933325386048 7.702671752929689,146.47033325386047 C7.219671752929685,149.21133325386046 9.049671752929683,151.8243332538605 11.790671752929683,152.30833325386047 zM12.443671752929689,104.65033325386047 C12.85867175292968,102.33473325386048 15.072671752929693,100.79423325386047 17.38867175292968,101.20973325386048 C18.50167175292968,101.40313325386047 19.490671752929686,102.03333325386048 20.136671752929686,102.96003325386047 L37.1686717529297,127.28433325386047 C37.17967175292969,127.30033325386047 37.19067175292969,127.31633325386048 37.20267175292969,127.33233325386047 C37.747671752929676,128.08333325386047 38.79867175292969,128.24933325386047 39.54867175292969,127.70433325386047 C40.2996717529297,127.15933325386047 40.465671752929694,126.10833325386048 39.92067175292968,125.35833325386048 L35.1516717529297,118.54733325386047 C33.80267175292968,116.62033325386048 34.27067175292969,113.96433325386047 36.19767175292969,112.61433325386048 C38.13767175292969,111.32633325386047 40.747671752929676,111.78633325386048 42.12967175292968,113.66033325386047 L46.89867175292969,120.47133325386048 C47.4306717529297,121.20333325386048 48.44667175292969,121.38333325386047 49.19767175292969,120.87733325386047 C49.9666717529297,120.35833325386048 50.1686717529297,119.31433325386047 49.650671752929696,118.54533325386048 L46.243671752929686,113.68033325386047 C44.9546717529297,111.77533325386047 45.40967175292968,109.19033325386047 47.27367175292969,107.84133325386047 C49.17867175292969,106.46133325386047 51.842671752929675,106.88833325386048 53.221671752929694,108.79333325386047 L56.62867175292968,113.65833325386048 C57.16067175292969,114.39133325386048 58.17667175292968,114.57033325386047 58.92667175292968,114.06433325386047 C59.695671752929684,113.54533325386048 59.89867175292969,112.50133325386048 59.380671752929686,111.73233325386047 L57.336671752929675,108.81333325386048 C57.30967175292969,108.77733325386048 57.28467175292968,108.74033325386047 57.25967175292968,108.70333325386048 C55.94067175292969,106.75533325386047 56.45067175292968,104.10633325386047 58.39867175292969,102.78733325386047 C60.346671752929694,101.46843325386047 62.995671752929695,101.97863325386048 64.31467175292968,103.92733325386047 L77.91067175292969,123.32333325386047 C83.7996717529297,131.73633325386047 81.75567175292969,143.33133325386046 73.34367175292968,149.22233325386048 L66.46267175292968,154.04033325386047 C63.1686717529297,156.33333325386047 59.102671752929695,157.23333325386048 55.14867175292969,156.54533325386046 L12.359671752929685,149.00033325386048 C11.446671752929689,148.83933325386047 10.835671752929684,147.96833325386046 10.99767175292969,147.05433325386048 C11.533671752929692,144.08733325386046 14.157671752929687,141.95733325386047 17.171671752929683,142.04333325386048 L34.198671752929684,142.60033325386047 C34.56367175292969,142.61233325386047 34.92267175292969,142.50533325386047 35.22067175292969,142.29633325386047 C35.979671752929676,141.76333325386048 36.1636717529297,140.71533325386048 35.630671752929686,139.95633325386046 L13.147671752929682,107.84733325386047 C12.496671752929686,106.91833325386047 12.243671752929686,105.76733325386047 12.443671752929689,104.65033325386047 z" fill="black" id="svg_7" data-darkreader-inline-fill="" style="--darkreader-inline-fill:#000000;" class=""/><path fill-rule="evenodd" clip-rule="evenodd" d="M60.52767175292968,48.852433253860475 L61.70267175292969,47.63463325386047 C62.00067175292969,47.325033253860475 62.07767175292969,47.18253325386048 62.12867175292968,47.011433253860474 C62.17967175292969,46.840433253860475 62.17967175292969,46.66613325386047 62.12867175292968,46.49513325386047 C62.07767175292969,46.32423325386048 61.999671752929686,46.181833253860475 61.70067175292968,45.87263325386047 L45.4906717529297,29.109233253860474 C45.29767175292969,28.922833253860475 45.04767175292969,28.831233253860475 44.79867175292969,28.833333253860474 C44.5386717529297,28.831133253860475 44.27767175292968,28.931533253860472 44.082671752929684,29.133433253860474 L27.89667175292969,45.87263325386047 C27.597671752929685,46.181833253860475 27.519671752929682,46.32423325386048 27.469671752929685,46.49513325386047 C27.418671752929683,46.66613325386047 27.417671752929692,46.840433253860475 27.468671752929694,47.011433253860474 C27.519671752929682,47.18253325386048 27.596671752929694,47.325033253860475 27.895671752929687,47.63463325386047 L29.069671752929693,48.852433253860475 L29.23267175292969,48.988333253860475 C29.62067175292968,49.24763325386047 30.150671752929682,49.20073325386048 30.48667175292968,48.85333325386048 L44.79867175292969,34.051733253860476 L59.11167175292968,48.85333325386048 L59.27367175292969,48.98903325386048 C59.6626717529297,49.24783325386047 60.1926717529297,49.20033325386047 60.52767175292968,48.852433253860475 z" fill="#E9E9E9" id="svg_8" data-darkreader-inline-fill="" style="--darkreader-inline-fill:#dfdbd6;" class=""/><path d="M61.70267175292969,47.63463325386047 L61.342671752929675,47.28743325386047 L61.342671752929675,47.28743325386047 L61.70267175292969,47.63463325386047 zM60.52767175292968,48.852433253860475 L60.88767175292969,49.19953325386047 L60.88767175292969,49.19953325386047 L60.52767175292968,48.852433253860475 zM61.70067175292968,45.87263325386047 L62.06067175292969,45.52503325386047 L62.06067175292969,45.52503325386047 L61.70067175292968,45.87263325386047 zM45.4906717529297,29.109233253860474 L45.84967175292968,28.761633253860474 L45.84367175292968,28.755333253860474 L45.83767175292968,28.749333253860474 L45.4906717529297,29.109233253860474 zM44.79867175292969,28.833333253860474 L44.79467175292967,29.333433253860473 L44.80367175292969,29.333333253860474 L44.79867175292969,28.833333253860474 zM44.082671752929684,29.133433253860474 L44.44167175292969,29.481033253860474 L44.44167175292969,29.481033253860474 L44.082671752929684,29.133433253860474 zM27.89667175292969,45.87263325386047 L28.255671752929686,46.220133253860475 L27.89667175292969,45.87263325386047 zM27.469671752929685,46.49513325386047 L26.98967175292968,46.352433253860475 V46.352433253860475 L27.469671752929685,46.49513325386047 zM27.468671752929694,47.011433253860474 L26.98967175292968,47.15353325386047 L26.98967175292968,47.15353325386047 L27.468671752929694,47.011433253860474 zM27.895671752929687,47.63463325386047 L28.255671752929686,47.28743325386047 L27.895671752929687,47.63463325386047 zM29.069671752929693,48.852433253860475 L28.709671752929694,49.19953325386047 L28.728671752929685,49.218833253860474 L28.74867175292968,49.23593325386047 L29.069671752929693,48.852433253860475 zM29.23267175292969,48.988333253860475 L28.911671752929692,49.37183325386047 L28.932671752929693,49.38913325386047 L28.954671752929684,49.404033253860476 L29.23267175292969,48.988333253860475 zM30.48667175292968,48.85333325386048 L30.84567175292969,49.20093325386048 V49.20093325386048 L30.48667175292968,48.85333325386048 zM44.79867175292969,34.051733253860476 L45.15867175292968,33.70423325386047 L44.79867175292969,33.332533253860475 L44.439671752929684,33.70423325386047 L44.79867175292969,34.051733253860476 zM59.11167175292968,48.85333325386048 L58.751671752929695,49.20093325386048 L58.7706717529297,49.220133253860475 L58.79067175292968,49.23733325386048 L59.11167175292968,48.85333325386048 zM59.27367175292969,48.98903325386048 L58.953671752929694,49.37303325386048 L58.97467175292968,49.39023325386047 L58.9966717529297,49.40513325386048 L59.27367175292969,48.98903325386048 zM61.342671752929675,47.28743325386047 L60.16767175292969,48.50533325386047 L60.88767175292969,49.19953325386047 L62.062671752929674,47.981733253860476 L61.342671752929675,47.28743325386047 zM61.64967175292969,46.869333253860475 C61.63567175292968,46.91583325386048 61.622671752929676,46.94793325386048 61.590671752929694,46.99633325386047 C61.55267175292968,47.05453325386048 61.48267175292969,47.14193325386047 61.342671752929675,47.28743325386047 L62.062671752929674,47.981733253860476 C62.38767175292969,47.643933253860475 62.525671752929696,47.433133253860476 62.60767175292969,47.15353325386047 L61.64967175292969,46.869333253860475 zM61.64967175292969,46.637933253860474 C61.67267175292969,46.71593325386047 61.67267175292969,46.791233253860476 61.64967175292969,46.869333253860475 L62.60767175292969,47.15353325386047 C62.6866717529297,46.88953325386047 62.6866717529297,46.616333253860475 62.60767175292969,46.352433253860475 L61.64967175292969,46.637933253860474 zM61.3416717529297,46.220133253860475 C61.48267175292969,46.36543325386047 61.55167175292968,46.452833253860476 61.590671752929694,46.511033253860475 C61.622671752929676,46.55933325386047 61.63567175292968,46.59143325386047 61.64967175292969,46.637933253860474 L62.60767175292969,46.352433253860475 C62.52467175292969,46.07293325386048 62.386671752929686,45.86233325386048 62.06067175292969,45.52503325386047 L61.3416717529297,46.220133253860475 zM45.13167175292969,29.456833253860474 L61.3416717529297,46.220133253860475 L62.06067175292969,45.52503325386047 L45.84967175292968,28.761633253860474 L45.13167175292969,29.456833253860474 zM44.80367175292969,29.333333253860474 C44.92667175292968,29.332333253860472 45.04867175292969,29.377233253860474 45.14367175292969,29.469133253860473 L45.83767175292968,28.749333253860474 C45.54667175292968,28.468433253860475 45.1686717529297,28.330133253860474 44.79467175292967,28.333433253860473 L44.80367175292969,29.333333253860474 zM44.44167175292969,29.481033253860474 C44.5376717529297,29.381633253860475 44.66567175292968,29.332233253860473 44.79467175292967,29.333333253860474 L44.80367175292969,28.333433253860473 C44.41167175292969,28.330033253860474 44.01767175292969,28.481433253860473 43.7226717529297,28.785933253860474 L44.44167175292969,29.481033253860474 zM28.255671752929686,46.220133253860475 L44.44167175292969,29.481033253860474 L43.7226717529297,28.785933253860474 L27.536671752929692,45.52503325386047 L28.255671752929686,46.220133253860475 zM27.948671752929684,46.637933253860474 C27.962671752929694,46.59143325386047 27.975671752929685,46.55933325386047 28.00667175292969,46.511033253860475 C28.045671752929692,46.452833253860476 28.115671752929686,46.36543325386047 28.255671752929686,46.220133253860475 L27.536671752929692,45.52503325386047 C27.210671752929684,45.86233325386048 27.073671752929684,46.07293325386048 26.98967175292968,46.352433253860475 L27.948671752929684,46.637933253860474 zM27.948671752929684,46.869333253860475 C27.924671752929683,46.791233253860476 27.924671752929683,46.71593325386047 27.948671752929684,46.637933253860474 L26.98967175292968,46.352433253860475 C26.911671752929692,46.616333253860475 26.911671752929692,46.88953325386047 26.98967175292968,47.15353325386047 L27.948671752929684,46.869333253860475 zM28.255671752929686,47.28743325386047 C28.11467175292968,47.14193325386047 28.044671752929688,47.05453325386048 28.00667175292969,46.99633325386047 C27.974671752929694,46.94793325386048 27.96167175292969,46.91583325386048 27.948671752929684,46.869333253860475 L26.98967175292968,47.15353325386047 C27.072671752929693,47.433133253860476 27.209671752929694,47.643933253860475 27.535671752929687,47.981733253860476 L28.255671752929686,47.28743325386047 zM29.429671752929693,48.50533325386047 L28.255671752929686,47.28743325386047 L27.535671752929687,47.981733253860476 L28.709671752929694,49.19953325386047 L29.429671752929693,48.50533325386047 zM29.552671752929683,48.60473325386047 L29.39067175292969,48.468833253860474 L28.74867175292968,49.23593325386047 L28.911671752929692,49.37183325386047 L29.552671752929683,48.60473325386047 zM30.12667175292968,48.50573325386048 C29.96167175292969,48.67633325386048 29.700671752929694,48.700033253860475 29.50967175292969,48.572633253860474 L28.954671752929684,49.404033253860476 C29.539671752929692,49.795233253860474 30.338671752929685,49.72513325386048 30.84567175292969,49.20093325386048 L30.12667175292968,48.50573325386048 zM44.439671752929684,33.70423325386047 L30.12667175292968,48.50573325386048 L30.84567175292969,49.20093325386048 L45.15867175292968,34.399333253860476 L44.439671752929684,33.70423325386047 zM59.47067175292969,48.50573325386048 L45.15867175292968,33.70423325386047 L44.439671752929684,34.399333253860476 L58.751671752929695,49.20093325386048 L59.47067175292969,48.50573325386048 zM59.594671752929685,48.605033253860476 L59.431671752929674,48.469333253860476 L58.79067175292968,49.23733325386048 L58.953671752929694,49.37303325386048 L59.594671752929685,48.605033253860476 zM60.16767175292969,48.50533325386047 C60.0026717529297,48.67613325386047 59.74267175292968,48.70013325386047 59.55167175292968,48.57293325386048 L58.9966717529297,49.40513325386048 C59.582671752929684,49.79553325386048 60.38167175292969,49.724433253860475 60.88767175292969,49.19953325386047 L60.16767175292969,48.50533325386047 z" fill="white" id="svg_9" data-darkreader-inline-fill="" style="--darkreader-inline-fill:#edebe8;" class=""/><path fill-rule="evenodd" clip-rule="evenodd" d="M53.334671752929694,64.00053325386048 L53.9306717529297,63.38203325386047 C54.082671752929684,63.224833253860474 54.1216717529297,63.15243325386047 54.14767175292968,63.065633253860476 C54.17267175292969,62.978733253860476 54.17267175292969,62.89023325386047 54.14767175292968,62.80333325386047 C54.1216717529297,62.716533253860476 54.08167175292968,62.64423325386047 53.9306717529297,62.487233253860474 L45.69767175292969,53.97343325386047 C45.59967175292968,53.87883325386047 45.4726717529297,53.83223325386047 45.34567175292969,53.833333253860474 C45.213671752929685,53.83223325386047 45.08167175292968,53.883233253860475 44.981671752929685,53.985733253860474 L36.761671752929686,62.487233253860474 C36.6096717529297,62.64423325386047 36.570671752929684,62.716533253860476 36.54467175292967,62.80333325386047 C36.51867175292969,62.89023325386047 36.51867175292969,62.978733253860476 36.54467175292967,63.065633253860476 C36.570671752929684,63.15243325386047 36.6096717529297,63.224833253860474 36.76067175292968,63.38203325386047 L37.35767175292969,64.00053325386048 L37.439671752929684,64.06963325386047 C37.63767175292969,64.20133325386047 37.9066717529297,64.17753325386047 38.076671752929684,64.00103325386047 L45.34567175292969,56.483633253860475 L52.614671752929695,64.00103325386047 L52.69767175292969,64.06993325386048 C52.894671752929696,64.20143325386047 53.1636717529297,64.17723325386046 53.334671752929694,64.00053325386048 z" fill="#E9E9E9" id="svg_10" data-darkreader-inline-fill="" style="--darkreader-inline-fill:#dfdbd6;" class=""/><path d="M53.9306717529297,63.38203325386047 L55.01067175292968,64.42333325386048 L55.01067175292968,64.42333325386048 L53.9306717529297,63.38203325386047 zM53.334671752929694,64.00053325386048 L52.25467175292968,62.959233253860475 H52.25467175292968 L53.334671752929694,64.00053325386048 zM54.14767175292968,62.80333325386047 L55.584671752929694,62.375133253860476 L54.14767175292968,62.80333325386047 zM53.9306717529297,62.487233253860474 L55.0086717529297,61.44453325386047 L55.0086717529297,61.444433253860474 L53.9306717529297,62.487233253860474 zM45.69767175292969,53.97343325386047 L46.775671752929696,52.930733253860474 L46.757671752929696,52.911933253860475 L46.73867175292969,52.893733253860475 L45.69767175292969,53.97343325386047 zM45.34567175292969,53.833333253860474 L45.332671752929684,55.333333253860474 L45.34567175292969,55.33343325386048 L45.358671752929695,55.333333253860474 L45.34567175292969,53.833333253860474 zM44.981671752929685,53.985733253860474 L46.06067175292969,55.02843325386048 L46.06067175292969,55.02843325386048 L44.981671752929685,53.985733253860474 zM36.761671752929686,62.487233253860474 L35.68367175292968,61.44453325386047 L35.68367175292968,61.44453325386047 L36.761671752929686,62.487233253860474 zM36.54467175292967,63.065633253860476 L35.106671752929685,63.49193325386047 L35.106671752929685,63.49193325386047 L36.54467175292967,63.065633253860476 zM36.76067175292968,63.38203325386047 L37.840671752929694,62.34073325386047 L37.840671752929694,62.34073325386047 L36.76067175292968,63.38203325386047 zM37.35767175292969,64.00053325386048 L36.27767175292968,65.04183325386047 L36.33367175292969,65.09973325386048 L36.3956717529297,65.15123325386048 L37.35767175292969,64.00053325386048 zM37.439671752929684,64.06963325386047 L36.477671752929695,65.22023325386047 L36.53967175292968,65.27203325386047 L36.606671752929685,65.31683325386047 L37.439671752929684,64.06963325386047 zM38.076671752929684,64.00103325386047 L39.15567175292969,65.04373325386047 L39.15567175292969,65.04373325386047 L38.076671752929684,64.00103325386047 zM45.34567175292969,56.483633253860475 L46.4246717529297,55.44093325386047 L45.34567175292969,54.32583325386047 L44.26767175292969,55.44093325386047 L45.34567175292969,56.483633253860475 zM52.614671752929695,64.00103325386047 L51.53667175292969,65.04373325386047 L51.592671752929675,65.10143325386048 L51.65367175292968,65.15293325386048 L52.614671752929695,64.00103325386047 zM52.69767175292969,64.06993325386048 L51.73667175292968,65.22183325386047 L51.79867175292969,65.27353325386048 L51.8656717529297,65.31823325386048 L52.69767175292969,64.06993325386048 zM52.850671752929685,62.34073325386047 L52.25467175292968,62.959233253860475 L54.4136717529297,65.04183325386047 L55.01067175292968,64.42333325386048 L52.850671752929685,62.34073325386047 zM52.709671752929694,62.639233253860475 C52.7166717529297,62.614233253860476 52.731671752929685,62.56873325386047 52.75667175292969,62.513633253860476 C52.7816717529297,62.457933253860475 52.80867175292968,62.410633253860475 52.832671752929684,62.37313325386047 C52.874671752929686,62.30933325386047 52.89967175292969,62.29003325386047 52.850671752929685,62.34073325386047 L55.01067175292968,64.42333325386048 C55.243671752929686,64.18173325386047 55.463671752929685,63.904433253860475 55.5856717529297,63.49193325386047 L52.709671752929694,62.639233253860475 zM52.709671752929694,63.23163325386047 C52.65267175292968,63.03963325386047 52.65267175292968,62.831233253860475 52.709671752929694,62.639233253860475 L55.5856717529297,63.49193325386047 C55.693671752929674,63.12623325386048 55.693671752929674,62.740733253860476 55.584671752929694,62.375133253860476 L52.709671752929694,63.23163325386047 zM52.85167175292969,63.52993325386047 C52.900671752929696,63.58053325386047 52.87567175292969,63.561333253860475 52.83367175292969,63.497533253860475 C52.80867175292968,63.46003325386047 52.7816717529297,63.41283325386048 52.75667175292969,63.357133253860475 C52.731671752929685,63.302133253860475 52.7166717529297,63.25663325386047 52.709671752929694,63.23163325386047 L55.584671752929694,62.375133253860476 C55.461671752929675,61.96293325386048 55.241671752929676,61.68583325386047 55.0086717529297,61.44453325386047 L52.85167175292969,63.52993325386047 zM44.618671752929686,55.016133253860474 L52.85167175292969,63.52993325386047 L55.0086717529297,61.444433253860474 L46.775671752929696,52.930733253860474 L44.618671752929686,55.016133253860474 zM45.358671752929695,55.333333253860474 C45.108671752929695,55.33543325386047 44.85167175292969,55.24203325386048 44.65567175292969,55.05313325386047 L46.73867175292969,52.893733253860475 C46.346671752929694,52.515533253860475 45.836671752929675,52.329133253860476 45.332671752929684,52.33343325386048 L45.358671752929695,55.333333253860474 zM46.06067175292969,55.02843325386048 C45.862671752929685,55.233433253860476 45.594671752929685,55.335533253860476 45.332671752929684,55.333333253860474 L45.358671752929695,52.33343325386048 C44.832671752929684,52.32893325386048 44.300671752929674,52.53293325386047 43.90367175292968,52.94303325386048 L46.06067175292969,55.02843325386048 zM37.83967175292969,63.52993325386047 L46.06067175292969,55.02843325386048 L43.90367175292968,52.94303325386048 L35.68367175292968,61.44453325386047 L37.83967175292969,63.52993325386047 zM37.98267175292969,63.23163325386047 C37.97467175292968,63.25663325386047 37.959671752929694,63.302133253860475 37.93467175292969,63.357133253860475 C37.90967175292968,63.41283325386048 37.882671752929696,63.46003325386047 37.85767175292969,63.497533253860475 C37.81567175292969,63.561333253860475 37.79067175292968,63.58053325386047 37.83967175292969,63.52993325386047 L35.68367175292968,61.44453325386047 C35.449671752929675,61.68583325386047 35.229671752929676,61.962833253860474 35.106671752929685,62.375133253860476 L37.98267175292969,63.23163325386047 zM37.98267175292969,62.639233253860475 C38.03967175292968,62.831233253860475 38.03967175292968,63.03963325386047 37.98267175292969,63.23163325386047 L35.106671752929685,62.375133253860476 C34.997671752929676,62.740733253860476 34.997671752929676,63.12623325386048 35.106671752929685,63.49193325386047 L37.98267175292969,62.639233253860475 zM37.840671752929694,62.34073325386047 C37.79167175292969,62.29003325386047 37.81667175292969,62.30933325386047 37.858671752929695,62.37313325386047 C37.8836717529297,62.410633253860475 37.91067175292969,62.457933253860475 37.93567175292969,62.513633253860476 C37.9606717529297,62.568633253860476 37.97467175292968,62.61413325386047 37.98267175292969,62.639233253860475 L35.106671752929685,63.49193325386047 C35.2286717529297,63.904433253860475 35.4486717529297,64.18173325386047 35.681671752929674,64.42333325386048 L37.840671752929694,62.34073325386047 zM38.437671752929674,62.959233253860475 L37.840671752929694,62.34073325386047 L35.681671752929674,64.42333325386048 L36.27767175292968,65.04183325386047 L38.437671752929674,62.959233253860475 zM38.40267175292968,62.91893325386047 L38.31967175292968,62.84993325386047 L36.3956717529297,65.15123325386048 L36.477671752929695,65.22023325386047 L38.40267175292968,62.91893325386047 zM36.99867175292968,62.958333253860474 C37.340671752929694,62.60423325386047 37.87867175292968,62.55843325386047 38.27367175292969,62.822433253860474 L36.606671752929685,65.31683325386047 C37.3956717529297,65.84413325386048 38.471671752929694,65.75073325386047 39.15567175292969,65.04373325386047 L36.99867175292968,62.958333253860474 zM44.26767175292969,55.44093325386047 L36.99867175292968,62.958333253860474 L39.15567175292969,65.04373325386047 L46.4246717529297,57.52633325386047 L44.26767175292969,55.44093325386047 zM53.693671752929674,62.958333253860474 L46.4246717529297,55.44093325386047 L44.26767175292969,57.52633325386047 L51.53667175292969,65.04373325386047 L53.693671752929674,62.958333253860474 zM53.65867175292968,62.91803325386047 L53.57567175292968,62.84913325386047 L51.65367175292968,65.15293325386048 L51.73667175292968,65.22183325386047 L53.65867175292968,62.91803325386047 zM52.25467175292968,62.959233253860475 C52.596671752929694,62.60473325386047 53.1336717529297,62.55823325386047 53.52967175292969,62.821633253860476 L51.8656717529297,65.31823325386048 C52.65567175292969,65.84453325386048 53.731671752929685,65.74973325386048 54.4136717529297,65.04183325386047 L52.25467175292968,62.959233253860475 z" fill="white" id="svg_11" data-darkreader-inline-fill="" style="--darkreader-inline-fill:#edebe8;" class=""/><path fill-rule="evenodd" clip-rule="evenodd" d="M65.12467175292969,28.778333253860474 L66.58767175292968,27.260833253860472 C66.9596717529297,26.875033253860472 67.05667175292967,26.697533253860474 67.11967175292969,26.484433253860473 C67.18267175292968,26.271233253860473 67.18267175292968,26.054133253860474 67.11867175292969,25.841033253860473 C67.0556717529297,25.628033253860472 66.95867175292969,25.450533253860474 66.58667175292967,25.065333253860473 L46.38767175292969,4.177091253860474 C46.14667175292968,3.9448562538604737 45.8356717529297,3.830717253860474 45.525671752929696,3.8333782538604737 C45.20067175292968,3.830599253860474 44.87567175292969,3.9557082538604735 44.632671752929696,4.207325253860474 L24.463671752929685,25.065333253860473 C24.091671752929685,25.450533253860474 23.99467175292969,25.628033253860472 23.931671752929688,25.841033253860473 C23.86767175292968,26.054133253860474 23.86767175292968,26.271233253860473 23.930671752929683,26.484433253860473 C23.99467175292969,26.697533253860474 24.090671752929694,26.875033253860472 24.462671752929694,27.260833253860472 L25.925671752929688,28.778333253860474 L26.12867175292969,28.947733253860473 C26.61167175292968,29.270833253860474 27.272671752929682,29.212433253860475 27.69067175292969,28.779433253860475 L45.525671752929696,10.335823253860474 L63.3596717529297,28.779433253860475 L63.562671752929674,28.948533253860475 C64.04667175292968,29.271033253860473 64.70667175292968,29.211833253860473 65.12467175292969,28.778333253860474 z" fill="#E9E9E9" id="svg_12" data-darkreader-inline-fill="" style="--darkreader-inline-fill:#dfdbd6;" class=""/><path d="M66.58767175292968,27.260833253860472 L65.86867175292969,26.566633253860473 H65.86867175292969 L66.58767175292968,27.260833253860472 zM65.12467175292969,28.778333253860474 L65.84467175292968,29.472533253860473 H65.84467175292968 L65.12467175292969,28.778333253860474 zM67.11867175292969,25.841033253860473 L68.07767175292969,25.555633253860474 L67.11867175292969,25.841033253860473 zM66.58667175292967,25.065333253860473 L67.3056717529297,24.370133253860473 L67.3056717529297,24.370133253860473 L66.58667175292967,25.065333253860473 zM46.38767175292969,4.177091253860474 L47.106671752929685,3.481940253860474 L47.09367175292968,3.4694112538604736 L47.08167175292968,3.4573112538604738 L46.38767175292969,4.177091253860474 zM45.525671752929696,3.8333782538604737 L45.51667175292968,4.833343253860473 L45.525671752929696,4.833413253860474 L45.53367175292968,4.833343253860473 L45.525671752929696,3.8333782538604737 zM44.632671752929696,4.207325253860474 L43.9136717529297,3.5121922538604737 V3.5121922538604737 L44.632671752929696,4.207325253860474 zM24.463671752929685,25.065333253860473 L25.182671752929693,25.760433253860473 V25.760433253860473 L24.463671752929685,25.065333253860473 zM23.931671752929688,25.841033253860473 L22.972671752929685,25.555633253860474 L22.972671752929685,25.555633253860474 L23.931671752929688,25.841033253860473 zM23.930671752929683,26.484433253860473 L24.889671752929686,26.200133253860475 L24.889671752929686,26.200133253860475 L23.930671752929683,26.484433253860473 zM24.462671752929694,27.260833253860472 L25.182671752929693,26.566633253860473 H25.182671752929693 L24.462671752929694,27.260833253860472 zM25.925671752929688,28.778333253860474 L25.206671752929694,29.472533253860473 L25.243671752929686,29.511133253860475 L25.284671752929682,29.545433253860473 L25.925671752929688,28.778333253860474 zM26.12867175292969,28.947733253860473 L25.48667175292968,29.714733253860473 L25.528671752929682,29.749233253860474 L25.572671752929693,29.779133253860472 L26.12867175292969,28.947733253860473 zM27.69067175292969,28.779433253860475 L26.971671752929694,28.084333253860475 L26.971671752929694,28.084333253860475 L27.69067175292969,28.779433253860475 zM45.525671752929696,10.335823253860474 L46.243671752929686,9.640693253860473 L45.525671752929696,8.897253253860473 L44.806671752929674,9.640693253860473 L45.525671752929696,10.335823253860474 zM63.3596717529297,28.779433253860475 L62.64067175292968,29.474633253860475 L62.67767175292968,29.513133253860474 L62.71867175292968,29.547433253860472 L63.3596717529297,28.779433253860475 zM63.562671752929674,28.948533253860475 L62.92167175292968,29.716533253860472 L62.96267175292968,29.750933253860474 L63.007671752929696,29.780733253860475 L63.562671752929674,28.948533253860475 zM65.86867175292969,26.566633253860473 L64.40467175292969,28.084133253860475 L65.84467175292968,29.472533253860473 L67.30767175292968,27.955033253860474 L65.86867175292969,26.566633253860473 zM66.16067175292969,26.200133253860475 C66.15367175292968,26.222233253860473 66.1506717529297,26.229133253860475 66.1506717529297,26.230733253860475 C66.14967175292969,26.231933253860475 66.14667175292968,26.239933253860475 66.1336717529297,26.258333253860474 C66.10467175292968,26.302633253860474 66.03667175292969,26.392333253860475 65.86867175292969,26.566633253860473 L67.30767175292968,27.955033253860474 C67.7336717529297,27.513033253860474 67.95067175292968,27.198833253860474 68.07767175292969,26.768633253860475 L66.16067175292969,26.200133253860475 zM66.16067175292969,26.126533253860472 C66.1686717529297,26.153733253860473 66.1686717529297,26.172933253860474 66.16067175292969,26.200133253860475 L68.07767175292969,26.768633253860475 C68.19667175292969,26.369533253860475 68.19667175292969,25.954433253860472 68.07767175292969,25.555633253860474 L66.16067175292969,26.126533253860472 zM65.86767175292968,25.760433253860473 C66.03567175292969,25.934533253860472 66.10467175292968,26.024133253860473 66.1336717529297,26.068333253860473 C66.1456717529297,26.086833253860473 66.14967175292969,26.094733253860475 66.14967175292969,26.096033253860472 C66.1506717529297,26.097633253860472 66.15367175292968,26.104433253860474 66.16067175292969,26.126533253860472 L68.07767175292969,25.555633253860474 C67.94967175292967,25.125633253860475 67.73267175292969,24.811633253860474 67.3056717529297,24.370133253860473 L65.86767175292968,25.760433253860473 zM45.6686717529297,4.872243253860473 L65.86767175292968,25.760433253860473 L67.3056717529297,24.370133253860473 L47.106671752929685,3.481940253860474 L45.6686717529297,4.872243253860473 zM45.53367175292968,4.833343253860473 C45.592671752929675,4.832833253860474 45.64867175292969,4.853713253860473 45.693671752929674,4.896873253860473 L47.08167175292968,3.4573112538604738 C46.644671752929696,3.0360032538604735 46.07767175292969,2.8285982538604735 45.51667175292968,2.8334152538604735 L45.53367175292968,4.833343253860473 zM45.35167175292969,4.902463253860473 C45.39667175292968,4.855873253860474 45.4546717529297,4.832813253860474 45.51667175292968,4.833343253860473 L45.53367175292968,2.8334152538604735 C44.94667175292969,2.8283872538604737 44.35567175292968,3.055538253860474 43.9136717529297,3.5121922538604737 L45.35167175292969,4.902463253860473 zM25.182671752929693,25.760433253860473 L45.35167175292969,4.9024532538604735 L43.9136717529297,3.5121922538604737 L23.74467175292969,24.370133253860473 L25.182671752929693,25.760433253860473 zM24.889671752929686,26.126533253860472 C24.89667175292969,26.104433253860474 24.89967175292969,26.097633253860472 24.900671752929682,26.096033253860472 C24.900671752929682,26.094733253860475 24.904671752929687,26.086833253860473 24.916671752929688,26.068333253860473 C24.945671752929684,26.024133253860473 25.014671752929686,25.934533253860472 25.182671752929693,25.760433253860473 L23.74467175292969,24.370133253860473 C23.317671752929684,24.811633253860474 23.10167175292969,25.125533253860475 22.972671752929685,25.555633253860474 L24.889671752929686,26.126533253860472 zM24.889671752929686,26.200133253860475 C24.88167175292969,26.172933253860474 24.88167175292969,26.153733253860473 24.889671752929686,26.126533253860472 L22.972671752929685,25.555633253860474 C22.85467175292969,25.954433253860472 22.853671752929685,26.369633253860474 22.972671752929685,26.768633253860475 L24.889671752929686,26.200133253860475 zM25.182671752929693,26.566633253860473 C25.01367175292968,26.392333253860475 24.945671752929684,26.302633253860474 24.916671752929688,26.258333253860474 C24.904671752929687,26.239933253860475 24.900671752929682,26.231933253860475 24.900671752929682,26.230733253860475 C24.89967175292969,26.229133253860475 24.89667175292969,26.222233253860473 24.889671752929686,26.200133253860475 L22.972671752929685,26.768633253860475 C23.099671752929694,27.198833253860474 23.316671752929693,27.513033253860474 23.74267175292968,27.955033253860474 L25.182671752929693,26.566633253860473 zM26.645671752929687,28.084133253860475 L25.182671752929693,26.566633253860473 L23.74267175292968,27.955033253860474 L25.206671752929694,29.472533253860473 L26.645671752929687,28.084133253860475 zM26.769671752929682,28.180633253860474 L26.567671752929684,28.011233253860475 L25.284671752929682,29.545433253860473 L25.48667175292968,29.714733253860473 L26.769671752929682,28.180633253860474 zM26.971671752929694,28.084333253860475 C26.895671752929687,28.163633253860475 26.772671752929682,28.175633253860475 26.683671752929683,28.116233253860475 L25.572671752929693,29.779133253860472 C26.451671752929684,30.366033253860472 27.648671752929687,30.261233253860475 28.409671752929682,29.474633253860475 L26.971671752929694,28.084333253860475 zM44.806671752929674,9.640693253860473 L26.971671752929694,28.084333253860475 L28.409671752929682,29.474633253860475 L46.243671752929686,11.030963253860474 L44.806671752929674,9.640693253860473 zM64.0786717529297,28.084333253860475 L46.243671752929686,9.640693253860473 L44.806671752929674,11.030963253860474 L62.64067175292968,29.474633253860475 L64.0786717529297,28.084333253860475 zM64.20267175292969,28.180633253860474 L63.999671752929686,28.011533253860474 L62.71867175292968,29.547433253860472 L62.92167175292968,29.716533253860472 L64.20267175292969,28.180633253860474 zM64.40467175292969,28.084133253860475 C64.32767175292969,28.163533253860475 64.20567175292967,28.175633253860475 64.11667175292968,28.116433253860475 L63.007671752929696,29.780733253860475 C63.886671752929686,30.366533253860474 65.0846717529297,30.260133253860474 65.84467175292968,29.472533253860473 L64.40467175292969,28.084133253860475 z" fill="white" mask="url(#path-11-inside-1)" id="svg_13" data-darkreader-inline-fill="" style="--darkreader-inline-fill:#edebe8;" class=""/></g></svg>