<?xml version="1.0" encoding="UTF-8" standalone="no"?> <svg id="Layer_1" data-name="Layer 1" xmlns="http://www.w3.org/2000/svg" viewBox="0 0 128 128"><defs><style>.cls-1{fill:#fff;}.cls-2{fill:#fff;}</style></defs><title>x</title><path class="cls-1" d="M115.16869,96.39116l-4.47143-34.64378a7.92124,7.92124,0,0,0-7.64959-5.38282l-43.145.6301L46.13708,26.22258a6.68377,6.68377,0,0,0-3.469-4.05549l-.10476-.05088a7.08074,7.08074,0,0,0-10.01366,8.50507L53.38678,92.72645l1.79434,6.86066L41.98776,94.09005c-.4113-.20236-10.20209-4.9041-16.1917,2.31784l-.01228.0148a1.845,1.845,0,0,0,.40878,2.69886c6.99453,4.70736,33.48283,21.68315,33.48283,21.68315A31.89359,31.89359,0,0,0,86.768,124.27507l13.50658-4.37257A21.791,21.791,0,0,0,115.16869,96.39116Z"/><path class="cls-2" d="M31.66475,45.28242A18.70318,18.70318,0,1,1,55.80648,34.36433l3.59109,8.02635A25.64448,25.64448,0,1,0,34.3017,53.14577Z"/></svg>